CoelacanthPearlHairlineItalic.sfdir
StartChar: dollar
Encoding: 36 36 1406
Width: 533
UnlinkRmOvrlpSave: 1
Flags: W
HStem: 0.639648 61.7803<187.997 345.403> 437.47 60.4199<205.114 364.155>
VStem: 105 72.8799<343.405 412.825> 384.97 71.3506<96.3621 173.46>
LayerCount: 2
Fore
SplineSet
460.450195312 432.580078125 m 1
 440.276694901 401.243424025 428.312383342 378.85976835 408 352 c 1
 356.770507812 386.870117188 l 1
 363.856603443 394.536828711 367.400390625 400.644601206 367.400390625 410.459960938 c 3
 367.400390625 419.220721066 332.327148437 437.469726562 294.860351562 437.469726562 c 3
 233.751508044 437.469726562 177.879882812 413.493487365 177.879882812 380.099609375 c 3
 177.879882812 335.998361853 244.220318807 323.077968399 309.259765625 296.309570312 c 0
 398.461886893 259.596498337 456.3203125 223.297396966 456.3203125 139.870117188 c 3
 456.3203125 60.5624999998 365.459960938 0.6396484375 262.099609375 0.6396484375 c 3
 178.831054688 0.6396484375 104.487304688 49.8984375002 72.5595703125 107.110351562 c 1
 90.3255050875 128.173121388 115.530247647 151.72997744 136 176 c 1
 182.559570312 136.650390625 l 1
 178.473191531 131.159288194 168.969726562 119.088480077 168.969726562 111.940429688 c 3
 168.969726562 85.1803275716 216.947199799 62.419921875 269.120117188 62.419921875 c 3
 325.739772868 62.419921875 384.969726562 97.4334480966 384.969726562 133.469726562 c 3
 384.969726562 164.071702399 351.20610965 192.788361385 289.8203125 212.41015625 c 0
 187.138295096 245.232170061 105 279.257257882 105 366.01953125 c 3
 105 442.24890148 194.41731809 497.889648438 294.860351562 497.889648438 c 3
 366.149872217 497.889648438 426.416104093 462.560589962 460.450195312 432.580078125 c 1
EndSplineSet
Refer: 1461 58113 N 0.0181668 0.693762 -0.968418 0.0253589 264.417 -112.881 2
EndChar
StartChar: parenleft
Encoding: 40 40 60
Width: 351
Flags: W
VStem: 37 78<119.649 421.278>
LayerCount: 2
Fore
SplineSet
305 714 m 1
 335 654 l 1
 188 580.948228883 115 442.14986376 115 271 c 3
 115 99.8888888889 173 -21.1409214092 335 -114 c 1
 308 -177 l 1
 133 -81.5925925926 37 69.8148148148 37 271 c 3
 37 472.269320843 139 629.964871194 305 714 c 1
EndSplineSet
Position2: "cpsp-1" dx=0 dy=0 dh=10 dv=20
Position2: "'case' vertical ajustments for all-caps-1" dx=0 dy=125 dh=0 dv=0
EndChar
StartChar: zero
Encoding: 48 48 64
Width: 573
Flags: HW
HStem: -12 82<220.302 367.309> 431 77<209.556 352.22>
VStem: 51 85<162.78 347.8> 440 82<155.702 338.788>
LayerCount: 2
Fore
SplineSet
373.612304688 431 m 3
 262.612304688 431 203.380859375 317 191.051757812 259 c 0
 172.34765625 171 200.87890625 70 319.87890625 70 c 3
 393.87890625 70 472.521484375 153 492.713867188 248 c 0
 517.583007812 365 444.612304688 431 373.612304688 431 c 3
392.978515625 508 m 3
 563.978515625 508 599.370117188 364 575.564453125 252 c 0
 551.7578125 140 446.44921875 -12 294.44921875 -12 c 3
 131.44921875 -12 74.806640625 112 106.264648438 260 c 0
 122.418945312 336 214.978515625 508 392.978515625 508 c 3
EndSplineSet
Substitution2: "dnom-1" zero.denom
Substitution2: "numr-1" zero.numerator
Substitution2: "lnum-1" zero.proportionallining
Substitution2: "tnum-1" zero.tabulartext
EndChar
StartChar: six
Encoding: 54 54 70
Width: 603
Flags: HW
HStem: -14.0537 76.3018<255.462 383.761> 340.866 79.7994<271.991 387.114> 656.493 20G<280.843 384.088>
VStem: 86.6972 88.8108<163.546 384.707> 443.152 84.1069<119.83 281.405>
LayerCount: 2
Fore
SplineSet
527.880859375 676.493164062 m 1
 527.880859375 676.493164062 535.692382812 619.610351562 539.109375 614.150390625 c 1
 336.845703125 509.783203125 265.567382812 423.698242188 231.0625 261.365234375 c 0
 216.444335938 192.591796875 231.505859375 62.248046875 335.2421875 62.248046875 c 3
 385.849609375 62.248046875 466.666992188 110.626953125 482.66015625 185.869140625 c 0
 507.4921875 302.696289062 448.560546875 340.865234375 394.625 340.865234375 c 3
 367.768554688 340.865234375 351.52734375 326.146484375 336.993164062 317.64453125 c 1
 315.185546875 370.030273438 l 1
 341.506835938 395.86328125 379.455078125 420.665039062 430.071289062 420.665039062 c 3
 540.854492188 420.665039062 594.663085938 317.11328125 569.173828125 197.193359375 c 0
 545.021484375 83.56640625 426.095703125 -14.0537109375 303.107421875 -14.0537109375 c 3
 137.024414062 -14.0537109375 118.258789062 148.485351562 138.400390625 243.24609375 c 0
 177.454101562 426.975585938 298.810546875 570.254882812 527.880859375 676.493164062 c 1
EndSplineSet
Substitution2: "dnom-1" six.denom
Substitution2: "numr-1" six.numerator
Substitution2: "tnum-1" six.tabulartext
Substitution2: "lnum-1" six.proportionallining
EndChar
StartChar: seven
Encoding: 55 55 71
Width: 575
Flags: HW
HStem: 426.44 80.5371<152.503 401.205>
LayerCount: 2
Fore
SplineSet
288.36328125 514.116210938 m 1
 288.833007812 513.083984375 302.587890625 507.251953125 313.97265625 506.977539062 c 0
 430.538085938 504.208007812 593.547851562 506.028320312 615 507.927734375 c 1
 615 507.927734375 622.306640625 455.395507812 625.149414062 451.54296875 c 1
 591.0234375 411.6328125 190.879882812 -134.829101562 173.102539062 -172.337890625 c 1
 173.102539062 -172.337890625 71.802734375 -172.11328125 69.7080078125 -172.180664062 c 1
 207.483398438 20.1728515625 341.25390625 189.842773438 502.658203125 408.1015625 c 0
 507.399414062 414.3359375 504.004882812 421.909179688 494.017578125 422.647460938 c 0
 430.686523438 427.34375 421.038085938 427.350585938 372.814453125 426.440429688 c 0
 252.6328125 424.583007812 224.815429688 413.700195312 183.064453125 343.680664062 c 1
 183.064453125 343.680664062 140.240234375 368.984375 136.10546875 370.1484375 c 1
 136.10546875 370.1484375 219.79296875 500.1171875 238.489257812 544.783203125 c 1
 288.36328125 514.116210938 l 1
EndSplineSet
Substitution2: "dnom-1" seven.denom
Substitution2: "numr-1" seven.numerator
Substitution2: "tnum-1" seven.tabulartext
Substitution2: "lnum-1" seven.proportionallining
EndChar
StartChar: eight
Encoding: 56 56 72
Width: 570
UnlinkRmOvrlpSave: 1
Flags: HW
HStem: -12.5264 66.5264<237.184 369.748> 596.136 64.7168<221.798 334.876>
VStem: 82.5742 90.4258<118.32 235.13> 119.264 84.0918<463.903 577.618> 365.527 82.4727<455.699 565.992> 401 87.877<84.6847 218.086>
LayerCount: 2
Fore
SplineSet
399.046875 596.135742188 m 3xe8
 363.821289062 596.135742188 324.712890625 570.940429688 314.580078125 523.268554688 c 0
 284.576171875 382.115234375 565.854492188 362.149414062 525.83984375 173.89453125 c 0xd4
 507.514648438 87.681640625 434.61328125 -12.5263671875 277.3125 -12.5263671875 c 3
 160.774414062 -12.5263671875 95.2001953125 59.3984375 118.184570312 167.532226562 c 0
 150.974609375 321.80078125 448.994140625 392.678710938 473.067382812 505.934570312 c 0
 485.908203125 566.348632812 448.157226562 596.135742188 399.046875 596.135742188 c 3xe8
415.665039062 660.852539062 m 3
 449.938476562 660.852539062 586.631835938 652.2109375 554.065429688 499 c 0
 523.795898438 356.592773438 241.879882812 324.056640625 211.685546875 182 c 0xe8
 203.709960938 144.479492188 220.952148438 54 320.478515625 54 c 3
 371.391601562 54 419.8125 88.5068359375 432.033203125 146 c 0
 444.666992188 205.435546875 426.037109375 231.752929688 392.264648438 260 c 0
 275.095703125 358 207.202148438 413.715820312 223.637695312 491.041015625 c 0
 249.909179688 614.638671875 361.028320312 660.852539062 415.665039062 660.852539062 c 3
EndSplineSet
Substitution2: "dnom-1" eight.denom
Substitution2: "numr-1" eight.numerator
Substitution2: "lnum-1" eight.proportionallining
Substitution2: "tnum-1" eight.tabulartext
EndChar
StartChar: A
Encoding: 65 65 26
Width: 733
Flags: HMW
HStem: -177 78.1279<-199.541 -97.954> 0.542969 50.457<-135.903 -117.444>
VStem: -272.438 98.4385<-124.671 -35.1372>
AnchorPoint: "Ogonek" 447 23 basechar 0
AnchorPoint: "Top" 514 699 basechar 0
AnchorPoint: "Bottom" 277 -15 basechar 0
LayerCount: 2
Back
SplineSet
290.420898438 297.2734375 m 1
 339.197265625 294.2578125 407.708984375 294.033203125 450.482421875 294.002929688 c 1
 447.626953125 373.998046875 445.059570312 426.684570312 442.130859375 501.32421875 c 1
 385.639648438 424.76171875 342.694335938 367.932617188 290.420898438 297.2734375 c 1
385.051757812 -8.9658203125 m 1
 385.051757812 -8.9658203125 386.040039062 13.607421875 386.040039062 27 c 2
 386.040039062 48.1162109375 l 1
 395.227539062 50.3310546875 l 2
 438.948242188 57.6630859375 453.01953125 63.4384765625 451.818359375 75 c 2
 451.791992188 75.36328125 l 1
 451.788085938 75 l 2
 451.110351562 139.06640625 450.630859375 177.677734375 449.98828125 237.762695312 c 1
 397.99609375 246.533203125 320.1171875 251.241210938 246.176757812 245.458984375 c 1
 202.9296875 183.259765625 170.938476562 146.422851562 134.111328125 87.2958984375 c 0
 128.647460938 74.83203125 127.19140625 66.44921875 127.516601562 60.8466796875 c 0
 128.03125 59.0263671875 136.84765625 55.994140625 185.1484375 56.93359375 c 2
 202.587890625 58.2333984375 l 1
 197.526367188 33 l 1
 184.526367188 -10 l 1
 181.297851562 -12.443359375 l 1
 170.412109375 -10 l 2
 123.8359375 0.7177734375 22.6083984375 3.80078125 -27.951171875 -5 c 2
 -45 -7.8955078125 l 1
 -41.7451171875 -0.4833984375 l 1
 -41.7451171875 -0.4833984375 -36.8173828125 24.5771484375 -35.91796875 34.9931640625 c 2
 -35.2275390625 53.83984375 l 1
 -27.216796875 56.0986328125 l 2
 22.685546875 68.7314453125 43.9697265625 77.0009765625 57.517578125 94.2548828125 c 0
 214.498046875 298.291992188 349.141601562 474.040039062 468.487304688 639.870117188 c 0
 495.98046875 678.313476562 491.609375 676.310546875 505.329101562 711 c 2
 508.383789062 711 l 1
 540.4296875 711 l 1
 531.4296875 711 l 1
 570.666015625 711 l 1
 567.095703125 705.375976562 l 2
 560.7734375 680.200195312 557.202148438 654.921875 557.392578125 642 c 0
 560.561523438 418.744140625 560.811523438 281.572265625 567.61328125 66.123046875 c 0
 571.556640625 56.9599609375 581.259765625 56.048828125 607.954101562 54.9306640625 c 2
 621.705078125 53.880859375 l 1
 618.764648438 31 l 2
 618.721679688 30.8115234375 613.82421875 8.7490234375 609.424804688 -4 c 2
 606.172851562 -5.71875 l 1
 596.03515625 -4 l 2
 538.71484375 6.1142578125 457.680664062 5.9755859375 400.131835938 -10 c 2
 384.34765625 -14.208984375 l 1
 385.051757812 -8.9658203125 l 1
EndSplineSet
Fore
SplineSet
270.401367188 252 m 1
 313.252192571 248 419.923396184 255 460.0390625 255 c 1
 458.699157715 332 456.851013184 424 455.603515625 507 c 1
 404.342206682 426 329.930629185 331 270.401367188 252 c 1
422.711914062 -10 m 1
 422.711914062 -10 419.315429688 53 419.315429688 54 c 1
 440.160381611 60 465.218865164 56.1379490501 464.479492188 83 c 0
 463.323449967 125 463.008165725 146 462.009765625 189 c 1
 385.933374213 190 322.845634993 191 222.647460938 192 c 1
 193.578450521 150 182.117500954 139.184294494 157.2421875 96 c 0
 145.399908216 75.4414459529 163.646202257 70 183.440429688 64 c 1
 175.13671875 -8 l 1
 145.699391085 -1 110.374597886 1 75.0498046875 1 c 3
 38.2104096284 1 1.37101456926 0 -29.80078125 -3 c 1
 -30.2662760417 14 -30.7317708333 37 -31.197265625 61 c 1
 32.8294270833 71 39.5341626321 75.1109394951 57.455078125 97 c 0
 219.560768627 295 339.928227658 462.788930383 440.158203125 599 c 0
 474.821580173 646.107022048 474.155952785 650 492.288085938 689 c 1
 561.288085938 689 l 1
 559.744522758 653 554.425459346 645.312590631 555.37109375 600 c 0
 558.954242714 387 559.225301361 276.03664579 567.841796875 80 c 0
 568.953353786 59.6146023045 587.474609375 63 619.377929688 59 c 1
 617.136474609 42 612.653564453 17 610.412109375 -2 c 1
 573.661067708 -1 539.206966146 1 507.049804688 1 c 3
 478.357532619 1 451.404186131 -1 422.711914062 -10 c 1
EndSplineSet
Position2: "cpsp-1" dx=0 dy=0 dh=10 dv=20
Substitution2: "c2pc-1" a.pcap
Substitution2: "c2sc-1" a.smcp
EndChar
StartChar: B
Encoding: 66 66 27
Width: 683
Flags: HMW
HStem: -4 38<3.55189 79.4726 174.677 353.052> 349 30<245.552 380.756> 653 41<172.552 219.865 323.136 443.537>
AnchorPoint: "Top" 367.242 699 basechar 0
AnchorPoint: "Bottom" 255.938 -15 basechar 0
LayerCount: 2
Back
SplineSet
2.6552734375 34 m 5
 46.603515625 36 82.0546875 35.1494140625 88.634765625 73 c 4
 89.5029296875 78 115.046875 175.720703125 140.899414062 292 c 4
 178.474609375 461 205.802734375 604.989257812 206.467773438 614 c 4
 207.206054688 624 207.506835938 640.092773438 189.629882812 646 c 4
 183.577148438 648 145.39453125 655 139.368164062 656 c 5
 154.373046875 694 l 5
 163.373046875 694 196.634765625 684 248.634765625 684 c 7
 290.6875 684 335.84375 694 375.373046875 694 c 7
 495.376953125 694 545.147460938 578.6796875 532.981445312 518 c 4
 518.74609375 447 465.959960938 402 376.8828125 369 c 5
 500.516601562 363 570.024414062 278.422851562 546.806640625 181 c 4
 520.3515625 70 404.844726562 -4 249.650390625 -4 c 7
 199.650390625 -4 154.493164062 2 101.493164062 2 c 7
 47.4931640625 2 4.5986328125 -2 -2.4013671875 -2 c 5
 2.6552734375 34 l 5
330.569335938 381 m 4
 391.59375 391 431.103515625 440.204101562 444.479492188 499 c 4
 458.22265625 547 456.774414062 653 355.446289062 653 c 7
 348.083007812 653 334.022460938 650.999023438 328.55078125 649 c 4
 306.682617188 644 300.551757812 624.235351562 297.467773438 614 c 4
 263.426757812 501 235.62109375 379 235.62109375 379 c 5
 311.62109375 379 320.692382812 379.381835938 330.569335938 381 c 4
299.407226562 349 m 4
 229.407226562 349 l 5
 208.973632812 251 186.73046875 154.501953125 174.032226562 96 c 4
 166.000976562 59 168.995117188 45.4716796875 191.47265625 41 c 4
 201.524414062 39 242.655273438 34 265.655273438 34 c 7
 357.018554688 34 439.411132812 83.3291015625 462.884765625 178 c 4
 483.712890625 262 445.249023438 349 299.407226562 349 c 4
EndSplineSet
Fore
SplineSet
18.228515625 67 m 1
 63.228515625 67 92.015625 66 94.078125 71 c 0
 97.9912109375 80 116.546875 172 140.990234375 287 c 0
 174.362304688 444 200.694335938 582 198.670898438 596 c 0
 197.37109375 604 201.858398438 611 191.071289062 612 c 0
 177.284179688 613 143.133789062 617 130.559570312 619 c 1
 157.650390625 690 l 1
 187.587890625 685 196.100585938 678 263.100585938 678 c 3
 305.100585938 678 340.225585938 688 382.225585938 688 c 3
 539.225585938 688 600.158203125 603 580.390625 510 c 0
 565.936523438 442 531.24609375 387 460.357421875 364 c 1
 561.956054688 348 613.439453125 275 594.735351562 187 c 0
 569.653320312 69 440.349609375 -3 290.349609375 -3 c 3
 231.349609375 -3 191.412109375 2 125.412109375 2 c 3
 50.412109375 2 39.7744140625 -1 8.349609375 -3 c 1
 18.228515625 67 l 1
297.12109375 377 m 3
 407.12109375 377 448.47265625 421 462.077148438 485 c 0
 473.129882812 537 468.771484375 620 367.771484375 620 c 3
 347.771484375 620 337.133789062 617 330.49609375 614 c 0
 319.646484375 610 311.907226562 583 308.78125 573 c 0
 285.990234375 494 269.709960938 408 264.12109375 377 c 1
 289.12109375 377 286.12109375 377 297.12109375 377 c 3
344.004882812 320 m 3
 324.004882812 320 273.3671875 317 250.3671875 317 c 1
 230.32421875 218 213.3828125 143 202.479492188 87 c 0
 199.440429688 68 201.015625 66 214.015625 66 c 0
 225.015625 66 283.015625 66 323.015625 66 c 3
 394.015625 66 462.66796875 102 481.584960938 191 c 0
 495.826171875 258 440.004882812 320 344.004882812 320 c 3
EndSplineSet
Position2: "cpsp-1" dx=0 dy=0 dh=10 dv=20
Substitution2: "c2pc-1" b.pcap
Substitution2: "c2sc-1" b.smcp
EndChar
StartChar: C
Encoding: 67 67 28
Width: 732
Flags: HW
HStem: -10 42<252.828 433.111> 659 40<359.158 552.014>
VStem: 606.39 37.3193<525.562 600.835>
AnchorPoint: "Bottom" 328.393 -15 basechar 0
AnchorPoint: "Top" 489.907 679 basechar 0
LayerCount: 2
Back
SplineSet
45.841796875 348 m 4
 82.7587890625 520 231.233398438 699 482.650390625 699 c 7
 536.758789062 699 564.418945312 694 614.200195312 678 c 4
 648.48828125 667 667.331054688 673 682.200195312 678 c 5
 704.56640625 664 l 5
 654.137695312 604 648.1328125 566 643.708984375 544 c 4
 639.232421875 524 637.389648438 518 606.389648438 518 c 13
 600.420898438 555 620.452148438 592 592.90234375 613 c 4
 552.1796875 645 518.575195312 659 459.697265625 659 c 31
 318.125976562 659 183.129882812 553 143.34375 367 c 4
 101.140625 160 206.150390625 32 337.116210938 32 c 7
 429.345703125 32 513.364257812 86 566.37109375 175 c 13
 591.581054688 167 l 5
 572.837890625 119 558.466796875 95 536.723632812 47 c 5
 473.543945312 16 399.568359375 -10 315.215820312 -10 c 7
 122.796875 -10 2.4794921875 140 45.841796875 348 c 4
EndSplineSet
Fore
SplineSet
39.5986328125 320 m 4xe8
 78.4970703125 503 240.8203125 688 488.8203125 688 c 7
 556.8203125 688 584.907226562 679 641.505859375 663 c 4
 674.592773438 654 680.23046875 657 699.568359375 668 c 5
 744.467773438 644 l 5
 710.051757812 595 708.2265625 577 698.53515625 522 c 4
 692.883789062 486 673.182617188 478 626.970703125 477 c 5xf0
 611.172851562 525 627.762695312 556 614.887695312 566 c 4
 570.540039062 602 534.515625 616 471.515625 616 c 7
 322.515625 616 195.41015625 512 157.362304688 333 c 4
 118.46484375 150 246.122070312 59 369.122070312 59 c 7
 477.122070312 59 551.75 109 603.092773438 200 c 5
 657.116210938 186 l 5
 640.276367188 135 612.624023438 99 587.633789062 52 c 5
 514.194335938 17 444.1796875 -16 353.1796875 -16 c 7
 126.1796875 -16 -2.69921875 121 39.5986328125 320 c 4xe8
EndSplineSet
Position2: "cpsp-1" dx=0 dy=0 dh=10 dv=20
Substitution2: "c2pc-1" c.pcap
Substitution2: "c2sc-1" c.smcp
EndChar
StartChar: E
Encoding: 69 69 30
Width: 683
Flags: HW
HStem: -14 65<95.7077 142.082> 1 76<254.078 526.75> 306 69<254 469.271> 612 67<85 143.054 256.953 516.686> 667 20G<558 581>
VStem: 144 110<77.9826 305 374 607.868> 480 63<261.095 305.939 375.112 419.629> 519 59<543 603.369> 568 59<127.365 143.729>
AnchorPoint: "Ogonek" 451.153 23.6582 basechar 0
AnchorPoint: "Top" 421.801 679 basechar 0
AnchorPoint: "Bottom" 265.286 -15 basechar 0
LayerCount: 2
Back
SplineSet
150.872070312 690 m 5xec
 236.274414062 677 551.556640625 689 573.671875 700 c 5xdc
 592.850585938 674.7890625 583.733398438 675.5 545.904296875 536 c 5
 519.983398438 533 l 5
 520.708984375 584 517.311523438 614.818359375 513.819335938 618 c 4
 483.0859375 646 387.974609375 650.18359375 327.102539062 643 c 4
 310.155273438 641 294.114257812 627.129882812 288.993164062 609 c 4
 266.114257812 528 245.235351562 447 227.172851562 373 c 5
 278.704101562 375 406.9453125 374.14453125 417.094726562 376 c 4
 444.443359375 381 454.294921875 406 474.157226562 450 c 5
 505.313476562 444 l 5
 484.865234375 379.330078125 477.959960938 315.669921875 475.368164062 251 c 5
 438.603515625 242 l 5
 435.744140625 313 444.318359375 326.4453125 407.247070312 332 c 4
 371.919921875 337 293.827148438 336 219.116210938 337 c 5
 195.17578125 238.067382812 178.018554688 148.391601562 175.819335938 81 c 4
 175.264648438 64 181.666015625 50.5830078125 196.657226562 49 c 4
 281.892578125 40 344.994140625 32.2998046875 421.421875 58 c 4
 480.897460938 78 497.322265625 100 550.33203125 176 c 5
 572.489257812 170 l 5
 543.26953125 102 523.317382812 62 497.940429688 0 c 5
 319.966796875 -1 127.65234375 11 4.2021484375 -10 c 5
 3.259765625 26 l 5
 54.998046875 36 79.68359375 48 85.9501953125 76 c 5
 106.08203125 153.716796875 191.138671875 532.34375 204.7578125 618 c 4
 209.05078125 645 206.05078125 645 140.68359375 659 c 5
 150.872070312 690 l 5xec
EndSplineSet
Fore
SplineSet
151.86328125 684 m 1xa680
 215.225585938 681 325.80078125 679 421.80078125 679 c 3xb680
 498.437984434 679 568.694809117 681 587.500976562 687 c 1
 606.100585938 671 610.76171875 660 607.999023438 647 c 0
 605.681788832 629 593.084960938 593 583.892578125 531 c 1
 523.830078125 526 l 1x2d
 524.962890625 554 512.420898438 599.555664062 502.43359375 602 c 0
 472.475585938 609.33203125 431.901511246 612 390.559570312 612 c 3
 368.559570312 612 339.346679688 611 321.133789062 610 c 0
 312.921875 609 306.284179688 606 303.946289062 595 c 0
 287.641601562 523 271.211914062 441 255.970703125 374 c 1
 292.668945312 376 422.135742188 374 426.2421875 375 c 0
 435.348632812 376 435.927734375 397 450.366210938 429 c 1
 514.969726562 416 l 1
 503.53125 384 497.307617188 357 494.083984375 327 c 0
 491.935546875 307 492.678710938 288 495.099609375 264 c 1
 430.05859375 252 l 1
 417.678710938 295 428.827148438 306 420.827148438 306 c 0
 393.168945312 305 285.576171875 304 240.3046875 305 c 1
 221.8125 218 206.99609375 153 196.66796875 95 c 0
 193.479492188 80 200.053710938 78 206.053710938 78 c 0
 245.053710938 78 286.841796875 77 321.841796875 77 c 3
 359.841796875 77 395.053710938 78 429.266601562 79 c 0
 467.69140625 81 481.73046875 100 531.333984375 164 c 1
 585.4453125 141 l 1
 557.479492188 80 543.590820312 57 519.474609375 0 c 1
 427.836914062 -3 332.6875 1 241.6875 1 c 3x7680
 161.6875 1 89.474609375 0 25.4990234375 -14 c 1
 24.3154296875 51 l 1
 64.015625 59 85.7158203125 67 87.416015625 75 c 1
 95.4931640625 113 120.299804688 225 146.01953125 346 c 0
 173.2265625 474 197.095703125 591 199.43359375 602 c 0
 200.708984375 608 176.708984375 608 142.346679688 611 c 5
 151.86328125 684 l 1xa680
EndSplineSet
Position2: "cpsp-1" dx=0 dy=0 dh=10 dv=20
Substitution2: "c2pc-1" e.pcap
Substitution2: "c2sc-1" e.smcp
EndChar
StartChar: G
Encoding: 71 71 32
Width: 777
Flags: HW
HStem: -12 70<347.252 554.941> 284 70<456 538.645> 299 65<685.834 720.646> 617 71<303.793 536.554>
VStem: 38 120<240.252 452.584> 572 109<88.0959 282.279> 586 61<662.609 683>
AnchorPoint: "Top" 479.604 699 basechar 0
AnchorPoint: "Bottom" 335.3 -15 basechar 0
LayerCount: 2
Back
SplineSet
503.419921875 706 m 7xd8
 558.5 706 595.004882812 690 636.205078125 676 c 4
 661.44140625 667 663.1796875 677 676.655273438 697 c 13xb8
 700.681640625 696 l 13
 678.9765625 532 l 13
 651.159179688 525 l 5
 632.303710938 621 567.625976562 668 473.415039062 668 c 7
 256.643554688 668 127.342773438 456.978180566 131.5625 281.783203125 c 4
 135.84765625 136.089444337 230.827148438 30 368.122070312 30 c 15
 415.884765625 30 444.171875 37.1474609375 491.415039062 57 c 28
 507.231445312 64 510.8125 80 515.393554688 96 c 4
 525.068359375 135.68359375 542.631835938 201.474609375 556.072265625 261 c 4
 564.260742188 292 560.7109375 313 516.606445312 317 c 4
 485.553710938 319 467.553710938 319 436.52734375 320 c 13
 444.689453125 352 l 5
 536.951171875 342 642.92578125 343 689.768554688 349 c 13
 685.396484375 325 l 5
 657.6328125 316 647.763671875 311 642.313476562 290 c 4
 622.10546875 214.338867188 605.961914062 144.895507812 591.524414062 91 c 4
 585.126953125 68 590.284179688 62 607.676757812 47 c 13
 602.2265625 26 l 5
 529.401367188 16 375.2265625 -9 327.142578125 -9 c 7
 157.306640625 -9 41.908203125 101.052701368 37.142578125 264.528320312 c 4
 30.197265625 549.762447527 278.59765625 706 503.419921875 706 c 7xd8
EndSplineSet
Fore
SplineSet
37.1494140625 334 m 0xbc
 81.361328125 542 291.39453125 688 500.39453125 688 c 1
 557.39453125 688 595.631835938 675 634.868164062 662 c 0
 656.380859375 655 652.206054688 673 659.33203125 683 c 1
 721.39453125 688 l 1xba
 728.787109375 544 l 1
 667.748046875 525 l 1
 652.974609375 559 601.303710938 617 476.303710938 617 c 3
 318.303710938 617 195.197265625 513 162.67578125 360 c 1
 122.078125 169 234.484375 58 409.484375 58 c 1
 455.484375 58 487.03515625 70 513.861328125 88 c 0
 516.286132812 90 520.348632812 95 521.19921875 99 c 0
 530.125976562 141 544.817382812 196 559.12109375 268 c 0
 561.883789062 281 565.096679688 282 528.309570312 283 c 0
 499.521484375 284 476.096679688 282 444.521484375 284 c 1
 459.401367188 354 l 5xdc
 557.850585938 342 664.61328125 355 725.526367188 364 c 5
 717.709960938 299 l 1
 689.28515625 297 675.22265625 292 672.247070312 278 c 0
 653.666992188 200 642.46484375 152 629.986328125 98 c 0
 627.861328125 88 633.6484375 87 653.522460938 77 c 1
 638.958007812 32 l 1
 553.981445312 18 428.60546875 -12 361.60546875 -12 c 1
 147.60546875 -12 -7.4873046875 124 37.1494140625 334 c 0xbc
EndSplineSet
Position2: "cpsp-1" dx=0 dy=0 dh=10 dv=20
Substitution2: "c2pc-1" g.pcap
Substitution2: "c2sc-1" g.smcp
EndChar
StartChar: H
Encoding: 72 72 33
Width: 870
Flags: HW
HStem: -7 76<58 119.81 602.132 646.07> 311 68<235 651> 617 69<593.594 645.451> 623 70<767.152 810.5>
VStem: 125 110<69.0823 311 379 605.175> 646 120<385.053 613.034> 651 106<72.4788 312 379 499.728>
AnchorPoint: "Top" 451.219 699 basechar 0
AnchorPoint: "Bottom" 310.393 -15 basechar 0
LayerCount: 2
Back
SplineSet
111.174804688 700 m 5x70
 187.655273438 689 251.829101562 685 348.349609375 696 c 5
 343.96484375 659 l 5
 318.139648438 655 269.209960938 654.971679688 263.793945312 640 c 4
 250.41015625 603 222.0859375 473 196.713867188 367 c 5
 564.713867188 367 l 5
 578.701171875 436 591.836914062 515.762695312 611.841796875 616 c 4
 619.2265625 653 579.270507812 652 544.790039062 663 c 5
 557.305664062 697 l 5
 635.00390625 681 683.091796875 679 774 704 c 5
 771.615234375 667 l 5
 723.095703125 656 713.263671875 657.248046875 705.362304688 627 c 4
 660.556640625 455.499023438 577.021484375 118.518554688 582.3359375 55 c 4
 584.427734375 30 611.470703125 29 639.55859375 27 c 5
 639.55859375 27 629.431640625 7 628.04296875 -7 c 5x70
 564.387695312 8 495.30078125 10 412.173828125 -10 c 5
 412.173828125 -10 412.169921875 13 412.645507812 25 c 5xb0
 458.208984375 35 486.517578125 36.873046875 493.943359375 64 c 4
 520.8046875 162.134765625 533.678710938 223.958984375 555.459960938 327 c 5
 187.459960938 327 l 5
 169.0234375 238.698242188 146.317382812 136.66796875 135.8125 67 c 4
 130.383789062 31 179.208984375 35 207.514648438 28 c 5
 207.514648438 28 199.518554688 5 195.129882812 -9 c 5
 108.431640625 7 41.30078125 10 -34.95703125 -7 c 5
 -34.95703125 -7 -34.0048828125 17 -32.791015625 35 c 5
 0.947265625 41 38.876953125 40.7001953125 45.8125 67 c 4
 95.7373046875 256.333007812 168.719726562 593.3984375 165.012695312 635 c 4
 163.051757812 657 136.051757812 657 101.833984375 662 c 5
 111.174804688 700 l 5x70
EndSplineSet
Fore
SplineSet
131.33203125 687 m 5xda
 173.631835938 679 215.568359375 674 259.568359375 674 c 7
 293.568359375 674 328.418945312 678 368.694335938 684 c 5
 358.815429688 614 l 5
 338.96484375 610 303.752929688 609 298.327148438 607 c 5
 288.25 569 261.419921875 471 240.864257812 379 c 5
 658.864257812 379 l 5xda
 672.893554688 445 700.4140625 598 702.327148438 607 c 4
 698.602539062 613 679.602539062 613 648.453125 617 c 5
 667.119140625 686 l 5xec
 701.056640625 681 729.206054688 677 757.206054688 677 c 7
 793.206054688 677 830.056640625 681 883.607421875 693 c 5
 883.728515625 623 l 5
 858.240234375 616 825.666015625 618 822.752929688 609 c 4xdc
 794.008789062 502 760.61328125 359 733.619140625 232 c 4
 718.740234375 162 706.7734375 101 704.310546875 80 c 4
 703.397460938 71 734.397460938 71 766.397460938 71 c 5
 766.397460938 71 743.030273438 -6 742.817382812 -7 c 5
 702.880859375 -2 664.305664062 0 625.305664062 0 c 7
 595.305664062 0 563.880859375 -2 528.60546875 -8 c 5
 530.069335938 13 531.595703125 39 534.333984375 66 c 5
 567.759765625 68 587.759765625 68 591.948242188 83 c 4
 615.227539062 169 626.555664062 227 644.623046875 312 c 5
 228.411132812 311 l 5
 211.40625 231 188.42578125 137 179.522460938 81 c 4
 176.05859375 60 221.184570312 70 239.759765625 68 c 5
 239.759765625 68 216.60546875 -8 216.392578125 -9 c 5
 172.66796875 -3 136.305664062 0 100.305664062 0 c 7
 62.3056640625 0 24.880859375 -2 -16.1826171875 -7 c 5
 -16.1826171875 -7 -12.453125 67 -12.0283203125 69 c 5
 16.9716796875 69 61.333984375 66 63.2470703125 75 c 4
 92.904296875 191 124.575195312 340 150.719726562 463 c 4
 166.0234375 535 175.501953125 589 174.264648438 602 c 4
 173.602539062 613 147.602539062 613 111.028320312 615 c 5
 131.33203125 687 l 5xda
EndSplineSet
Position2: "cpsp-1" dx=0 dy=0 dh=10 dv=20
Substitution2: "c2pc-1" h.pcap
Substitution2: "c2sc-1" h.smcp
EndChar
StartChar: I
Encoding: 73 73 34
Width: 453
Flags: HW
HStem: -8 21G<69.1579 95.5 360.5 387.389> 672 20G<74.4211 102.5 362 391.026>
VStem: 179 106<67.4773 555.247>
AnchorPoint: "Ogonek" 157.909 23 basechar 0
AnchorPoint: "Top" 283.395 699 basechar 0
AnchorPoint: "Bottom" 140.568 -15 basechar 0
LayerCount: 2
Back
SplineSet
140.39453125 699 m 5
 243.310546875 678 306.223632812 680 423.568359375 695 c 5
 416.446289062 652 l 5
 362.533203125 650 333.28125 660.922851562 320.84375 620 c 4
 285.23828125 502.858398438 233.859375 325.626953125 199.682617188 74 c 4
 194.384765625 35 240.166992188 40 290.25390625 38 c 5
 280.95703125 -1 l 5
 189.4765625 10 74.4765625 10 -10 -2 c 5
 -5.74609375 38 l 5
 49.25390625 38 97.4501953125 33.3017578125 111.202148438 85 c 4
 152.124023438 238.845703125 205.161132812 497.926757812 219.930664062 618 c 4
 224.358398438 654 177.490234375 651 128.271484375 656 c 5
 140.39453125 699 l 5
EndSplineSet
Fore
SplineSet
150.713867188 692 m 5
 201.163085938 680 250.100585938 675 301.100585938 675 c 7
 352.100585938 675 406.375976562 681 464.076171875 689 c 5
 451.49609375 611 l 5
 416.708984375 612 355.284179688 610 355.071289062 609 c 4
 329.129882812 534 303.598632812 428 272.778320312 283 c 4
 258.32421875 215 246.5078125 150 233.928710938 72 c 4
 232.866210938 67 274.228515625 64 332.228515625 64 c 5
 311.923828125 -8 l 5
 262.412109375 -1 209.624023438 0 158.624023438 0 c 7
 102.624023438 0 47.19921875 -2 -3.7138671875 -11 c 5
 5.4404296875 65 l 5
 71.6533203125 66 113.165039062 59 117.56640625 75 c 4
 137.5703125 155 161.251953125 257 183.5703125 362 c 4
 205.462890625 465 221.10546875 548 230.646484375 607 c 4
 231.284179688 610 159.346679688 615 128.559570312 616 c 5
 150.713867188 692 l 5
EndSplineSet
Position2: "cpsp-1" dx=0 dy=0 dh=10 dv=20
Substitution2: "c2pc-1" i.pcap
Substitution2: "c2sc-1" i.smcp
EndChar
StartChar: L
Encoding: 76 76 37
Width: 682
Flags: HW
HStem: -15 21G<597.5 622> -8 75<67 125.875> 1 72<237.907 482.508> 615 73<240.153 324.479>
VStem: 128 109<73.0258 605.596> 581 67<115.869 170>
AnchorPoint: "TopRight" 420.975 581 basechar 0
AnchorPoint: "Top" 262.973 699 basechar 0
AnchorPoint: "Bottom" 258.164 -15 basechar 0
LayerCount: 2
Back
SplineSet
140.061523438 696 m 5xb0
 215.685546875 675 317.477539062 682 391.151367188 693 c 5
 385.368164062 652 l 5
 301.694335938 641 294.143554688 659.99609375 271.623046875 576 c 4
 258.903320312 528.555664062 174.296875 149 174.296875 149 c 4
 161.047851562 90 155.17578125 52 192.17578125 52 c 4
 232.3203125 52 422.717773438 51.66796875 451.145507812 53 c 4
 517.02734375 57 550.017578125 91 589.791992188 166 c 5
 622 159 l 5
 609.69140625 102 601.09765625 122 545.341796875 -21 c 5
 527.075195312 -12 522.71484375 -5.0849609375 481.748046875 -1 c 4
 468.529296875 0 362.95703125 2 237.659179688 2 c 4x70
 38.6591796875 2 1.9267578125 -7 -8.0732421875 -7 c 5
 -2.37890625 37 l 5
 54.4423828125 43 66.5927734375 43.68359375 73.4931640625 75 c 4
 74.3740234375 79 98.267578125 177.79296875 124.815429688 300 c 4
 158.69921875 455.98046875 188.805664062 603.8515625 190.465820312 615 c 4
 194.634765625 643 183.486328125 648 126.426757812 650 c 5
 140.061523438 696 l 5xb0
EndSplineSet
Fore
SplineSet
398.713867188 688 m 5x5c
 388.197265625 615 l 5
 291.071289062 605 293.858398438 604 287.694335938 575 c 4
 275.579101562 518 198.145507812 149 193.745117188 133 c 5
 184.541992188 85 180.991210938 73 190.991210938 73 c 4x3c
 254.778320312 72 418.56640625 71 463.479492188 80 c 4
 510.392578125 89 499.517578125 99 548.373046875 183 c 5
 612.609375 170 l 5
 599.581054688 104 589.89453125 129 535.286132812 -15 c 5x9c
 511.987304688 -7 506.049804688 -2 460.26171875 -1 c 4
 446.26171875 -1 354.6875 1 247.6875 1 c 5x3c
 22.6875 1 39.7744140625 -8 -6.2255859375 -8 c 5
 2.7158203125 67 l 5
 43.9287109375 68 68.353515625 70 71.4794921875 80 c 4
 74.6044921875 90 96.22265625 187 120.87890625 303 c 4
 152.975585938 454 175.182617188 582 177.583984375 598 c 4
 179.346679688 611 167.921875 609 112.921875 609 c 5
 134.713867188 688 l 5
 174.80078125 679 220.950195312 675 264.950195312 675 c 7
 310.950195312 675 358.012695312 680 398.713867188 688 c 5x5c
EndSplineSet
Position2: "cpsp-1" dx=0 dy=0 dh=10 dv=20
Substitution2: "c2pc-1" l.pcap
Substitution2: "c2sc-1" l.smcp
EndChar
StartChar: M
Encoding: 77 77 38
Width: 899
Flags: HW
HStem: -11 74<32.4595 90.107 175.715 230.649 642.306 699.735> -3 21G<401.5 473> 610 76<789.918 860.737> 614 79<45.848 101.624>
VStem: 96 79<74.3466 346.086> 402 66<-3 78.7803> 691 99<333.22 529> 703 104<73.4554 349>
AnchorPoint: "Top" 549.424 699 basechar 0
AnchorPoint: "Bottom" 397.83 -15 basechar 0
LayerCount: 2
Back
SplineSet
837.252929688 -4 m 5x60
 766.51953125 10 679.466796875 11 583.41015625 -7 c 5
 586.419921875 31 l 5x80
 664.842773438 42 686.390625 54.2177734375 701.599609375 123 c 4
 733.823242188 268.71875 756.955078125 412.413085938 772.38671875 547 c 5
 676.502929688 417.098632812 585.341796875 279.734375 495.5 144 c 4
 467.701171875 102 436.633789062 46 419.043945312 0 c 5
 381.043945312 0 l 5
 390.162109375 55 379.805664062 109.893554688 368.028320312 153 c 6
 260.38671875 547 l 5
 215.697265625 414.870117188 179.076171875 269.815429688 149.599609375 123 c 4
 133.739257812 44 154.372070312 51 226.106445312 37 c 5
 213.252929688 -4 l 5
 147.73046875 6 58.4150390625 12 -27.7470703125 -4 c 5
 -23.8935546875 37 l 5
 61.58203125 47 82.8857421875 62.958984375 96.0185546875 115 c 6
 202.015625 535 l 6
 210.405273438 568.241210938 212.676757812 602.665039062 200.509765625 621 c 4
 188.567382812 639 165.939453125 651 106.885742188 652 c 5
 123.58203125 696 l 5x50
 176.052734375 687 239.228515625 683 298.262695312 683 c 4
 315.262695312 683 316.06640625 670.01953125 318.572265625 658 c 4
 354.634765625 485 398.33203125 319 453.556640625 162 c 5
 807.681640625 675 l 4
 813.208984375 684 820.982421875 687.822265625 827.052734375 687 c 4
 871.3671875 681 922.262695312 683 970 688 c 5
 967.096679688 648 l 5
 896.200195312 646 867.743164062 637.969726562 855.762695312 578 c 4
 824.865234375 423.341796875 796.131835938 268.662109375 772.915039062 117 c 4
 761.739257812 44 782.948242188 40 846.000976562 39 c 5
 837.252929688 -4 l 5x60
EndSplineSet
Fore
SplineSet
799.392578125 -11 m 5xad
 764.092773438 -3 726.73046875 0 687.73046875 0 c 7
 650.73046875 0 612.092773438 -3 567.967773438 -13 c 5
 573.696289062 61 l 5
 623.459960938 74 645.459960938 74 650.073242188 91 c 4xad
 686.106445312 237 710.541015625 399 731.172851562 529 c 5
 641.478515625 394 546.145507812 256 462.938476562 128 c 4
 437.861328125 90 414.87109375 43 395.092773438 -3 c 5
 329.092773438 -3 l 5x4e
 337.020507812 39 330.247070312 73 322.025390625 119 c 4
 293.159179688 289 227.559570312 512 227.385742188 530 c 5
 189.603515625 404 154.657226562 249 126.961914062 114 c 4
 115.05859375 58 112.948242188 81 181.759765625 66 c 5
 155.817382812 -9 l 5
 126.305664062 -2 91.73046875 0 53.73046875 0 c 7
 23.73046875 0 -8.4814453125 -1 -41.607421875 -11 c 5
 -33.8779296875 63 l 5
 31.822265625 71 43.2236328125 87 45.4111328125 102 c 5
 45.8369140625 104 157.787109375 546 158.63671875 550 c 5
 165.525390625 573 165.564453125 592 157.477539062 601 c 4
 150.96484375 608 143.453125 615 92.240234375 614 c 5
 122.032226562 693 l 5x9e
 174.694335938 682 234.418945312 676 288.84375 678 c 5
 315.056640625 679 318.743164062 654 318.892578125 650 c 4
 345.458007812 488 386.662109375 329 425.502929688 173 c 5
 425.203125 181 743.805664062 659 745.018554688 660 c 4
 754.994140625 674 770.119140625 684 786.694335938 682 c 4
 836.418945312 676 882.481445312 681 933.544921875 686 c 5
 925.390625 610 l 5
 867.115234375 604 848.666015625 616 844.626953125 597 c 4x2e
 807.555664062 432 787.333984375 271 753.010742188 86 c 4
 749.397460938 69 758.822265625 71 819.184570312 68 c 5
 799.392578125 -11 l 5xad
EndSplineSet
Position2: "cpsp-1" dx=0 dy=0 dh=10 dv=20
Substitution2: "c2pc-1" m.pcap
Substitution2: "c2sc-1" m.smcp
EndChar
StartChar: N
Encoding: 78 78 39
Width: 802
Flags: HW
HStem: -11 17G<36.6471 61.5 260 282.963 652 727.667> 611 67<31 85.078 732.807 787.134> 671 20G<555.632 588>
VStem: 93 84<72 332.119> 101 82<210.975 498> 654 63<196 319.371> 661 70<3.9 26.8811>
AnchorPoint: "Top" 493.434 699 basechar 0
AnchorPoint: "Bottom" 351.597 -15 basechar 0
LayerCount: 2
Back
SplineSet
113.782226562 691 m 5xd0
 155.907226562 687 210.834960938 683 255.130859375 683 c 4
 269.130859375 683 271.223632812 679.5859375 275.611328125 672 c 4
 377.502929688 495.836914062 486.623046875 327.50390625 604.653320312 167 c 5
 636.45703125 289.721679688 663.666015625 411.680664062 689.416015625 539 c 4
 714.090820312 661 660.571289062 650 607.265625 657 c 5
 620.607421875 695 l 5xb0
 712.534179688 681 783.557617188 681 860 686 c 5
 856.614257812 649 l 5
 794.014648438 643 767.951171875 645.13671875 751.622070312 603 c 4
 705.666015625 438.103515625 664.63671875 261.4375 630.188476562 86 c 4
 625.280273438 61 621.938476562 23 622.942382812 0 c 5
 586.421875 -11 l 5
 580.37890625 32 561.48046875 72.7509765625 541.359375 105 c 4
 445.291015625 258.977539062 346.82421875 409.975585938 242.629882812 557 c 5
 155.001953125 159 l 6
 133.584858098 61.725034685 160.977748673 46 246.37109375 36 c 5
 228.37890625 -10 l 5
 146.025390625 21 66.8544921875 2 2.1611328125 -5 c 5
 6.2392578125 39 l 5
 59.2392578125 39 79.216796875 50.1591796875 91.6650390625 98 c 4
 131.176757812 249.852539062 162.244140625 410.952148438 195.0625 570 c 4
 201.666015625 602 172.24609375 648 103.702148438 647 c 5
 113.782226562 691 l 5xd0
EndSplineSet
Fore
SplineSet
104.544921875 684 m 5xc8
 131.544921875 684 185.418945312 674 221.418945312 674 c 4
 241.418945312 674 249.65625 661 253.592773438 656 c 4
 371.8203125 483 479.55078125 350 618.817382812 196 c 5
 641.647460938 294 657.61328125 355 680.569335938 463 c 4
 686.30859375 490 691.834960938 516 697.149414062 541 c 4
 716.192382812 640 672.540039062 604 607.877929688 615 c 5
 633.032226562 691 l 5xac
 690.907226562 681 741.26953125 678 793.26953125 678 c 7
 814.26953125 678 836.481445312 679 859.907226562 681 c 5
 854.028320312 611 l 5
 809.752929688 605 793.303710938 617 791.815429688 610 c 4
 740.98046875 432 706.584960938 289 664.923828125 93 c 4xcc
 659.184570312 66 659.3203125 29 660.431640625 6 c 5
 585.967773438 -15 l 5
 578.169921875 33 552.822265625 69 526.686523438 106 c 4
 426.657226562 247 328.1015625 362 217.008789062 498 c 5xca
 215.30859375 490 139.46484375 152 135.9765625 145 c 5
 111.720703125 45 142.310546875 76 234.609375 68 c 5
 205.392578125 -13 l 5
 167.305664062 -4 129.15625 0 94.15625 0 c 7
 52.15625 0 11.0927734375 -5 -35.1826171875 -11 c 5
 -27.115234375 74 l 5
 21.4599609375 72 33.759765625 64 39.2236328125 85 c 4xd0
 72.1552734375 207 99.0869140625 329 125.869140625 455 c 4
 134.159179688 494 138.41015625 514 145.63671875 548 c 5
 151.163085938 574 145.815429688 610 84.7529296875 605 c 5
 104.544921875 684 l 5xc8
EndSplineSet
Position2: "cpsp-1" dx=0 dy=0 dh=10 dv=20
Substitution2: "c2pc-1" n.pcap
Substitution2: "c2sc-1" n.smcp
EndChar
StartChar: O
Encoding: 79 79 40
Width: 818
Flags: HW
HStem: -16 72<348.672 528.99> 616 73<286.654 477.048>
VStem: 48 119<261.919 449.449> 655 115<214.618 413.376>
AnchorPoint: "Horn" 644 595 basechar 0
AnchorPoint: "Middle" 406.734 358 basechar 0
AnchorPoint: "Ogonek" 385.734 10 basechar 0
AnchorPoint: "Top" 474.562 699 basechar 0
AnchorPoint: "Bottom" 339.562 -15 basechar 0
LayerCount: 2
Back
SplineSet
427.563476562 655 m 7
 283.125 655 132.78125 545.053710938 132.78125 322.274414062 c 7
 132.78125 167.192382812 226.79296875 43 368.563476562 43 c 7
 518.885742188 43 662.637695312 200.982421875 662.637695312 384.791015625 c 7
 662.637695312 535.33203125 569.92578125 655 427.563476562 655 c 7
474.563476562 705 m 7
 647.458984375 705 763 579.896484375 763 411.1640625 c 7
 763 183.0703125 545.200195312 -10 338.563476562 -10 c 7
 158.209960938 -10 36.7353515625 117.641601562 36.7353515625 287.963867188 c 7
 36.7353515625 530.426757812 255.122070312 705 474.563476562 705 c 7
EndSplineSet
Fore
SplineSet
442.409179688 616 m 7
 316.409179688 616 207.704101562 528 176.458984375 381 c 4
 139.686523438 208 235.377929688 56 376.377929688 56 c 7
 510.377929688 56 618.12109375 163 646.604492188 297 c 4
 679.762695312 453 594.409179688 616 442.409179688 616 c 7
481.92578125 689 m 7
 670.92578125 689 813.254882812 540 768.40625 329 c 4
 726.319335938 131 528.07421875 -16 341.07421875 -16 c 7
 169.07421875 -16 -2.26953125 100 46.8310546875 331 c 4
 89.767578125 533 291.92578125 689 481.92578125 689 c 7
EndSplineSet
Position2: "cpsp-1" dx=0 dy=0 dh=10 dv=20
Substitution2: "c2pc-1" o.pcap
Substitution2: "c2sc-1" o.smcp
EndChar
StartChar: P
Encoding: 80 80 41
Width: 639
Flags: HW
HStem: -15 69<83.6667 124.139> 198 68<237.579 397.12> 205 67<237 286.335> 618 68<230.869 402.993>
VStem: 119 111<277.687 608.946> 126 111<66.3363 205 267.256 600.713> 501 105<360.507 516.779>
AnchorPoint: "Top" 388.322 699 basechar 0
AnchorPoint: "Bottom" 143.755 -15 basechar 0
LayerCount: 2
Back
SplineSet
296.594726562 283 m 7x28
 392.829101562 283 490.5 338.01171875 518.234375 452 c 4
 538.858398438 536.767578125 503.985351562 611.611328125 467.720703125 632 c 4
 439.26171875 648 398.708007812 654 339.413085938 654 c 7
 325.413085938 654 313.696289062 642.208007812 310.790039062 627 c 4
 296.778320312 553.663085938 264.759765625 423.8359375 237.42578125 295 c 5
 254.98046875 286 271.420898438 283 296.594726562 283 c 7x28
156.953125 687 m 5xb0
 179.979492188 685 212.022460938 682 248.022460938 682 c 7
 310.953125 682 348.938476562 693 411.868164062 693 c 7
 567.456054688 693 638.852539062 570.385742188 611.150390625 458 c 4
 583.505859375 345.846679688 467.0703125 247 281.096679688 247 c 7
 259.096679688 247 245.02734375 252 227.970703125 256 c 5
 212.76171875 186.220703125 192.864257812 108.416992188 189.470703125 77 c 4
 185.043945312 36 206.91796875 45 272.987304688 40 c 5
 255.643554688 -7 l 5x68
 163.419921875 9 120.340820312 14.6669921875 9.7001953125 -11 c 5
 7.1826171875 26 l 5
 82.8056640625 53.0341796875 93.5185546875 42.7763671875 104.400390625 82 c 4
 143.366210938 227.723632812 186.32421875 444.322265625 220.02734375 610 c 4
 224.70703125 633 208.552734375 644 143.5390625 645 c 5
 156.953125 687 l 5xb0
EndSplineSet
Fore
SplineSet
281.227539062 266 m 5xda
 404.227539062 266 503.01953125 345 523.424804688 441 c 5
 537.453125 507 500.482421875 573 458.583984375 597 c 4
 438.133789062 609 395.834960938 617 365.046875 618 c 4
 331.259765625 619 287.49609375 606 287.071289062 604 c 4
 274.405273438 535 247.221679688 393 221.502929688 272 c 5xba
 239.227539062 266 259.227539062 266 281.227539062 266 c 5xda
132.438476562 681 m 5
 161.587890625 677 177.163085938 675 218.163085938 675 c 5
 293.163085938 675 325.500976562 686 398.500976562 686 c 5
 563.500976562 686 656.26953125 572 629.487304688 446 c 5
 608.01953125 345 495.7734375 198 257.7734375 198 c 5xda
 243.7734375 198 218.8359375 203 209.26171875 205 c 5
 198.5703125 150 189.879882812 95 187.204101562 73 c 4
 185.440429688 60 236.778320312 71 272.866210938 62 c 5
 250.349609375 -11 l 5
 205.474609375 -1 170.6875 0 135.6875 0 c 7
 101.6875 0 66.8994140625 1 11.4990234375 -15 c 5
 3.1650390625 54 l 5
 67.62890625 75 67.4404296875 60 69.9912109375 72 c 4
 76.79296875 104 83.5947265625 136 92.7353515625 179 c 4xb6
 126.318359375 337 166.830078125 537 176.284179688 605 c 4
 177.346679688 610 165.133789062 609 112.133789062 609 c 5
 132.438476562 681 l 5
EndSplineSet
Position2: "cpsp-1" dx=0 dy=0 dh=10 dv=20
Substitution2: "c2pc-1" p.pcap
Substitution2: "c2sc-1" p.smcp
EndChar
StartChar: Q
Encoding: 81 81 42
Width: 801
Flags: HW
HStem: -171 74<683.094 828.457> -12 82<334.469 436.601> 619 73<276.077 461.215>
VStem: 42 107<247.224 459.392> 642 103<228.036 436.809>
AnchorPoint: "Middle" 400.697 347.853 basechar 0
AnchorPoint: "Top" 475.591 699 basechar 0
AnchorPoint: "Bottom" 256.523 -15 basechar 0
LayerCount: 2
Back
SplineSet
461.114257812 684 m 7
 333.114257812 684 215.4453125 566.940429688 178.311523438 392 c 4
 140.52734375 214 196.393554688 46 347.393554688 46 c 7
 476.393554688 46 593.224609375 170.951171875 630.8828125 347 c 4
 676.444335938 560 591.114257812 684 461.114257812 684 c 7
477.997070312 716 m 7
 655.997070312 716 772.666015625 567.131835938 730.18359375 367 c 4
 692.400390625 189 539.84765625 33 373.96484375 1 c 5
 430.681640625 -84.2236328125 547.12890625 -113 653.946289062 -113 c 7
 677.249023438 -113 705.3359375 -109.142578125 715.701171875 -106 c 5
 720.784179688 -137 l 5
 702.90234375 -144.876953125 640.31640625 -162 591.657226562 -162 c 7
 441.934570312 -162 330.545898438 -99.3642578125 279.0703125 -2 c 5
 124.126953125 25 38.6123046875 172.837890625 79.2890625 364 c 4
 125.67578125 582 300.997070312 716 477.997070312 716 c 7
EndSplineSet
Fore
SplineSet
430.201171875 619 m 7
 331.201171875 619 203.520507812 517 169.298828125 356 c 4
 132.952148438 185 253.5078125 70 388.5078125 70 c 7
 499.5078125 70 623.826171875 175 654.859375 321 c 4
 694.395507812 507 579.201171875 619 430.201171875 619 c 7
495.368164062 27 m 5
 549.725585938 -56 636.010742188 -97 703.010742188 -97 c 7
 723.010742188 -97 740.223632812 -96 749.223632812 -96 c 5
 755.745117188 -150 l 5
 733.833007812 -159 693.282226562 -171 646.282226562 -171 c 7
 527.282226562 -171 433.459960938 -109 361.078125 -12 c 5
 123.078125 -12 18.5126953125 150 57.1982421875 332 c 4
 101.622070312 541 285.717773438 692 480.717773438 692 c 7
 676.717773438 692 806.110351562 548 765.51171875 357 c 4
 733.840820312 208 623.358398438 74 495.368164062 27 c 5
EndSplineSet
Position2: "cpsp-1" dx=0 dy=0 dh=10 dv=20
Substitution2: "salt-1" Q.alt
Substitution2: "c2pc-1" q.pcap
Substitution2: "c2sc-1" q.smcp
EndChar
StartChar: U
Encoding: 85 85 54
Width: 816
Flags: HW
HStem: -13 88<308.037 549.516> 610 66<715.018 775.284> 616 69<49.4167 109.229 222.011 277.696>
VStem: 109 113<150.891 608.316> 635 80<158.27 609.484>
AnchorPoint: "Ogonek" 365.686 10 basechar 0
AnchorPoint: "Top" 491.036 699 basechar 0
AnchorPoint: "Bottom" 316.471 -15 basechar 0
LayerCount: 2
Back
SplineSet
112.318359375 690 m 5
 166.5390625 683 288.5390625 683 365.318359375 690 c 5
 361.418945312 655 l 5
 296.638671875 648 268.94921875 648.659179688 258.3671875 593 c 4
 256.630859375 583.892578125 182.045898438 286.654296875 174.987304688 255 c 4
 160.967773438 192 162.19140625 140.728515625 188.700195312 105 c 4
 216.89453125 67 272.6171875 44 368.6171875 44 c 7
 391.6171875 44 471.813476562 45.8740234375 536.794921875 102 c 4
 579.6328125 139 601.733398438 189.1015625 621.830078125 260 c 4
 649.155273438 356.104492188 680.993164062 512.041992188 698.895507812 608 c 4
 707.44921875 654 680.544921875 651 618.512695312 652 c 5
 628.318359375 690 l 5
 675.5390625 683 812.6015625 681 844.318359375 690 c 5
 837.576171875 650 l 5
 790.606445312 649 769.286132812 656.360351562 756.581054688 618 c 4
 752.888671875 606.876953125 727.217773438 487.592773438 671.987304688 255 c 4
 652.563476562 173 614.622070312 107.98046875 560.95703125 65 c 4
 498.529296875 15 415.314453125 -10 317.314453125 -10 c 7
 208.314453125 -10 142.056640625 18.771484375 108.86328125 68 c 4
 80.54296875 110 76.9677734375 165.724609375 90.5849609375 236 c 4
 96.673828125 267.348632812 171.453125 581.645507812 174.272460938 596 c 4
 182.890625 640 173.827148438 642 98.544921875 651 c 5
 112.318359375 690 l 5
EndSplineSet
Fore
SplineSet
124.182617188 686 m 5xd8
 151.119140625 681 195.694335938 679 241.694335938 679 c 7
 280.694335938 679 320.119140625 681 350.969726562 685 c 5
 344.303710938 616 l 5xb8
 295.028320312 610 281.728515625 618 278.327148438 602 c 4
 274.926757812 586 229.627929688 387 206.5078125 250 c 4
 198.092773438 201 191.952148438 158 214.000976562 130 c 4
 240.561523438 95 288.310546875 75 398.310546875 75 c 7
 417.310546875 75 487.16015625 79 541.087890625 121 c 4
 576.827148438 148 595.904296875 186 613.657226562 246 c 4
 641 337 671.921875 506 691.115234375 601 c 4
 694.515625 617 675.453125 612 632.666015625 613 c 5
 650.182617188 686 l 5
 676.119140625 681 723.056640625 676 764.056640625 676 c 7
 800.056640625 676 833.694335938 679 850.39453125 687 c 5
 839.028320312 610 l 5
 797.240234375 611 772.815429688 609 771.752929688 604 c 4
 768.776367188 590 747.844726562 468 696.657226562 246 c 4
 678.865234375 167 642.686523438 105 588.546875 62 c 4
 525.70703125 11 439.60546875 -13 344.60546875 -13 c 7
 228.60546875 -13 154.34375 14 114.333984375 61 c 4
 80.8369140625 101 79.58984375 161 90.0439453125 229 c 4
 95.908203125 266 165.864257812 581 164.051757812 596 c 4
 163.602539062 608 152.602539062 608 101.666015625 613 c 5
 124.182617188 686 l 5xd8
EndSplineSet
Position2: "cpsp-1" dx=0 dy=0 dh=10 dv=20
Substitution2: "c2pc-1" u.pcap
Substitution2: "c2sc-1" u.smcp
EndChar
StartChar: V
Encoding: 86 86 55
Width: 756
Flags: HW
HStem: -10 21G<319.5 391> 602 74<548.365 606.136> 609 76<197.72 228.44 547 605.652 692.361 747.351> 618 71<10.8169 60.3952>
AnchorPoint: "Top" 446 699 basechar 0
AnchorPoint: "Bottom" 186.649 -15 basechar 0
LayerCount: 2
Back
SplineSet
344.227539062 692 m 5x90
 335.000976562 656 l 5
 309.216796875 657 290.305664062 656.294921875 278.688476562 654 c 4
 248.3203125 648 253.848632812 631.770507812 253.650390625 618 c 6x90
 246.258789062 111 l 5xa0
 602.623046875 608 l 6
 616.521484375 623.654296875 618.797851562 651 595.044921875 651 c 4
 589.46484375 651 550.916992188 653 546.267578125 653 c 5
 557.44921875 693 l 5
 624.286132812 678 729.21484375 681 776 693 c 5
 769.884765625 651 l 5
 733.358398438 650 706.204101562 641.541992188 654.834960938 594 c 4
 623.390625 558.201171875 367.18359375 221.500976562 255.0234375 60 c 4
 234.216796875 35.64453125 215.328125 0 203.543945312 -27 c 5
 160.764648438 -27 l 5xc0
 160.115234375 0 161.248046875 21.015625 161.25390625 57 c 4xa0
 161.272460938 169.40625 161.331054688 403.74609375 161.390625 610 c 4
 161.403320312 652.190429688 132.327148438 649 90.41015625 656 c 5
 104.80078125 694 l 5
 201.557617188 676 238.787109375 687 344.227539062 692 c 5x90
EndSplineSet
Fore
SplineSet
294.438476562 685 m 5xa0
 296.49609375 610 l 1
 281.49609375 610 260.49609375 610 256.284179688 609 c 0xa0
 247.858398438 607 247.795898438 602 249.095703125 594 c 1
 245.653444627 482 239.495255315 178 239.64453125 143 c 1
 254.643253096 159 651.533199858 581 659.033203125 589 c 1
 663.520507812 596 661.795898438 602 656.795898438 602 c 0xc0
 645.008789062 603 615.43359375 605 602.071289062 608 c 1
 620.438476562 685 l 1xa0
 647.525390625 676 684.525390625 676 722.525390625 676 c 3xc0
 759.525390625 676 799.587890625 681 821.288085938 689 c 1
 813.071289062 608 l 1
 764.095703125 594 748.520507812 596 740.544921875 582 c 1
 700.671578766 547 375.066140371 215 239.935546875 59 c 0
 220.550250328 35 204.340577627 14 190.02734375 -9 c 1
 120.603515625 -10 l 1
 120.120852782 18 122.442490788 20 123.234375 55 c 0
 123.036627077 171 121.17109844 407 119.395507812 586 c 0
 109.771484375 616 108.646484375 606 59.197265625 618 c 1
 79.2880859375 689 l 5x90
 122.163085938 679 156.73828125 677 185.73828125 677 c 7
 216.73828125 677 247.80078125 682 294.438476562 685 c 5xa0
EndSplineSet
Position2: "cpsp-1" dx=0 dy=0 dh=10 dv=20
Substitution2: "c2pc-1" v.pcap
Substitution2: "c2sc-1" v.smcp
EndChar
StartChar: Y
Encoding: 89 89 58
Width: 658
Flags: HW
HStem: -6 72<207.478 293.748 409.7 499.25> 604 74<133 199 584.52 645.009> 611 75<191.345 223.6 461.658 494.526>
VStem: 296 106<77.7581 291>
AnchorPoint: "Top" 412 699 basechar 0
AnchorPoint: "Bottom" 283 -15 basechar 0
LayerCount: 2
Back
SplineSet
328 649 m 5xa0
 328 649 305 649 293 649 c 4
 276 649 258.8984375 636.963867188 265 620 c 4
 315 483.288085938 374 386.901367188 378 381 c 5
 467 485.5 553.465820312 585.603515625 557 590 c 4
 573 610 583.615234375 633.192382812 562 644 c 4
 552 649 536 650 521 654 c 5
 532 692 l 5
 565 686 696 675 761 691 c 5
 751 648 l 5
 691 646 661.059570312 627.9296875 629 601 c 4
 554 538.248046875 463 429.676757812 397 348 c 5
 384.307617188 296.431640625 366.258789062 242.5546875 342 85 c 4
 336 46 354 41 429 37 c 5
 415 -5 l 5x60
 323 9 240 15 137 -11 c 5
 137 30 l 5
 213 42 251.646484375 57.087890625 263 105 c 6
 312 311 l 5
 307 321.852539062 249.916015625 472.883789062 168 606 c 4
 151 634 129 635 79 651 c 5
 92 690 l 5
 144 684 277 677 334 688 c 5
 328 649 l 5xa0
EndSplineSet
Fore
SplineSet
289.815429688 611 m 5xb0
 271.028320312 612 266.327148438 604 255.327148438 604 c 4
 253.327148438 604 243.989257812 593 244.776367188 592 c 5
 280.182617188 481 337.77734375 385 355.913085938 348 c 5
 408.94140625 414 555.264648438 599 554.202148438 594 c 5
 559.264648438 599 563.752929688 606 551.96484375 607 c 4
 542.177734375 608 525.177734375 608 515.240234375 613 c 5
 536.182617188 688 l 5
 556.119140625 683 595.84375 677 637.84375 677 c 7
 666.84375 677 697.907226562 682 720.39453125 689 c 5
 713.602539062 610 l 5
 674.602539062 610 657.115234375 603 644.3515625 590 c 5
 559.41015625 515 460.478515625 393 391.796875 291 c 5
 381.870117188 249 369.517578125 205 354.6484375 88 c 4
 353.247070312 72 397.609375 69 449.971679688 66 c 5
 425.66796875 -6 l 5
 373.943359375 0 323.943359375 0 274.943359375 0 c 7
 229.943359375 0 183.943359375 0 133.60546875 -11 c 5
 131.333984375 63 l 5
 203.247070312 72 242.735351562 79 243.923828125 94 c 5
 244.561523438 97 276.420898438 261 278.05859375 264 c 5
 262.072265625 297 203.869140625 456 117.564453125 591 c 5
 115.477539062 600 90.115234375 603 61.0908203125 617 c 5
 81.9697265625 687 l 5
 113.119140625 683 161.056640625 678 205.056640625 678 c 7xd0
 240.056640625 678 273.481445312 680 296.756835938 686 c 5
 289.815429688 611 l 5xb0
EndSplineSet
Position2: "cpsp-1" dx=0 dy=0 dh=10 dv=20
Substitution2: "c2pc-1" y.pcap
Substitution2: "c2sc-1" y.smcp
EndChar
StartChar: Z
Encoding: 90 90 59
Width: 696
Flags: HW
HStem: -0 67<199 568.049> 610 66.0349<126.721 501>
AnchorPoint: "Top" 418.516 699 basechar 0
AnchorPoint: "Bottom" 284.689 -15 basechar 0
LayerCount: 2
Back
SplineSet
92.1474609375 570 m 1
 158.388671875 679 156.772460938 716 183.3359375 726 c 1
 195.515625 699 228.924804688 690.24609375 238.952148438 689 c 0
 268.280273438 684.284179688 604.0625 679.569335938 701.643554688 684.6171875 c 0
 711.2890625 685.001953125 718.610351562 685.4609375 723.083007812 686 c 1
 730 665 l 1
 717.067382812 651.998046875 l 0
 126.11328125 44 l 1
 197.11328125 44 269.200195312 42 340.200195312 42 c 0
 485.200195312 42 579.41015625 83 618.1796875 157 c 1
 640.747070312 144 l 1
 587.719726562 53 568.291992188 17 538.08203125 -24 c 1
 521.6015625 -13 507.037109375 -0.099609375 429.990234375 1 c 0
 289.903320312 3 63.5537109375 11 -11.140625 4 c 1
 -14.40625 33 l 1
 26.6767578125 54 64.931640625 88.2509765625 94.8388671875 119 c 0
 261.729492188 289.559570312 430.420898438 465.3203125 594.134765625 639 c 0
 597.916992188 644 l 1
 259.829101562 646 l 2
 207.822265625 646.154296875 164.702148438 626 113.93359375 552 c 1
 92.1474609375 570 l 1
EndSplineSet
Fore
SplineSet
62.2548828125 548 m 5
 106.49609375 615 127.264648438 708 185.602539062 719 c 5
 198.563476562 700 216.3125 680 218.3125 680 c 4
 252.370117188 679.287109375 430.649414062 676.03515625 565.416992188 676.03515625 c 7
 627.704101562 676.03515625 671.231445312 678 706.887695312 678 c 5
 724.59765625 639 l 5
 725.59765625 639 718.322265625 633 717.322265625 633 c 4
 711.110351562 632 148.440429688 69 140.015625 67 c 5
 236.015625 67 347.622070312 70 411.653320312 70 c 7
 516.696289062 70 534.329101562 92 580.609375 178 c 5
 636.658203125 150 l 5
 579.740234375 61 555.962890625 15 515.397460938 -30 c 5
 487.436523438 -11 489.221679688 2 401.19921875 2 c 7
 285.181640625 2 33.412109375 3 -30.2255859375 0 c 5
 -38.9599609375 53 l 5
 7.50390625 74 45.0927734375 105 83.107421875 138 c 5
 236.140625 284 400.700195312 456 553.583984375 606 c 5
 557.43359375 610 l 5
 534.583984375 606 206.583984375 606 195.37109375 605 c 5
 174.646484375 611 164.095703125 599 119.00390625 528 c 5
 62.2548828125 548 l 5
EndSplineSet
Position2: "cpsp-1" dx=0 dy=0 dh=10 dv=20
Substitution2: "c2pc-1" z.pcap
Substitution2: "c2sc-1" z.smcp
EndChar
StartChar: bracketleft
Encoding: 91 91 86
Width: 246
VWidth: 1515
Flags: W
HStem: -230 33<159.267 219> 685 32<163 219>
VStem: 37 54<-182 669>
LayerCount: 2
Fore
SplineSet
91 669 m 1
 91 -182 l 1
 219 -197 l 1
 219 -230 l 1
 37 -230 l 1
 37 717 l 1
 219 717 l 1
 219 685 l 1
 91 669 l 1
EndSplineSet
Validated: 1
Position2: "cpsp-1" dx=0 dy=0 dh=10 dv=20
Position2: "'case' vertical ajustments for all-caps-1" dx=0 dy=90 dh=0 dv=0
EndChar
StartChar: a
Encoding: 97 97 0
Width: 499
VWidth: 1159
Flags: HW
HStem: -10 97<92.6952 182.78 307.637 392.042> 485 20G<377.221 443.268>
VStem: 17.0587 97.9413<96.1417 221.174>
AnchorPoint: "Top" 335.908 550 basechar 0
AnchorPoint: "Ogonek" 386.366 23 basechar 0
AnchorPoint: "Bottom" 198.193 -15 basechar 0
LayerCount: 2
Back
SplineSet
304.235136639 169.632308433 m 1
 323.399425158 265.457750105 348.09797714 355.221321763 373.150707256 430.178233701 c 1
 277.089647792 421.73146773 195.709763189 371.553243541 145.490219537 300.708924339 c 0
 112.349444211 253.957490633 73.0587456862 177.488296692 73.0587456862 119.467049095 c 0
 73.0587456862 67.7144986344 103.245613553 46 117.33203125 46 c 0
 138.517514218 46 220.483471063 109.484488879 289.98448049 163.088883241 c 0
 294.086552822 166.252709274 298.151281639 169.355112467 302.170373658 172.377749601 c 1
 304.235136639 169.632308433 l 1
290.548169368 92.3110952493 m 1
 233.516208385 47.060236281 170.853709463 -10 117.33203125 -10 c 0
 58.9719405858 -10 17.0587456862 50.2492136154 17.0587456862 119.467049095 c 0
 17.0587456862 198.912281564 63.5264836961 281.917223066 99.8044559808 333.094276094 c 0
 159.323008933 417.056635311 255.432869187 476.703242334 370.292089919 486.136511461 c 0
 383.336145804 487.207806294 393.961994091 493.139479727 404.30693868 499.296860467 c 0
 418.137321363 507.52879745 436.616408004 502.05905952 443.73787846 487.62545532 c 0
 447.279461254 480.447470855 446.536871031 470.347983767 445.033567645 465.916456647 c 0
 412.476586097 377.337168061 381.017584323 271.558325544 357.789564533 151.673951408 c 0
 355.791786797 141.363027976 353.894794051 131.551208688 352.185829892 122.305635336 c 0
 346.715425492 92.7105002606 343.453639061 68.7495556089 344.031150716 54.3718188429 c 0
 344.163129114 51.0860831367 345.010290869 47.4883122445 345.717866972 45.665514485 c 0
 360.977496522 51.3340498191 398.467883569 84.0856530116 415.014653712 103.592175611 c 1
 436.3671875 85.4794921875 l 1
 457.719721288 67.3668087635 l 1
 436.070261359 41.8448684846 389.321129857 -11 344 -11 c 0
 300.370534846 -11 288.901169282 31.5876018009 288.076271159 52.1242749071 c 0
 287.579408511 64.4941730684 288.688473739 77.9582486479 290.548169368 92.3110952493 c 1
EndSplineSet
Fore
SplineSet
368 426 m 1
 364.93248387 426.999999999 359.736711389 428 357 428 c 3
 335.483750801 428 269.203445587 409.716746848 215 371 c 0
 131 311 73 187.007245996 73 118 c 3
 73 80.4273092423 91.798752159 47 118 47 c 3
 149.030306528 47 245.357475684 134.143510013 294 165 c 0
 308.290326178 174.065099166 309.445620706 194.521392579 330 285 c 0
 345.021428189 351.123033177 374.055590397 423.024965731 368 426 c 1
361.978515625 174.03125 m 0
 351.635514221 126.684054108 343.906431806 76.3037930492 344 66 c 0
 344.139881925 50.5961074975 344.884396562 46 346 46 c 3
 355.777221204 46 415.137338946 99.3333333333 434 126 c 1
 473.459627962 83.298102981 l 1
 441.157489279 47.2741085838 392.370970268 -11 339.073242188 -11 c 3
 304.884508626 -11 288.120117188 28.1586072198 288.120117188 57.82421875 c 3
 288.120117188 68.5558239756 288.973483478 81.1672972902 291 95 c 1
 228.010975496 35.6519817487 159.089078579 -10 116.33203125 -10 c 3
 60.4367073458 -10 17.0587456862 48.7736448328 17.0587456862 119.467049095 c 3
 17.0587456862 198.614876873 64.870523906 281.362276593 99.8044559808 333.094276094 c 0
 130.059912224 377.898143118 174.907599279 413.535906344 200.3515625 428.67578125 c 0
 249.129928456 457.700283143 293.141912517 476.771439114 368 486 c 0
 384.969455182 488.092007098 394.266805543 494.717830952 407.220703125 502.541015625 c 1
 460.53515625 505 l 1
 416 398 383.68577127 273.400634691 361.978515625 174.03125 c 0
EndSplineSet
Substitution2: "case-1" A
Substitution2: "pcap-1" a.pcap
Substitution2: "smcp-1" a.smcp
EndChar
StartChar: b
Encoding: 98 98 1
Width: 512
VWidth: 1159
Flags: HMW
HStem: -9 58<115.481 228.954> 347 56<242.013 322.382>
VStem: 345.205 70.1571<192.971 323.898>
AnchorPoint: "Top" 285.712 749 basechar 0
AnchorPoint: "Bottom" 189.68 -15 basechar 0
LayerCount: 2
Back
SplineSet
141.41662698 309.989986539 m 1
 122.474094732 229.67892931 101.162498922 144.662117417 80.3070379926 74.3020278825 c 1
 102.525564585 52.3192247928 107.113365225 47 138.173828125 47 c 0
 244.0556414 47 413.365512809 209.767771455 413.04694041 357.15139169 c 0
 413.041407093 359.710965327 412.986594707 362.258054384 412.882148425 364.792301134 c 0
 410.933150719 412.088795153 382.437324092 435 360 435 c 0
 297.930857447 435 210.193726178 377.627283854 163.428806175 331.671191699 c 0
 157.963843884 326.300749268 153.126398412 321.189025468 149.05977695 316.547742826 c 1
 124.239325545 338.295045924 l 1
 141.41662698 309.989986539 l 1
30.3358095177 19.8397068875 m 0
 15.746748657 28.4001872062 12.0117815711 43.4126992728 15.4384631273 54.0193084294 c 0
 42.3392764583 137.285409558 74.0257481556 265.993981967 98.4211010428 372.329075023 c 0
 115.212408189 445.519457477 128.631882256 508.352546595 134.897211243 539.001189568 c 0
 147.684201624 601.552398565 165.674149869 673.395579957 174.367511679 726.521679907 c 1
 202 722 l 1
 229.632488321 717.478320093 l 1
 220.325850131 660.604420043 202.210699386 588.679041913 189.762551567 527.785377912 c 0
 184.778445553 503.404202387 175.424213211 459.396465293 163.497309857 406.111635445 c 1
 216.387380779 447.875762953 289.259843361 491 360 491 c 0
 421.150007464 491 466.044807944 434.799622055 468.83464845 367.098323866 c 0
 468.969475268 363.826934828 469.039721454 360.551230489 469.04680959 357.272436435 c 0
 469.433316431 178.459777901 282.857730595 -9 138.173828125 -9 c 0
 101.967265416 -9 76.2136132682 2.86821403161 56.4027054946 19.9586463448 c 1
 45.2238267976 15.819690686 37.5150620513 17.3759243878 30.3358095177 19.8397068875 c 0
EndSplineSet
Fore
SplineSet
142 310 m 1
 119.927767425 221.877214567 103.195303766 154.736712599 83 82 c 1
 83.7023186239 73.5 84.3129302945 69.6870697055 89 65 c 0
 102 52 112.948746363 47 134.543945312 47 c 3
 236.65206621 47 414.639759472 198.996050683 413 365 c 0
 412.601341635 405.358884424 387.50974484 435 358 435 c 3
 291.044752113 435 192.302514508 364.57794972 142 310 c 1
176 736 m 1
 181.920615248 742.872727273 196.066315924 748.436363636 210.211914062 754 c 1
 221.640183356 750.338028169 228.026500925 745.577464789 234 741 c 1
 229 712 207 606 163 406 c 1
 188.934640166 428.261569783 277.467292781 491 360 491 c 3
 421.227108428 491 466.030245741 434.751118978 468.834960938 367.098632812 c 0
 476.356519629 185.671247282 284.088485466 -9 136.173828125 -9 c 3
 86.3429605238 -9 66.9588652373 15.2554928832 56 17 c 0
 44.3440819546 18.85546875 29.8697884061 17 25.044921875 18 c 1
 8.0439453125 32 l 1
 53.9484703199 163.101089844 118.741082671 459.951411892 134.896968093 539 c 0
 142.935017523 578.329101562 155.898143274 632.478437014 161 659 c 0
 167.292676406 691.711936581 171 710.395117188 176 736 c 1
EndSplineSet
Substitution2: "case-1" B
Substitution2: "pcap-1" b.pcap
Substitution2: "smcp-1" b.smcp
EndChar
StartChar: c
Encoding: 99 99 2
Width: 417
VWidth: 1159
Flags: HMW
HStem: -15 53<138.021 225.281> 359 63<200.666 292.636>
VStem: 31.6688 74.9532<71.9391 229.688>
AnchorPoint: "Top" 294.068 550 basechar 0
AnchorPoint: "Bottom" 175.314 -15 basechar 0
LayerCount: 2
Back
SplineSet
383.573052737 433.21103326 m 1
 359.143498862 419.529041539 l 1
 351.490776454 433.193177447 327.09140497 451 299.576471528 451 c 0
 217.785879058 451 86.736083899 319.624428212 87.0172727481 167.070829893 c 0
 87.0237945706 163.532540623 87.1006738978 159.995088878 87.2493348628 156.459846921 c 0
 91.1116015836 64.6129565159 143.787456903 49 175.73431717 49 c 0
 205.235150298 49 248.687213662 70.3537511605 277.534018402 93.6580893999 c 1
 295.129740177 71.8775803334 l 1
 312.725461953 50.0970712668 l 1
 277.979181972 22.0267505315 226.830023803 -7 175.73431717 -7 c 0
 120.120592722 -7 36.4693870619 31.1471367743 31.2987816565 154.107062208 c 0
 31.1182865689 158.399337633 31.0252580773 162.686933318 31.0173678761 166.967610113 c 0
 30.6928441632 343.031704715 173.749124288 507 299.576471528 507 c 0
 348.429936917 507 389.70073881 479.571488368 408.002606613 446.893024981 c 1
 383.573052737 433.21103326 l 1
EndSplineSet
Fore
SplineSet
370 394 m 1
 359.961941961 425.240234374 340.352277145 451 298.64453125 451 c 3
 218.873363668 451 79.9005854397 315.308639435 87 159 c 0
 90.209888133 88.3275181299 120.833333332 49 174 49 c 3
 221.130561608 49 269.183165253 84.428571428 297 111 c 1
 332.799803339 68.3551401869 l 1
 304.441547528 38.8683462007 238.571668838 -7 175.73431717 -7 c 3
 119.70955196 -7 36.4830195477 30.8229485395 31.2987816565 154.107062208 c 0
 23.7040924846 334.713072734 170.967132814 507 299.576471528 507 c 3
 353.790764051 507 400.213146654 472.643640777 413.839409716 434.00616679 c 1
 409.574584619 420.897789652 398.341193147 403.622399447 370 394 c 1
EndSplineSet
Substitution2: "case-1" C
Substitution2: "pcap-1" c.pcap
Substitution2: "smcp-1" c.smcp
EndChar
StartChar: d
Encoding: 100 100 3
Width: 535
VWidth: 1159
Flags: HMW
HStem: -23 54<297.635 374.885> -9 55<97.3336 209.668> 357 50<188.71 289.162> 659 30<325.178 370.283> 748 20G<468.878 507.878>
VStem: 29.9995 69.6452<81.7189 228.754>
AnchorPoint: "TopRight" 584.693 581 basechar 0
AnchorPoint: "Top" 405.819 734 basechar 0
AnchorPoint: "Bottom" 208.832 -15 basechar 0
LayerCount: 2
Back
SplineSet
490.544921875 728.16796875 m 1
 518.172789614 723.61814192 l 1
 503.019529007 631.603149817 445.773320446 368.763796479 388.770645472 182.794359197 c 1
 362 191 l 1
 335.229354528 199.205640803 l 1
 390.970820179 381.060422271 448.431642868 644.758178308 462.917054136 732.71779558 c 1
 490.544921875 728.16796875 l 1
454.615234375 73.5234375 m 1
 474.023240524 53.3410368171 l 1
 436.815160171 17.5606228005 386.534251124 -11 354.909179688 -11 c 0
 346.586396897 -11 337.868124993 -10.9745250723 327.556461434 -6.2579518629 c 0
 304.463685252 4.30472493922 302.870262521 28.378393038 302.04528157 40.1332537285 c 0
 301.134906201 53.1034136613 303.164565797 68.4597049398 305.569500672 82.8371738031 c 1
 251.409967785 36.3610487585 189.328747535 -9 132.899414062 -9 c 0
 64.606097436 -9 20.7041620951 49.7914290237 16.8408203125 132.672851562 c 0
 16.717939274 135.3090551 16.6556978482 137.966786716 16.6529885306 140.644832581 c 0
 16.5088675232 283.102355522 175.925515894 485 350 485 c 0
 400.103228965 485 423.283956423 439.986972515 439.768411071 419.610686512 c 1
 418 402 l 1
 396.231588929 384.389313488 l 1
 370.905496702 415.69466811 361.10575541 429 350 429 c 0
 215.228780981 429 72.5394388241 252.912243958 72.6529598729 140.701486467 c 0
 72.6548290782 138.853856039 72.6977718252 137.046165841 72.7800819763 135.280341639 c 0
 75.9276998955 67.7535564278 104.115671782 47 132.899414062 47 c 0
 175.175850474 47 279.042379085 127.440670976 333.013171748 187.362864591 c 2
 409.725384044 272.534191733 l 1
 380.919799817 161.587552307 l 2
 371.478610998 125.224180421 357.65951313 66.7401392802 357.835969881 45.7898532544 c 1
 373.064503858 50.2548195349 410.915554997 70.3462314247 435.207228226 93.7058381829 c 1
 454.615234375 73.5234375 l 1
EndSplineSet
Fore
SplineSet
306 84 m 1xbc
 255.474618194 39.1470802437 189.789589359 -9 132.899414062 -9 c 3x7c
 64.1830629008 -9 20.7086245988 49.6956936009 16.8408203125 132.672851562 c 0
 10.1384173912 276.461498751 173.829101562 485 350 485 c 3
 364.963235294 485 390.481638391 478.205791765 405 462 c 1
 424.060284005 540.079892883 446.792164064 640.496452452 446 649 c 0
 444.993374114 659.805704868 441.632153754 663 438 663 c 3
 431.313778277 663 403.223094039 655.803941225 373 653 c 5
 370.0625 708.481445312 l 5
 411.20998905 716.768839003 466.730552786 742.384419502 502.284179688 768 c 1
 521.814453125 750 l 1
 517.979501088 702.236850351 449.330234731 372.025550394 379.662109375 154.552734375 c 0
 371.476207642 129 358.532077576 63.9708525788 359 55 c 0
 359.172622109 51.6905465278 360.574224106 49 364 49 c 3
 372.472276573 49 420.193879646 73.5 452 112 c 1
 487.251953125 69 l 1
 451.86574959 27 391.109543959 -11 352.909179688 -11 c 3
 318.779923042 -11 302.654085363 9.7798885037 302.044921875 40.1328125 c 0
 301.767631827 53.9494051418 302.571439 68.6072950271 306 84 c 1xbc
350 429 m 3
 222 429 73.1805902605 262.237832563 73.171875 137.091796875 c 0
 73.1684412028 87.7844806908 95.6332622041 47 130 47 c 3
 188.309756238 47 325.336273384 168 336 202 c 0
 351.209960938 250.495117187 382.200958451 360.154205249 387 390 c 0
 388.335497718 398.305614856 362.384765625 429 350 429 c 3
EndSplineSet
Substitution2: "case-1" D
Substitution2: "pcap-1" d.pcap
Substitution2: "smcp-1" d.smcp
EndChar
StartChar: e
Encoding: 101 101 4
Width: 434
VWidth: 1159
Flags: HMW
HStem: -15 51<132.518 227.037> 367 54<183.549 254.884>
VStem: 34.5302 71.9619<61.4685 197.627> 272 60<289.245 349.853>
AnchorPoint: "Top" 266.206 555 basechar 0
AnchorPoint: "Ogonek" 285.103 26 basechar 0
AnchorPoint: "Bottom" 178.502 -15 basechar 0
LayerCount: 2
Back
SplineSet
263.869140625 505 m 7
 326.581963554 505 394.467405189 428.609800073 397.80859375 350.809570312 c 4
 398.116213414 343.482990788 400.496007244 333.540136485 406.49609375 330.922851562 c 5
 402.516601562 296.556640625 l 5
 334.710566237 274.651765743 211.498173395 236.3208828 108.444870103 206.202531646 c 5
 108.363967377 196.844478779 107.681466936 188.260132602 108.288279552 173.544234483 c 4
 111.706737616 91.4397665698 161.210800086 42.3642578125 209.84375 42.3642578125 c 7
 263.410247868 42.3642578125 309.520048675 65.274885611 342.385742188 94.5498046875 c 5
 358.659179688 72.912109375 l 5
 319.061885278 32.0089351472 257.58821684 -10 179.28125 -10 c 7
 89.8532161539 -10 40.1524586634 62.2153558258 36.3975083886 154.005962775 c 4
 27.9846724127 360.289970128 191.044432562 505 263.869140625 505 c 7
237.111328125 454.569335938 m 7
 188.466332413 454.569335938 123.252504632 363.887901257 110.63512864 240.568693137 c 5
 149.102306556 250.036157445 291.545329807 292.522775681 310.161132812 297.829101562 c 4
 322.55508114 301.452686875 334.794390276 311.830036462 333.955078125 332.1953125 c 5
 331.319425001 400.534036224 284.861913119 454.569335938 237.111328125 454.569335938 c 7
EndSplineSet
Fore
SplineSet
263.869140625 505 m 3
 326.581963554 505 394.795646571 434.568952647 397.80859375 362.809570312 c 0
 398.116213414 355.482990788 400.496007244 345.540136485 406.49609375 342.922851562 c 1
 402.516601562 281.556640625 l 1
 339.025196198 260.731970367 237.653320312 227.291015625 141.157226562 198.658203125 c 1
 141.076171875 193.598632812 140.660771059 188.973168126 141 181 c 0
 143.92622467 112.222609658 173.375788576 74 215 74 c 3
 257.718624769 74 294.403353695 96.1379996958 325 129 c 1
 371 86 l 1
 328.678495895 38.6401540683 262.975569725 -10 179.28125 -10 c 3
 89.8532161539 -10 40.1410039045 62.2148879529 36.3975083886 154.005962775 c 0
 27.9846724127 360.289970128 191.044432562 505 263.869140625 505 c 3
236.111328125 413.569335938 m 3
 194.402701112 413.569335938 154.164714491 361.136485841 143.346679688 267.024414062 c 1
 176.267202076 275.218225217 279.233967037 305.704685753 296.161132812 312.829101562 c 0
 304.456863197 316.320662612 305.838867188 325.89453125 305 335 c 1
 302.667335619 389.374656544 278.370889759 413.569335938 236.111328125 413.569335938 c 3
EndSplineSet
Substitution2: "case-1" E
Substitution2: "pcap-1" e.pcap
Substitution2: "smcp-1" e.smcp
EndChar
StartChar: f
Encoding: 102 102 5
Width: 407
VWidth: 1159
Flags: HMW
HStem: -326 36<-136.972 -96.346> 341 42<181.132 319> 697 57<336.061 425.684>
AnchorPoint: "Top" 374.318 748 basechar 0
AnchorPoint: "Bottom" 119.846 -204 basechar 0
LayerCount: 2
Fore
SplineSet
482.528320312 754 m 3
 518.598259655 754 601.210056212 728 625.64453125 706 c 1
 619.29650509 670 607.870058002 660.666666667 541.850585938 626 c 1
 499.962705869 644 455.747721354 677 412.696289062 677 c 3
 329.611832364 677 300.650132657 605.294485979 257.672851562 498 c 0
 254.553027068 489.869822995 236.199890137 434.581395349 226.439453125 397 c 1
 253.201110413 398 366.06549115 410 392.827148438 411 c 1
 384.172851562 341 l 1
 358.57466021 342 239.892136665 334 214.293945312 335 c 1
 197.076557623 262.863574026 153.291736917 20.5710122264 130.12109375 -53 c 0
 112.974868211 -102.717146109 87.4655545842 -136.574684396 58.9716796875 -171 c 1
 43.2185776655 -170 44.7938878677 -169 -21.369140625 -169 c 3
 -43.219110577 -169 -76.514302885 -173 -89 -174 c 1
 -94.8173828125 -111 l 1
 -47.3033385087 -103.97608844 -15.8248920708 -88.8548447927 4.0556640625 -60 c 0
 48.6585661693 9.49131502846 85.3061329869 198.500683215 112.990234375 329 c 1
 90.9089955043 327.875 69.7868463468 324.5 47.7056074766 320 c 1
 42.5234375 390 l 1
 69.6669610251 388.5 97.9922186621 394.5 125.135742188 393 c 1
 132.804125526 430.984466553 143.176059606 483.667109516 144.733398438 493 c 0
 170.150491189 633.673076923 228.849251811 668.566608302 313.448242188 713 c 0
 357.798476422 735.886792453 411.138953993 754 482.528320312 754 c 3
EndSplineSet
Substitution2: "salt-1" f.alt
Substitution2: "case-1" F
Substitution2: "pcap-1" f.pcap
Substitution2: "smcp-1" f.smcp
EndChar
StartChar: g
Encoding: 103 103 6
Width: 530
VWidth: 1159
UnlinkRmOvrlpSave: 1
Flags: HMW
HStem: -337 64<20.3914 156.022> 325 55<349.705 429.963> 378 38<170.55 260.831>
AnchorPoint: "Top" 317.978 535 basechar 0
AnchorPoint: "Bottom" 245.154 -225 basechar 0
LayerCount: 2
Back
SplineSet
423 428 m 1
 415.370073954 454.940382858 l 1
 448.961617643 464.45401878 480.85860329 469 510.288085938 469 c 0
 514.685118517 469 522.265157629 468.734003058 522.401499181 468.729639383 c 2
 521.505804709 440.743969274 l 1
 520.610110237 412.758299166 l 1
 520.610110237 412.758299166 512.768351084 413 510.288085938 413 c 0
 486.643396534 413 459.768891322 409.312215157 430.629926046 401.059617142 c 1
 423 428 l 1
214.693061365 209.978715582 m 1
 306.718176951 242.673318589 373.853161395 261.618522807 399.690194261 365.815762228 c 0
 404.819094774 400.884925236 372.200038876 440.216467124 324.825892358 447.913729262 c 0
 320.305168756 448.648247921 315.922471722 449 311.841796875 449 c 0
 247.939513583 449 156.277433357 389.339519149 143.60122097 300.425137151 c 0
 140.260089537 260.254303159 150.290371223 238.758932852 209.339836741 212.600506902 c 1
 204.479488182 201.628861087 l 1
 214.693061365 209.978715582 l 1
124.000976562 56 m 1
 136.250075493 30.821446122 l 1
 74.6655254053 0.861216861494 30.582185983 -38.6142555182 25.1944879307 -70.9151381089 c 0
 23.8152103259 -81.3820575171 22.4408529709 -106.939150615 86.6565787246 -115.941023831 c 0
 95.9046718753 -117.23743777 106.49239225 -118 118.456790123 -118 c 0
 224.829625306 -118 372.65483037 -60.8915824342 393.832339129 27.9005327634 c 0
 396.018126832 46.9393340067 389.3144644 65.0900197033 356.629140678 68.5184146481 c 0
 353.675006018 68.8282766651 350.468321421 69 347 69 c 0
 308.992763475 69 234.491667113 37 160 37 c 0
 155.397631884 37 150.899809725 37.4013499465 146.335016686 38.0646273292 c 0
 145.345408873 38.2084201528 124.000976562 56 124.000976562 56 c 1
146.476885622 183.022418446 m 1
 101.540057624 213.054774011 83.4125840818 255.599193461 87.8766497215 306.026647926 c 2
 87.9355189764 306.691653084 l 1
 88.026014838 307.353096919 l 2
 104.666780428 428.982214813 221.415210915 505 311.841796875 505 c 0
 319.106264968 505 326.451778451 504.383919179 333.806893793 503.188873886 c 0
 402.041074284 492.1023127 467.615406574 432.208421342 454.768745578 355.613854931 c 2
 454.599813533 354.606645608 l 1
 454.357953659 353.614419596 l 2
 417.554739061 202.629859108 297.226559972 182.551497647 201.631264629 145.495301808 c 0
 173.363022906 134.537508357 145.60666698 121.596660539 120.70482323 104.759532791 c 1
 124.547733607 102.747160261 128.310281752 101.068724128 132.443298994 99.4825630879 c 0
 143.543667955 95.2224858262 155.548550086 93 160 93 c 0
 218.75731778 93 287.958957788 125 347 125 c 0
 353.281178959 125 359.342261771 124.633047695 365.181893347 123.900925528 c 0
 428.519592602 115.960196218 455.284337067 64.3957849473 449.184646358 19.3280934674 c 2
 448.956035531 17.7581611285 l 1
 448.720634263 16.71138205 l 2
 418.153002021 -119.216339125 232.206871027 -174 118.456790123 -174 c 0
 104.119471416 -174 90.9506780458 -173.090527235 78.8824135267 -171.398776719 c 0
 -6.46018585885 -159.435301254 -36.5296921331 -107.42935568 -30.2004824414 -62.6950275865 c 0
 -21.4319187132 -6.61826120962 28.1818572104 34.1676287925 79.8222762777 64.2368007229 c 1
 68.6047491487 72.3260278564 55.5569705481 84.0125292749 51.7646211938 102.798134274 c 2
 48.4983949412 118.977560399 l 1
 61.0728641004 129.669837474 l 2
 88.4059053215 152.911570093 117.624567133 169.724954468 146.476885622 183.022418446 c 1
EndSplineSet
Fore
SplineSet
418 454.686523438 m 1x80
 450.341947343 464.503045745 483.258170248 469 510.288085938 469 c 3
 528.423950196 469 552.605102539 467 558.650390625 463 c 1
 541 409 l 1
 531.905991127 411.104054581 522.27976055 413 510 413 c 0
 485.293309579 413 459.97843811 409.453228224 434 402 c 1
 433.22347843 402.045424066 417.406977007 454.422158872 418 454.686523438 c 1x80
454.651367188 354.936523438 m 1
 414.154362416 175 244.228187919 178 140 117 c 0
 127.216990038 109.518687859 119.149222916 103.494596004 109 95 c 1
 103 92 112 125.989130435 115 116 c 1
 119.914893617 103 145.054976814 93 160 93 c 3
 217.968080142 93 289.295269846 125 347 125 c 3
 429.468085106 125 456.18884062 64.4258758335 449 18 c 1
 419.980771547 -118 232.400052534 -174 118.456790123 -174 c 3
 17.2176490514 -174 -17.583305692 -114.356482164 -11.255859375 -63.083984375 c 1
 -2.65036888549 7.32483332522 77.7686686161 53.3604355356 121.298828125 75.79296875 c 1
 122.801496254 76.6064413058 180.464395523 39.6964875865 179 39 c 1
 116.023454158 14.1835003198 56.4643747739 -28.5852541777 49 -70 c 0
 43.9140231261 -98.2186312814 68.0404848163 -119 121 -119 c 3
 235.015789473 -119 380 -48 394 27 c 1
 396.897612785 49.4148706301 385.896018816 69 348 69 c 3
 307.970537795 69 233.974286337 37 159 37 c 3
 114.068925138 37 50.442774568 64.5765916041 49.0009765625 119 c 1
 85.0064953211 155.013054142 132.028227161 178.113802705 191.999023438 201.913085938 c 0
 280.607744327 237.077268778 372.663637108 249.402652239 399 360 c 0
 410.541070493 408.46575786 355.061538462 449 313 449 c 3
 248.806116174 449 167.995141244 396.087258732 147.673828125 317 c 0
 132 256 171.584228516 219 252.673828125 197 c 1
 250.558497579 196.460637412 164.823565282 170.444630815 170 171 c 1
 122.585486669 187.943294032 78.9302094674 241.905804154 88.10546875 307.892578125 c 1
 105.233608702 431.333589805 224.06007962 505 311.841796875 505 c 3
 385.777224167 505 469.778667352 441 454.651367188 354.936523438 c 1
EndSplineSet
Substitution2: "smcp-1" g.smcp
Substitution2: "pcap-1" g.pcap
Substitution2: "case-1" G
EndChar
StartChar: h
Encoding: 104 104 7
Width: 489
VWidth: 1159
Flags: HMW
HStem: 343 60<222.293 318.876> 662 38<86.0009 118.754>
VStem: -10.9996 78<-4 76.7172> 345.001 56.9735<180.359 316.446>
AnchorPoint: "Top" 232.977 733 basechar 0
AnchorPoint: "Bottom" 158.979 -15 basechar 0
LayerCount: 2
Back
SplineSet
158.991210938 265.485351562 m 0
 129.328125 190.928710938 111.16796875 86.0439453125 103.051757812 -4 c 2
 102.071289062 -4 l 1
 115.099609375 -4 l 1
 -10.9140625 -4 l 1
 -2.490234375 -4 l 1
 1.4833984375 2.1220703125 l 2
 38.802734375 142.327148438 122.002929688 500.098632812 139.6015625 592 c 0
 144.161132812 617.095703125 146.1640625 633.278320312 146.068359375 637.416015625 c 0
 145.677734375 643.184570312 145.01171875 644 135.2265625 644 c 0
 132.588867188 644 104.602539062 639.165039062 93.4638671875 638.109375 c 2
 75.5556640625 636.395507812 l 1
 80.8525390625 662 l 2
 81.9345703125 665.846679688 84.17578125 693.841796875 84.0517578125 699.416015625 c 2
 83.802734375 698.157226562 l 1
 93.892578125 700 l 2
 154.396484375 711.231445312 224.764648438 722.225585938 301.24609375 759 c 2
 309.53515625 762.920898438 l 1
 315.49609375 759 l 1
 333.4609375 738 l 1
 341.162109375 727.779296875 l 1
 332.258789062 719.962890625 l 2
 317.584960938 707.713867188 298.374023438 685.698242188 292.306640625 677.3515625 c 0
 262.62890625 634.270507812 219.609375 529.897460938 180.518554688 376.440429688 c 1
 223.044921875 423.337890625 292.331054688 486 363 486 c 0
 441.8203125 486 492.874023438 426.958007812 494.344726562 362.162109375 c 0
 496.984375 196.435546875 394.590820312 53.583984375 332.236328125 -20 c 2
 327.172851562 -22.2646484375 l 1
 319.576171875 -20 l 2
 272.122070312 -7.748046875 253.412109375 10.7724609375 254.56640625 52.5732421875 c 2
 254.793945312 73.5888671875 l 1
 264.149414062 75.509765625 l 2
 323.701171875 87.15625 413.609375 199.784179688 413.609375 312 c 0
 413.609375 370.712890625 373.85546875 402 332.565429688 402 c 0
 272.395507812 402 186.180664062 325.580078125 158.991210938 265.485351562 c 0
EndSplineSet
Fore
SplineSet
160 234 m 4
 146.220305428 175.700846246 120.331993318 75.2256445313 110.099609375 -4 c 1
 8.0859375 -4 l 1
 43.6511935663 137.523489933 121.736592483 496.974609728 139.391601562 590 c 0
 144.02155163 614.395507812 146.240976428 629.545703081 146.064453125 636 c 0
 145.947760927 640.266666667 145.148946698 644 139.2265625 644 c 3
 133.951138771 644 109.794437732 640.666666667 100.3203125 640 c 1
 103.63415665 651.236842105 106.310723079 689.763157895 106.048828125 701 c 1
 159.411694003 712.745762712 223.08233447 724.491525424 292.376953125 764 c 1
 322.341796875 728 l 1
 309.056977867 714 293.634192695 690.680737933 287.435546875 681 c 0
 260.758157493 639.336574978 227.892406662 539.502929687 191 387 c 1
 211.39197145 411.174345128 289.59495037 486 361 486 c 3
 439.513119335 486 492.346679688 426.857302389 492.346679688 360.192382812 c 3
 492.346679688 195.589319323 392.937239323 51.6012693727 330 -23 c 1
 261.878160734 -5.50061035156 253.615417134 14.4997965495 255 72 c 1
 299.43256822 90 411.609375 199.38403813 411.609375 312 c 3
 411.609375 368.489167644 375.878471039 402 336 402 c 3
 270.682432847 402 183.356353905 333.311911369 160 234 c 4
EndSplineSet
Substitution2: "case-1" H
Substitution2: "pcap-1" h.pcap
Substitution2: "smcp-1" h.smcp
EndChar
StartChar: l
Encoding: 108 108 11
Width: 272
VWidth: 1159
Flags: HMW
HStem: -10 21G<62.2915 107.118> 749 20G<226.618 256.618>
VStem: 31.6184 82<53.6655 157.415>
AnchorPoint: "TopRight" 308.049 581 basechar 0
AnchorPoint: "Top" 228.514 749 basechar 0
LayerCount: 2
Back
SplineSet
202.141601562 406.817382812 m 0
 176.942382812 313.278320312 140.15625 160.1171875 138.911132812 90.005859375 c 0
 138.578125 79.759765625 140.541992188 77.154296875 147.420898438 76.9658203125 c 0
 156.639648438 76.47265625 199.697265625 99.9169921875 223.791015625 119.232421875 c 2
 231.26953125 125.953125 l 1
 239.009765625 119.87109375 l 1
 264.4609375 99.87109375 l 1
 273.512695312 92.7578125 l 1
 266.78125 81 l 2
 238.219726562 43.43359375 161.188476562 -10 109.36328125 -10 c 0
 50.3759765625 -10 39.9638671875 14.24609375 35.1357421875 37.04296875 c 0
 32.0986328125 55.1572265625 35.419921875 73.9287109375 39.7587890625 99.9423828125 c 0
 52.3046875 174.177734375 92.3916015625 311.81640625 111.772460938 401 c 0
 151.926757812 590.341796875 155.431640625 625.909179688 155.431640625 663 c 0
 155.431640625 667.446289062 151.360351562 672.106445312 148.487304688 672.850585938 c 2
 143.97265625 675.271484375 l 1
 142.598632812 687.564453125 l 2
 140.848632812 693.59765625 138.84765625 699.50390625 136.815429688 705.091796875 c 2
 134.176757812 707.662109375 l 1
 140.146484375 713 l 2
 165.322265625 734.4453125 218.696289062 749.247070312 269.811523438 764 c 2
 274.8671875 765.532226562 l 1
 279.411132812 764 l 2
 293.775390625 756.541992188 299.844726562 746.587890625 305.150390625 740 c 2
 309.055664062 734.461914062 l 1
 306.330078125 730.346679688 l 2
 294.787109375 704.3828125 274.657226562 649.399414062 266.372070312 622.912109375 c 0
 248.353515625 564.739257812 232.209960938 519.360351562 202.141601562 406.817382812 c 0
EndSplineSet
Fore
SplineSet
209.497070312 413 m 0
 184.168071574 320.941176471 147.022965735 171.416893059 145.86328125 100 c 0
 145.758829883 93.5675675676 146.095131632 86.3783783784 153 86 c 1
 161.584615385 86 197.070378011 100.625 215 112 c 5
 257 70 l 1
 209.227331879 22 154.009489238 -10 101.313476562 -10 c 3
 58 -10 39.2009744627 11.3912278953 34.9144960207 37 c 0
 32.3931229817 52.0634765625 35.1967316663 69.8804151193 39.5462153503 96 c 0
 51.8688381672 170 91.951125849 309.90233935 111.457492147 401 c 0
 151.592266322 588.435424015 155.382141683 624.797048832 155.382141683 663 c 3
 155.382141683 673.250746273 152.180635609 688.598310892 142.109674342 693.999998854 c 1
 140.269209027 700.612210404 138.187283411 707.007817777 136.096049942 713 c 1
 162.780873925 732.125 228.486053355 748.517857143 292.241210938 764 c 1
 303.806203391 757.142857143 308.248981726 748.571428571 314.293945312 740 c 1
 302.387087315 712.898550725 282.346340161 657.459752962 273.858398438 630 c 0
 255.930319454 572 240.526187344 525.776033456 209.497070312 413 c 0
EndSplineSet
Substitution2: "case-1" L
Substitution2: "pcap-1" l.pcap
Substitution2: "smcp-1" l.smcp
EndChar
StartChar: n
Encoding: 110 110 13
Width: 518
VWidth: 1159
Flags: HMW
HStem: -11 73<324.961 381.216> 346 65<302.172 397.961>
VStem: 39.4609 17<275.412 284.988> 55.4609 65<0 38.5218>
AnchorPoint: "Bottom" 213.51 -15 basechar 0
AnchorPoint: "Top" 294.945 465 basechar 0
LayerCount: 2
Back
SplineSet
111.316714494 361 m 2
 114.86669081 373.431920328 104.079989545 393.673311074 97.9560021519 397.117600576 c 1
 87.7038165824 392.450831266 60.5672096958 361.229056705 52.7359969668 329.496727103 c 2
 48.4517085704 309.410864435 l 1
 33.0570454933 323.005030645 l 1
 14.9379048683 330.010061289 l 1
 9.76680835024 334.576367496 l 1
 11.1107846886 348 l 2
 27.660654308 427.168772608 106.972072003 482.436517371 154.289709428 506 c 2
 158.034506451 506.818183897 l 1
 162.18255499 506 l 2
 177.531121501 503.677578858 191.558751161 493.623749916 197.668403297 482 c 0
 201.235192589 473.86927086 205.01370053 459.45879867 206.456128423 440.49609375 c 0
 207.167153216 428.667856524 206.069263049 410.808699554 203.952405917 392.109214735 c 1
 247.760763826 443.372699306 312.110854677 504 374 504 c 0
 380.96925011 504 387.510418448 503.49198366 393.638564634 502.478303879 c 0
 459.897500205 490.847422007 461.791765506 423.072126337 450.002608591 367.345228868 c 0
 428.412602354 259.736662904 407.961575551 197.114741739 399.790153121 123 c 0
 397.656974209 107.298343735 396.629503929 90.54422197 398.905367533 85.2671804156 c 1
 405.169493604 87.9777772159 418.818901917 99.2418763795 428.755114348 111.698582796 c 0
 443.130877799 132.511760573 458.53145665 155.992541854 466.278839394 166.394611809 c 2
 474.077406702 169.60147659 l 1
 483.823813882 169.989938711 l 1
 501.942954507 153.989938711 l 1
 508.520923477 148.181302103 l 1
 504.979389239 136 l 2
 488.622798701 100.057071843 466.517265269 63.7618715869 435.079886303 31.0000000001 c 0
 415.354339292 11.6436656815 384.168326956 -9 355.08984375 -9 c 0
 312.728412531 -9 300.812902027 37.7087666765 300.128508133 62 c 0
 300.112907547 62.5492181007 300.10546875 63.1034659563 300.10546875 63.6630859375 c 0
 300.10546875 120.638802052 365.03125 335.717239317 365.03125 381.1328125 c 0
 365.03125 401.460021292 354.770605022 415 331.545898438 415 c 0
 276.866386156 415 182.319090093 286.220483638 169.269835948 235.202035703 c 0
 149.290652338 152.694935683 142.277304138 116.049464521 128.779519687 36 c 0
 127.177675272 27.8001272904 129.479745568 10.4347832009 118.317308145 3.46389583683e-14 c 2
 114.749058782 3.5527136788e-15 l 1
 133.4609375 0 l 1
 96.4609375 0 l 1
 20.4609375 0 l 1
 38.8287831192 0 l 1
 35.2300603861 2.6645352591e-14 l 2
 23.0785739567 13.0853507941 33.3905261406 37.1807017792 34.992694165 43.9622024085 c 0
 51.0742238099 119.31987242 76.9854928329 222.450049959 98.2135192568 296.285867813 c 0
 103.296795534 313.640258986 107.699576377 339.712866453 111.145869014 361 c 2
 111.21508706 360.566468157 l 1
 111.316714494 361 l 2
EndSplineSet
Fore
SplineSet
110 361 m 1xd0
 112.602025598 373.86440678 105.113131059 394 97.8740234375 394 c 3
 90.2946697743 394 74.1782381082 378.262295082 67 362 c 1
 24.880859375 382 l 1xe0
 47 440 129.951784089 504 159.860351562 504 c 3
 177.381173858 504 200.058164188 493.509954665 205.5390625 482 c 0
 208.380859375 474.952148438 212.508905925 459.991907901 213.485351562 440.49609375 c 0
 214.016993807 429.881269947 211.937607024 405.829431791 208 386 c 1
 239.661338862 427.989460735 313.558148867 504 374 504 c 3
 457.915432394 504 463.439625061 438.813181951 450.23046875 372 c 0
 428.772105858 263.461538462 412.867971347 199.111646323 399.860351562 123 c 0
 397.127360529 107.008415807 395.250963277 88 398.125 88 c 3
 402.456419612 88 409.500253836 89.0521131664 417.608398438 98 c 0
 428.946914444 110.512820513 441.175201641 127.538461539 446.880859375 134 c 1
 495 118 l 1
 480.696746446 88.0333333333 461.949265378 57.7319925768 434.29296875 31 c 0
 413.601434778 11 380.673999993 -9 355.08984375 -9 c 3
 313.974806248 -9 295.10546875 33.7812289089 295.10546875 63.6630859375 c 3
 295.10546875 116.469177075 360.03125 331.407065897 360.03125 381.1328125 c 3
 360.03125 398.584516613 352.130190638 415 331.545898438 415 c 3
 282.218764106 415 188.014645969 287.754328371 176.600585938 238 c 0
 156.58704085 154.531078878 149.44748488 116.881575008 135.943359375 36 c 0
 133.942646991 24.0169383281 133.946617911 6 128.4609375 0 c 1
 120.893369932 0 75.487964527 0 72.4609375 0 c 1
 69.5323660714 0 34.3895089286 0 31.4609375 0 c 1
 26.4771058506 6 31.676938959 29.2687232009 33.7333984375 39 c 0
 49.7363248583 114.726708075 75.6257732256 218.785591749 96.7548828125 293 c 0
 102.164251311 312 106.538085937 339 110 361 c 1xd0
EndSplineSet
Substitution2: "case-1" N
Substitution2: "pcap-1" n.pcap
Substitution2: "smcp-1" n.smcp
EndChar
StartChar: o
Encoding: 111 111 14
Width: 494
VWidth: 1159
Flags: W
HStem: -10 65<168.926 252.853> 433 74<222.578 317.617>
VStem: 25.9262 109.074<94.5032 295.923> 345 108.83<201.003 404.137>
AnchorPoint: "Top" 290.914 553 basechar 0
AnchorPoint: "Horn" 430.638 420.164 basechar 0
AnchorPoint: "Ogonek" 283.999 19 basechar 0
AnchorPoint: "Bottom" 204.616 -15 basechar 0
AnchorPoint: "Middle" 241.335 251.029 basechar 0
LayerCount: 2
Back
SplineSet
304.325589319 507 m 3
 390.625103091 507 447.430962774 437.104917869 453.16505597 343.228490586 c 0
 453.611621485 335.916023162 453.830376231 328.646078486 453.830376231 321.426105443 c 0
 453.830376231 139.922694884 315.583313882 -10 182.964141865 -10 c 3
 96.2612659179 -10 33.1791848686 50.2940705128 26.6160236455 157.76938101 c 0
 26.1522922423 165.363711395 25.9262310412 172.848032625 25.9262310412 180.220953393 c 0
 25.9262310412 387.733733463 205.001905109 507 304.325589319 507 c 3
272.789252727 434.160493827 m 0
 227.560544509 434.160493827 141.108333458 350.456517053 141.108333458 204.50065993 c 0
 141.108333458 197.320088611 141.320047437 190.012338204 141.757834865 182.582962717 c 0
 147.317482271 88.2343857848 182.145378656 55 208.847528091 55 c 0
 254.330079313 55 340.299727741 147.427329844 340.299727741 300.202592984 c 0
 340.299727741 308.083470651 340.068236598 316.089944262 339.589646936 324.212562779 c 0
 334.402748269 412.243140551 297.908066296 434.160493827 272.789252727 434.160493827 c 0
EndSplineSet
Fore
SplineSet
304.325589319 507 m 3
 397.962639284 507 453.830376231 427.673913738 453.830376231 321.426105443 c 0
 453.830376231 139.922694884 315.583313882 -10 182.964141865 -10 c 3
 88.8980131923 -10 25.9262310412 60.2525638476 25.9262310412 180.220953393 c 0
 25.9262310412 387.733733463 205.001905109 507 304.325589319 507 c 3
273 433 m 3
 213.549303879 433 135 340.102062733 135 202 c 3
 135 114.9882538 165.405018634 55 209 55 c 3
 259.965481782 55 345 157.191051959 345 300 c 3
 345 396.821115441 314.040852923 433 273 433 c 3
EndSplineSet
Substitution2: "case-1" O
Substitution2: "pcap-1" o.pcap
Substitution2: "smcp-1" o.smcp
EndChar
StartChar: p
Encoding: 112 112 15
Width: 510
VWidth: 1159
Flags: HMW
HStem: -322 34<61.265 139.962> -1 42<106.949 229.209> 351 46<223.989 344.462>
AnchorPoint: "Bottom" 132.003 -156 basechar 0
AnchorPoint: "Top" 325.428 576.575 basechar 0
LayerCount: 2
Back
SplineSet
45.291015625 70.3681640625 m 0
 74.55859375 195.107421875 105.694335938 316.842773438 108.29296875 357.694335938 c 0
 109.358398438 368.967773438 107.297851562 375.500976562 105.465820312 378.6953125 c 1
 89.9716796875 373.1484375 66.482421875 360.981445312 54.826171875 358.264648438 c 2
 41.22265625 355.15234375 l 1
 40.18359375 379.872070312 l 1
 37.029296875 422.100585938 l 1
 36.3046875 421.168945312 l 1
 45.638671875 423.888671875 l 2
 118.481445312 446.658203125 129.784179688 438.140625 160.78125 538 c 2
 163.239257812 537.231445312 l 1
 170.98046875 538 l 2
 200.600585938 541.170898438 217.349609375 546.915039062 231.825195312 542.764648438 c 0
 259.176757812 535.536132812 244.959960938 502.518554688 235.79296875 470.397460938 c 1
 277.180664062 486.670898438 326.67578125 505.080078125 375.739257812 505.080078125 c 0
 378.741210938 505.080078125 381.7265625 504.961914062 384.688476562 504.728515625 c 0
 457.493164062 498.614257812 510.448242188 421.366210938 500.326171875 321.842773438 c 0
 484.115234375 165.698242188 346.3515625 60.7978515625 231.233398438 36.4013671875 c 0
 201.462890625 30.96875 164.083007812 28.962890625 136.770507812 29.822265625 c 1
 128.1953125 -16.25 117.455078125 -75.7626953125 116.909179688 -93.177734375 c 0
 117.392578125 -95.36328125 133.206054688 -97.767578125 150.811523438 -98.029296875 c 0
 171.29296875 -99.0341796875 205.258789062 -101.036132812 224.21875 -102.033203125 c 2
 237.784179688 -102.74609375 l 1
 235.403320312 -126 l 1
 229.349609375 -160 l 1
 227.543945312 -160.243164062 l 1
 217.251953125 -160 l 2
 174.934570312 -158.998046875 157.995117188 -159 125.923828125 -159 c 0
 96.7880859375 -159 8.123046875 -169.083007812 -22.9765625 -174 c 2
 -37 -176.1953125 l 1
 -36.83203125 -173.716796875 l 1
 -36.4541015625 -141.716796875 l 1
 -36.376953125 -125.064453125 l 1
 -30.7724609375 -121.594726562 l 2
 -23.927734375 -118.3828125 -19.9560546875 -116.3203125 -16.0234375 -112.405273438 c 0
 -11.3603515625 -106.633789062 -3.8701171875 -85.4482421875 6.04296875 -58.775390625 c 0
 14.796875 -34.009765625 32.828125 17.130859375 45.291015625 70.3681640625 c 0
315.022460938 434.21484375 m 0
 264.366210938 434.21484375 234.749023438 414.620117188 217.274414062 395.676757812 c 1
 151.799804688 113.841796875 l 1
 173.541992188 103.359375 197.529296875 96.3662109375 230.2578125 96.3662109375 c 0
 315.5703125 96.3662109375 388.912109375 178.90625 397.998046875 295.733398438 c 2
 398.025390625 296.11328125 l 1
 398.077148438 296.491210938 l 2
 399.30078125 305.381835938 399.91015625 314.369140625 399.916992188 323.28515625 c 0
 399.96875 383.861328125 367.291992188 434.21484375 315.022460938 434.21484375 c 0
EndSplineSet
Fore
SplineSet
44.8137392241 64.9474997799 m 0
 74.1147419335 191.331596447 100.74525425 314.038341604 108.102539062 357.694335938 c 0
 109.793011482 367.725109012 104.949673835 372.138649164 99.0576171875 374.947265625 c 1
 87.632949485 373.774259868 50.2386559809 355.006167763 39.9833984375 352.66015625 c 1
 36.8291015625 421.888671875 l 1
 124.22317898 446.372158441 128.071398594 440.427455357 160 538 c 1
 247.22449053 546.774559984 262.277813198 557.652790203 234.473632812 469.21484375 c 1
 273.480110287 483.394122456 327.834377312 505.080078125 377.572265625 505.080078125 c 3
 453.683533383 505.080078125 517.782806308 419.658452347 497 303 c 0
 469.141920176 146.626484824 336.057114969 57.2286610705 216.6640625 34.3662109375 c 1
 191.965614287 30.3662109375 158.33318773 29.0328776042 137.916992188 30.3662109375 c 1
 129.276013072 -12.0646139706 116.268816335 -73.5161534926 115.736328125 -94 c 1
 116.215949559 -97.5714285714 144.108055481 -98.2008658576 161.056640625 -99 c 0
 182.265326682 -100 217.623610204 -102 237.421875 -103 c 1
 230.368164062 -160 l 1
 176.418596696 -159 154.559842942 -159 113.756835938 -159 c 3
 82.8465753439 -159 -5.06454015281 -169 -37 -174 c 1
 -36.6220703125 -124 l 1
 -28.8997179062 -120.840401786 -21.9459028208 -119.060239291 -16.6416015625 -112.94140625 c 0
 -10.1999474972 -105.510567801 -3.7571007596 -88.8806882707 4.2021484375 -66.705078125 c 0
 13.2026474465 -41.6283966193 32.1512477723 10.3303401022 44.8137392241 64.9474997799 c 0
317 434 m 3
 265.981269638 434 235.225239744 414.885401526 217.982421875 396.639648438 c 1
 152 114 l 1
 171.310223642 103.923549107 194.197301963 96.3662109375 225.090820312 96.3662109375 c 3
 314.320642738 96.3662109375 374 168 395 265 c 0
 416.620823296 364.867612368 375.521813878 434 317 434 c 3
EndSplineSet
Substitution2: "case-1" P
Substitution2: "pcap-1" p.pcap
Substitution2: "smcp-1" p.smcp
EndChar
StartChar: q
Encoding: 113 113 16
Width: 486
VWidth: 1159
Flags: HMW
HStem: -342 36<301.91 370.286> -5 43<124.495 222.88> 369 49<196.948 310.151> 409 20G<411.786 442.286>
AnchorPoint: "Bottom" 282.02 -144 basechar 0
AnchorPoint: "Top" 326.737 552.122 basechar 0
LayerCount: 2
Back
SplineSet
333.229492188 174.10546875 m 1
 351.786132812 248.228515625 366.88671875 319.561523438 378.047851562 377.809570312 c 0
 377.819335938 382.69921875 375.451171875 392.768554688 372.415039062 398.184570312 c 0
 356.82421875 424.697265625 324.94140625 431 298.482421875 431 c 0
 223.995117188 431 147.005859375 335.30859375 134.154296875 218.24609375 c 0
 132.794921875 207.23828125 132.151367188 197.21484375 132.123046875 187.478515625 c 0
 131.940429688 133.05859375 156.217773438 104 196 104 c 0
 250.837890625 104 320.958984375 156.313476562 333.229492188 174.10546875 c 1
310.41015625 82.3828125 m 1
 258.978515625 44.990234375 210.340820312 24.69140625 146.772460938 24.69140625 c 0
 52.568359375 24.69140625 22.896484375 96.5537109375 22.896484375 147.142578125 c 0
 22.896484375 290.790039062 174.99609375 504 350 504 c 0
 408.705078125 504 430.010742188 478 430.137695312 478 c 0
 446.04296875 478 461.8984375 501.021484375 473.021484375 511.122070312 c 2
 478.8203125 514.256835938 l 1
 485.682617188 511.122070312 l 1
 516.592773438 497 l 1
 526.34765625 492.54296875 l 1
 523.010742188 489.532226562 l 2
 520.7578125 482.458984375 514.439453125 468.08984375 511.076171875 459.654296875 c 0
 503.358398438 440.956054688 491.490234375 406.602539062 469.034179688 337.543945312 c 0
 459.991210938 310.4921875 430.528320312 208.91015625 419.005859375 158.9375 c 0
 388.216796875 19.4814453125 379.5078125 -43.3212890625 378.1015625 -71.1669921875 c 0
 376.854492188 -88.83984375 401.415039062 -96.7978515625 420.17578125 -99.9248046875 c 0
 432.7265625 -102.716796875 472.350585938 -108 478.151367188 -108 c 2
 492.209960938 -108 l 1
 490.002929688 -132 l 1
 484.279296875 -168 l 1
 482.604492188 -168.422851562 l 1
 471.951171875 -168 l 2
 446.389648438 -166.982421875 406.674804688 -164 362.524414062 -164 c 0
 332.796875 -164 256.795898438 -170.056640625 225.486328125 -174 c 2
 210.987304688 -175.809570312 l 1
 212.030273438 -172.287109375 l 1
 214.3203125 -140.287109375 l 1
 215.006835938 -119.68359375 l 1
 224.517578125 -118.263671875 l 2
 225.772460938 -118.138671875 226.060546875 -118.056640625 226.060546875 -118.056640625 c 2
 226.529296875 -117.853515625 228.759765625 -116.583007812 232.700195312 -114.787109375 c 0
 243.278320312 -107.395507812 251.750976562 -95.255859375 264.010742188 -70.587890625 c 0
 269.86328125 -57.1875 292.456054688 16.935546875 310.41015625 82.3828125 c 1
EndSplineSet
Fore
SplineSet
328.512695312 173.750976562 m 1xe0
 350.215136315 245.570127083 366.429446249 316.377475389 379.069335938 374.03515625 c 1
 379.069335938 381.156875 376.744837487 390.491631187 367.200195312 403.708984375 c 0
 352.043106301 425.348619368 324.157960635 431 302.637695312 431 c 3
 231.734000012 431 141.820092994 325.101194705 134.231445312 219.602539062 c 0
 129 146 142.903993582 104 195 104 c 3
 251.483254138 104 317.878467662 155.554784866 328.512695312 173.750976562 c 1xe0
304.919921875 78.65625 m 1
 251.880769193 43.3000953748 208.332956899 24.69140625 146.772460938 24.69140625 c 3
 52.5815804148 24.69140625 22.8965517241 94.6201633338 22.8965517241 147.142138323 c 3
 22.8965517241 290.353665232 178.573427284 504 351 504 c 3xe0
 410.182792937 504 419.976946531 479 435.137695312 479 c 3
 447.185763817 479 467.952830403 507.4777309 473.696289062 514.122070312 c 1xd0
 525.606445312 497 l 1
 523.816545611 491.533426359 517.390446369 477.09518136 513.97265625 468.755859375 c 0
 505.958905195 449.202508224 494.904982994 414.29233644 471.614257812 344.91796875 c 0
 461.976125616 316.209574245 431.006696142 211.532021377 419.29296875 158.9375 c 0
 388.43376037 20.3799563171 380.669441417 -42.1962215905 378.1171875 -71.1669921875 c 0
 376.34686264 -91.2620442713 410.961162211 -97.1702349753 429.475585938 -101.309570312 c 0
 444.052047298 -104.568481445 483.405721341 -110 492.151367188 -110 c 1
 484.427734375 -168 l 1
 453.741556803 -167 404.922637939 -164 350.524414062 -164 c 3
 319.614007619 -164 244.055236312 -170.6 212 -175 c 1
 218.290039062 -113 l 5
 225.158691406 -112.599121094 225.587693861 -113.494003003 232.02734375 -109.79296875 c 4
 244.189872742 -102.225923978 255.514404503 -92.4089907322 263.952148438 -70.4443359375 c 0
 269.804425213 -55.9683575752 291.086516583 21.2356158608 304.919921875 78.65625 c 1
EndSplineSet
Substitution2: "case-1" Q
Substitution2: "pcap-1" q.pcap
Substitution2: "smcp-1" q.smcp
EndChar
StartChar: w
Encoding: 119 119 22
Width: 660
VWidth: 1159
Flags: HMW
AnchorPoint: "Top" 385.463 528 basechar 0
AnchorPoint: "Bottom" 186.269 -15 basechar 0
LayerCount: 2
Back
SplineSet
280.938476562 -6.0205078125 m 1
 264.827148438 -1.2060546875 l 1
 265.125 -2.7080078125 l 2
 267.48828125 69.7783203125 286.280273438 156.543945312 297.411132812 267.193359375 c 1
 247.071289062 161.216796875 178.126953125 47.763671875 79.107421875 -12 c 2
 73.3125 -15.1357421875 l 1
 67.23828125 -12 l 1
 44.6865234375 -0.3564453125 l 1
 36.326171875 3.9599609375 l 1
 38.642578125 5.74609375 l 2
 70.1708984375 136.067382812 99.6630859375 252.92578125 99.6630859375 381.165039062 c 0
 99.6630859375 387.422851562 97.7451171875 408.66796875 93.8720703125 413.1953125 c 1
 83.6240234375 411.147460938 61.701171875 392.02734375 49.8837890625 376.8828125 c 2
 41.28125 363.118164062 l 1
 31.095703125 374.380859375 l 1
 10.033203125 397.668945312 l 1
 2.8525390625 405.607421875 l 1
 9.9228515625 413.767578125 l 2
 30.8203125 436.564453125 95.068359375 511 153.686523438 511 c 0
 209.017578125 511 211.815429688 438.2890625 211.815429688 409.434570312 c 0
 211.815429688 374.239257812 197.6640625 253.671875 176.950195312 166.255859375 c 1
 209.075195312 211.880859375 249.2265625 281.607421875 294.748046875 373.798828125 c 0
 312.9765625 412.92578125 331.973632812 455.709960938 351.466796875 501.86328125 c 2
 354.370117188 501.41796875 l 1
 361.797851562 501.86328125 l 1
 400.666992188 504.19140625 l 1
 413.68359375 504.970703125 l 1
 413.381835938 503.63671875 l 2
 409.978515625 359.622070312 389.063476562 221.994140625 377.387695312 121.259765625 c 1
 447.905273438 197.045898438 531.42578125 330.262695312 525.379882812 415.099609375 c 0
 524.086914062 426.615234375 517.143554688 433 511.473632812 433 c 0
 505.30859375 433 505.362304688 433.116210938 496.592773438 428.9453125 c 2
 488.026367188 422.385742188 l 1
 480.596679688 431.471679688 l 1
 461.599609375 451.471679688 l 1
 454.272460938 459.184570312 l 1
 461.052734375 468 l 2
 488.174804688 497.799804688 516.729492188 511.268554688 538.481445312 511.268554688 c 0
 599.85546875 511.268554688 624.142578125 468.283203125 627.98046875 414.638671875 c 0
 636.918945312 279.099609375 492.563476562 134.72265625 406.954101562 67.1416015625 c 0
 375.456054688 41.0322265625 329.551757812 13.1708984375 309.645507812 -10.8359375 c 2
 304.573242188 -13.083984375 l 1
 297.048828125 -10.8359375 l 1
 280.938476562 -6.0205078125 l 1
EndSplineSet
Fore
SplineSet
703.993164062 414.638671875 m 0xa0
 712.650390625 282.192382812 569.181330604 137.232612894 472.362304688 67.1416015625 c 0
 437.348751012 41.7939453125 388.791684497 6.056640625 368.983398438 -12.8359375 c 5
 316.678710938 -1.849609375 l 1
 315.778160027 69.7449359096 331.203020843 159.8568351 340.580078125 287 c 1
 301.662247127 210.064106238 171.514019459 20.5967287042 88.9599609375 -15 c 1
 45.9208984375 3.6435546875 l 1
 71.2928985393 132.67578125 110.376977652 332.991213334 110.392578125 381.165039062 c 0
 110.394425957 386.87109375 110.625405004 412.0546875 101.909179688 412.0546875 c 3
 86.8984375 412.0546875 64.5546875 387.713867188 52.724609375 370.479492188 c 1
 17.662109375 413.767578125 l 1
 40.302734375 438.405273438 106.54296875 511 158.4375 511 c 3
 216.300126699 511 221.985351562 447.127929688 221.985351562 411.434570312 c 4
 221.985351562 373.503661492 190.033628417 212.910722299 169.25 141 c 1
 204.647121646 187.438755163 287.896478975 306.911337648 384.474609375 500.86328125 c 1
 457.9375 503.19140625 l 1
 461.565429688 353.826138924 440.637695312 212.016193803 434.168945312 115 c 1
 507.581054688 176.478642777 611.220801323 322.639738494 601.33984375 416.755859375 c 0
 600.63671875 423.453125 596.852539062 432 584.33203125 432 c 3
 573.469726562 432 568.212890625 430.043945312 557.088867188 423 c 1
 531.448242188 477 l 1
 561.958984375 501.662109375 593.6875 511.268554688 613.469726562 511.268554688 c 3
 674.78125 511.268554688 700.202303521 472.634775762 703.993164062 414.638671875 c 0xa0
EndSplineSet
Substitution2: "case-1" W
Substitution2: "pcap-1" w.pcap
Substitution2: "smcp-1" w.smcp
EndChar
StartChar: uni0082
Encoding: 130 130 1451
Width: 477
VWidth: 1159
Flags: W
HStem: -23 54<298.757 376.007> -9 55<98.4558 210.79> 357 50<189.832 290.284> 659 30<326.3 371.405> 748 20G<470 509>
VStem: 31.1217 69.6452<81.7189 228.754>
AnchorPoint: "TopRight" 527.5 581 basechar 0
AnchorPoint: "Top" 394 734 basechar 0
AnchorPoint: "Bottom" 192 -15 basechar 0
LayerCount: 2
Fore
SplineSet
278 83 m 1xbc
 233.193103448 35.5104761905 191.379310345 -9 121 -9 c 3x7c
 64.9047704957 -9 31.1220703125 44.300260745 31.1220703125 119.672851562 c 3
 31.1220703125 238.975044841 143.202264757 412 302 412 c 3
 325.736263736 412 354.087912088 387.595744681 362 360 c 1
 388.877247098 467.50898839 408.04208313 587.999969965 408.04208313 617.481718844 c 3
 408.04208313 656.667196729 391.548841429 668 376 668 c 3
 371 668 336 660 327 659 c 1
 324 689 l 1
 376 700 447 734 493 768 c 1
 509 750 l 1
 504 705 434.281543266 393.383258667 372 189 c 0
 356.351374347 137.647433302 345.44140625 96.2601192872 345.44140625 68.447265625 c 3
 345.44140625 54.4181468062 349.264176005 43 360 43 c 3
 377 43 413 65 438 87 c 1
 453 69 l 1
 416 27 348 -11 316 -11 c 3
 285.514588008 -11 272.798828125 9.43828536917 272.798828125 40.1328125 c 3
 272.798828125 53.5350168622 274.488819713 67.957902206 278 83 c 1xbc
263 362 m 7
 160.720542286 362 100.766601562 246.043561114 100.766601562 160.091796875 c 3
 100.766601562 97.1020698802 122.782012768 45 163 45 c 3
 206.615633672 45 263.212765958 90.0058479533 296 143 c 1
 308.916666667 192.777777778 320.541666667 229.044444444 327 271 c 1
 330.719358722 321.707367835 295.52742659 362 263 362 c 7
EndSplineSet
Validated: 33
EndChar
StartChar: uni0083
Encoding: 131 131 1452
Width: 477
VWidth: 1159
Flags: W
HStem: -23 54<298.757 376.007> -9 55<98.4558 210.79> 357 50<189.832 290.284> 659 30<326.3 371.405> 748 20G<470 509>
VStem: 31.1217 69.6452<81.7189 228.754>
AnchorPoint: "TopRight" 527.5 581 basechar 0
AnchorPoint: "Top" 394 734 basechar 0
AnchorPoint: "Bottom" 192 -15 basechar 0
LayerCount: 2
Fore
SplineSet
277 66 m 1xbc
 230.048275862 27.2857142857 195.344827586 -9 129 -9 c 3x7c
 67.9115138919 -9 31.121682937 44.3002758199 31.121682937 119.672887955 c 3
 31.121682937 210.146192029 72.3178261361 302.488369602 153 363 c 0
 197 396 244 407 271 407 c 3
 307 407 350 375 362 360 c 1
 388.877247098 467.50898839 408.04208313 587.999969965 408.04208313 617.481718844 c 3
 408.04208313 656.667196729 391.548841429 668 376 668 c 3
 371 668 336 660 327 659 c 1
 324 689 l 1
 376 700 447 734 493 768 c 1
 509 750 l 1
 504 705 434.281543268 393.383258666 372 189 c 0
 356.351374347 137.647433302 345.44140625 96.2601192872 345.44140625 68.447265625 c 3
 345.44140625 54.4181468062 349.264176005 43 360 43 c 3
 377 43 413 65 438 87 c 1
 453 69 l 1
 416 27 348 -11 316 -11 c 3
 285.514588008 -11 272.798828125 9.43828536917 272.798828125 40.1328125 c 3
 272.798828125 48.2200548261 274.163894556 56.9232028803 277 66 c 1xbc
236 357 m 3
 215 357 190.759399832 346.310957011 170 330 c 0
 121.740717283 292.081992151 100.766884047 229.922414631 100.766884047 163.091671284 c 3
 100.766884047 99.0074132586 130.564817815 46 185 46 c 3
 225.244680851 46 255.170212766 75.6666666667 282 103 c 1
 300.75 168.333333333 317.625 215.933333333 327 271 c 1
 331 302 312.893467851 318.416191672 298 330 c 0
 280 344 246 357 236 357 c 3
EndSplineSet
Validated: 33
EndChar
StartChar: uni0085
Encoding: 133 133 1434
Width: 452
VWidth: 1159
Flags: W
HStem: -10 51<315 426.037> -8 68<54.3748 136.592> 8 34<315 327.185> 367 54<407.028 455.433>
VStem: 3.10645 71.2207<71.8037 178.154> 233.53 61.4697<49.9346 212.225> 470 60<309.116 352.057>
LayerCount: 2
Fore
SplineSet
438 421 m 3x9e
 491 421 528 377 530 327 c 1
 530 320.368421053 532 311.368421053 538 309 c 1
 533 282 l 1
 479.834301098 252.423798077 359.477876106 208.376388889 305 160 c 1
 305.206736203 155.433198283 305.4921875 149.081483591 305.4921875 144.0625 c 3
 305.4921875 79.556640625 335.932617188 41 376 41 c 3
 420 41 450 59 478 82 c 1
 493 65 l 1
 457 28 411 -10 343 -10 c 3
 265.127929688 -10 233.530273438 49.5966796875 233.530273438 125.344726562 c 3
 233.530273438 299.10546875 373.66015625 421 438 421 c 3x9e
413 367 m 3
 371.242650612 367 324.131302352 282.000546329 307 187 c 1
 336.02189781 223.210526316 434.456765528 263.304510352 449 273 c 0
 458 279 470 284 470 300 c 1
 470 337.415584416 447 367 413 367 c 3
292 323 m 1
 282.652173913 328 257.413043478 333 249 333 c 3
 220.818181818 333 189.942833797 317.32006205 169 303 c 0
 126.832799052 274.167372099 74.3271484375 218.973605778 74.3271484375 144.540039062 c 3
 74.3271484375 99.8446187443 94.9002487578 60 115 60 c 3x5e
 168.810168551 60 215.033057851 126.621359223 251 154 c 1
 262.176470588 201.330935252 264.48961707 257.93888783 289 307 c 0
 292.375 313.755555556 295.75 321.222222222 292 323 c 1
309 236 m 0
 298.109592014 171.486971227 295 97.3642578125 295 78 c 3
 295 50.2725360577 315 42 345 42 c 3
 348.648331421 42 355.948717949 36 359 36 c 1
 361 20 l 1
 347.555555556 15.4157303371 327.185185185 8 306 8 c 3x3e
 295.102564103 8 294.356061554 13.5467957538 281 26 c 0
 255 50.2424242424 264.837837838 79.5714285714 255 126 c 1
 203.288888889 84.4788732394 147.75 -8 76 -8 c 3
 32.7496460404 -8 3.1064453125 40.3117318989 3.1064453125 98.2998046875 c 3
 3.1064453125 161.483196197 51.1063966958 229.402187023 89 269 c 0
 117.708860759 299 151.52073843 320.517263946 173 333 c 0
 222.700483575 361.883582251 284.837990128 376.364585666 360 390.045898438 c 0
 368.756193334 391.583859247 374.95065642 394.508473397 382 400.181889342 c 0
 388.268115483 405.226561363 397.401236409 399.440987738 406 399 c 1
 395 386 l 1
 342.494413642 324.043524749 320.933283037 306.690853171 309 236 c 0
EndSplineSet
Validated: 5
EndChar
StartChar: uni0088
Encoding: 136 136 1429
Width: 587
VWidth: 1159
Flags: W
HStem: 353 46<503.406 554.928> 395 20G<375.248 382.581>
VStem: 341 70<269.962 371.091>
AnchorPoint: "Top" 374 465 basechar 0
AnchorPoint: "Bottom" 172 -15 basechar 0
LayerCount: 2
Fore
SplineSet
583 333 m 3xa0
 583 228.598236603 452.288267127 113.773413782 376 57 c 0
 347.04 35.4480874317 303.62 11.865497076 282 -11 c 1
 262 -5 l 1
 269.240506329 67.3760683761 297.544303797 158.47008547 314 287 c 1
 258.43153527 180.484320557 178.165975104 49.4668989547 66 -12 c 1
 47 -2 l 1
 75.8027696233 102.700972569 103.006835938 197.666528361 103.006835938 306.432617188 c 3
 103.006835938 317.36645443 102.262397929 344 96 344 c 3
 81.2895411243 344 57.7528083312 320.581317883 45 304 c 1
 28 324 l 1
 48.5283555728 346.80506462 108.621244642 414 152 414 c 3
 178.593257664 414 183.626953125 391.987731024 183.626953125 363.965820312 c 3
 183.626953125 270.939886354 167.680481185 159.622058506 150 87 c 1
 187.649963559 120.038961039 261.874177432 233.61038961 348.908203125 405 c 1
 383 407 l 1
 372.115233208 276.178055696 351.714882282 151.972261874 341 67 c 1
 408.719839516 120.832143721 514.172851562 248.495007554 514.172851562 331.223632812 c 3
 514.172851562 346.5024302 510.874405571 366 499 366 c 3
 489.512751741 366 484.659037932 364.043478261 474 357 c 1
 458 377 l 1
 482.661978283 405.978313253 506.385076169 417.265625 520.748046875 417.265625 c 3
 566.902390969 417.265625 583 383.52125915 583 333 c 3xa0
EndSplineSet
Validated: 1
EndChar
StartChar: uni008A
Encoding: 138 138 1431
Width: 400
VWidth: 1159
Flags: W
HStem: 399 20G<312 326.5> 661 28<71.25 113.112> 749 20G<212 251>
VStem: 2 71<-4.80307 91.9913> 147 68<159.271 186>
LayerCount: 2
Fore
SplineSet
122 214 m 1
 191.030273438 230.662109375 316.899414062 273.567382812 316.899414062 336.72265625 c 3
 316.899414062 357.671875 296.88671875 372.5625 277.14453125 372.5625 c 3
 232.133789062 372.5625 164.78125 312.709960938 116 212 c 1
 109 237 l 1
 150 328 209 375 259 401 c 0
 284 415 305 419 319 419 c 3
 359.932617188 419 384.995117188 386.326171875 384.995117188 351.640625 c 3
 384.995117188 269.779296875 293.594726562 226.248046875 215 207 c 1
 231 120 241 64 409 -70 c 1
 404.162109375 -86.9326171875 364.880859375 -97.51953125 344 -101 c 1
 283 -70 179.836914062 63.1279296875 147 186 c 1
 110 173 l 1
 85.6064453125 95.75390625 81.9228515625 54.689453125 67 -5 c 1
 61 -5 36 -5 29 -5 c 0
 23 -5 3 -6 -3 -6 c 1
 -2 50.87109375 66.4423828125 197.30859375 83 273 c 0
 147 528 150 611 148 641 c 0
 147 657 141 669 124 669 c 3
 119 669 81 662 72 661 c 1
 69 689 l 1
 121 700 189 735 235 769 c 1
 251 752 l 1
 245 676 160.284179688 355.172851562 122 214 c 1
EndSplineSet
Validated: 37
EndChar
StartChar: uni008B
Encoding: 139 139 1432
Width: 725
VWidth: 1361
Flags: W
HStem: -254.02 59.6455<674.282 941.943> -25.6992 44.9053<100.902 275.031> 86.7422 55.6533<97.9479 189.897> 185.552 50.6641<262.575 412.449> 350.963 44.9248<378.281 449.123> 686.139 30.8617<388.479 550.513>
VStem: 48.335 48.1797<25.8235 84.8145> 99.9463 98.4639<303.473 483.316> 450.107 67.9482<270.607 349.488> 662.058 93.0394<344.088 573.948>
LayerCount: 2
Fore
SplineSet
342.427734375 236.215820312 m 3
 382.755103596 236.215820312 450.107421875 261.711668124 450.107421875 324 c 3
 450.107421875 330.885505548 442.674742691 350.962890625 420 350.962890625 c 3
 408.592952325 350.962890625 395.192487191 347.734599233 379 348 c 1
 376 379 l 1
 393.15961914 382.559452998 410.547649628 395.887695312 429 395.887695312 c 3
 477.742110849 395.887695312 518.055664062 374.316096289 518.055664062 330 c 3
 518.055664062 216.542140273 375.558890011 185.551757812 301.360351562 185.551757812 c 3
 179.333062422 185.551757812 99.9462890625 258.048712731 99.9462890625 380.587890625 c 3
 99.9462890625 569.322948607 290.661477578 717.000879441 502.211256867 717.000879441 c 3
 659.539323801 717.000879441 755.097147274 613.707685202 755.097147274 456.42303704 c 3
 755.097147274 184.237427704 437.904948649 -25.69921875 155.967773438 -25.69921875 c 3
 100.034090027 -25.69921875 48.3349609375 3.06105802241 48.3349609375 59.810546875 c 3
 48.3349609375 112.062013814 94.1251957428 142.395507812 145.319335938 142.395507812 c 3
 346.58158559 142.395507812 474.652763081 -194.374023438 804.157226562 -194.374023438 c 3
 904.489923781 -194.374023438 988.954929702 -182.291421576 1079 -156 c 1
 1082 -186 l 1
 979.885558813 -228.610488588 881.183241263 -254.01953125 757.670898438 -254.01953125 c 3
 441.456402601 -254.01953125 260.359513328 86.7421875 130.428710938 86.7421875 c 3
 111.662130023 86.7421875 96.5146484375 74.9607357935 96.5146484375 56.1220703125 c 3
 96.5146484375 29.1657960643 128.432365873 19.2060546875 159.881835938 19.2060546875 c 3
 425.935143636 19.2060546875 662.057759661 206.174832605 662.057759661 472.009320596 c 3
 662.057759661 597.494170243 595.369913258 686.139142554 472.395769558 686.139142554 c 3
 301.388491804 686.139142554 198.41015625 551.61833755 198.41015625 404.11328125 c 3
 198.41015625 304.636147265 243.781619861 236.215820312 342.427734375 236.215820312 c 3
EndSplineSet
Validated: 37
EndChar
StartChar: uni008C
Encoding: 140 140 1433
Width: 725
VWidth: 1361
Flags: W
HStem: -260 55<621.32 905.446> 684 32<406.163 558.177>
AnchorPoint: "Top" 500 699 basechar 0
AnchorPoint: "Bottom" 256 -15 basechar 0
LayerCount: 2
Fore
SplineSet
485 684 m 3
 357 684 235 567 192 392 c 0
 148 214 198 46 349 46 c 3
 478 46 599 171 643 347 c 0
 696 560 615 684 485 684 c 3
1084 -187 m 17
 1034 -210 860 -260 726 -260 c 3
 508 -260 349 -159 279 -2 c 1
 125 25 44 173 92 364 c 0
 146 582 326 716 503 716 c 3
 681 716 793 567 743 367 c 0
 699 189 541 33 374 1 c 1
 455 -153 629 -205 790 -205 c 3
 899 -205 1031 -178 1080 -156 c 9
 1084 -187 l 17
EndSplineSet
Validated: 33
EndChar
StartChar: uni008D
Encoding: 141 141 1456
Width: 771
VWidth: 1361
Flags: W
HStem: -254.02 59.6455<690.793 941.943> -25.6992 44.9053<201.236 355.793> 86.7422 55.6533<197.948 281.778> 185.552 50.6641<262.575 412.449> 350.963 44.9248<378.281 449.123> 674.139 30.8623<371.187 530.237>
VStem: 99.9463 98.4639<303.473 486.697> 148.335 48.1797<26.8054 84.8145> 450.107 67.9482<270.607 349.488> 658.058 93.0391<318.456 551.365>
AnchorPoint: "Top" 485 699 basechar 0
AnchorPoint: "Bottom" 256 -15 basechar 0
LayerCount: 2
Fore
SplineSet
342.427734375 236.215820312 m 3xfec0
 382.755103596 236.215820312 450.107421875 261.711668124 450.107421875 324 c 3
 450.107421875 330.885505548 442.674742691 350.962890625 420 350.962890625 c 3
 408.592952325 350.962890625 395.192487191 347.734599233 379 348 c 1
 376 379 l 1
 393.15961914 382.559452998 410.547649628 395.887695312 429 395.887695312 c 3
 477.742110849 395.887695312 518.055664062 374.316096289 518.055664062 330 c 3
 518.055664062 216.542140273 375.558890011 185.551757812 301.360351562 185.551757812 c 3
 179.333062422 185.551757812 99.9462890625 258.048712731 99.9462890625 380.587890625 c 3xfec0
 99.9462890625 562.590740158 281.179258186 705.000976562 482.2109375 705.000976562 c 3
 629.290878926 705.000976562 751.096679688 601.707670301 751.096679688 444.422851562 c 3
 751.096679688 179.012033801 488.964603988 -25.69921875 255.967773438 -25.69921875 c 3
 200.034090027 -25.69921875 148.334960938 3.06105802241 148.334960938 59.810546875 c 3
 148.334960938 112.062013814 194.125195743 142.395507812 245.319335938 142.395507812 c 3
 416.033517162 142.395507812 524.665743234 -194.374023438 804.157226562 -194.374023438 c 3
 904.489923781 -194.374023438 988.954929702 -182.291421576 1079 -156 c 1
 1082 -186 l 1
 979.885558813 -228.610488588 881.183241263 -254.01953125 757.670898438 -254.01953125 c 3
 491.869863643 -254.01953125 339.644898625 86.7421875 230.428710938 86.7421875 c 3
 211.662130023 86.7421875 196.514648438 74.9607357935 196.514648438 56.1220703125 c 3xfdc0
 196.514648438 29.1657960643 228.432365873 19.2060546875 259.881835938 19.2060546875 c 3
 470.835763918 19.2060546875 658.057617188 201.220049154 658.057617188 460.009765625 c 3
 658.057617188 585.494078647 573.815935802 674.138671875 452.395507812 674.138671875 c 3
 293.871331905 674.138671875 198.41015625 545.341856042 198.41015625 404.11328125 c 3
 198.41015625 304.636147265 243.781619861 236.215820312 342.427734375 236.215820312 c 3xfec0
EndSplineSet
Validated: 37
EndChar
StartChar: uni008E
Encoding: 142 142 1435
Width: 575
VWidth: 1159
Flags: W
HStem: -26 65<86.4636 156.601> -15 51<349.577 447.233> 234 27<349.894 492.597> 367 54<399.985 477.681>
VStem: -4 71.2207<58.8373 150.276> 248.424 74.3174<78.0261 232.354> 493.667 61.9648<274.245 352.292>
AnchorPoint: "Top" 351.413 465 basechar 0
AnchorPoint: "Bottom" 237.413 -15 basechar 0
LayerCount: 2
Fore
SplineSet
434.801757812 367 m 0x3e
 412.116210938 367 380.893554688 345 349.893554688 261 c 1
 376.346679688 259.75 460.9765625 263.895507812 471.98046875 265 c 0
 482.987304688 266.104492188 493.666992188 270 493.666992188 278 c 0
 493.666992188 341 469.9140625 367 434.801757812 367 c 0x3e
460.620117188 421 m 0
 515.354492188 421 553.56640625 362 555.631835938 312 c 0
 555.631835938 298 557.697265625 279 563.893554688 274 c 1
 558.729492188 247 l 1
 508.893554688 240 421.893554688 238 340.729492188 234 c 1
 331.907226562 217.3984375 322.741210938 162.30859375 322.741210938 139.0625 c 0
 322.741210938 74.556640625 354.178710938 36 395.557617188 36 c 0
 440.998046875 36 471.98046875 54 500.896484375 77 c 1
 516.387695312 60 l 1
 479.208984375 23 431.703125 -15 361.477539062 -15 c 0x7e
 300.69140625 -15 267.20703125 19.046875 254.48046875 68.380859375 c 1
 205.2421875 18.91796875 131.233398438 -26 93.8935546875 -26 c 0xbe
 41.7431640625 -26 -4 8.220703125 -4 67.2998046875 c 0
 -4 126.043945312 24.9443359375 165.0625 40.8935546875 184 c 0
 65.6064453125 213.342773438 99.3369140625 232.192382812 119.893554688 244 c 0
 159.715820312 266.875 267.693359375 264.21484375 296.965820312 291.489257812 c 1
 345.438476562 371.9140625 418.6015625 421 460.620117188 421 c 0
268.809570312 233.120117188 m 1
 252.690429688 234.677734375 224.127929688 236 216.893554688 236 c 0
 185.893554688 236 139.669921875 227.30859375 118.893554688 212 c 0
 99.8935546875 198 67.220703125 158.080078125 67.220703125 113.540039062 c 0
 67.220703125 66.201171875 97.7421875 39 148.893554688 39 c 0xbe
 176.545898438 39 220.91015625 67.646484375 250.041992188 92.287109375 c 1
 248.952148438 101.318359375 248.423828125 110.700195312 248.423828125 120.344726562 c 0
 248.423828125 161.021484375 256.129882812 198.90234375 268.809570312 233.120117188 c 1
EndSplineSet
Validated: 33
EndChar
StartChar: uni0093
Encoding: 147 147 1440
Width: 492
VWidth: 1159
Flags: W
HStem: -11 73<318.5 374.755> 346 65<295.711 391.5>
VStem: 33 17<275.412 284.988> 49 65<0 38.5218>
AnchorPoint: "Bottom" 206 -15 basechar 0
AnchorPoint: "Top" 304 465 basechar 0
LayerCount: 2
Fore
SplineSet
116 268 m 1xd0
 123 291 110 327 95 327 c 3
 85 327 59 297 50 266 c 1
 33 282 l 1xe0
 51 346 121 393 163 413 c 1
 173 411 184.152923188 400.541230437 188 389 c 0
 192 377 197 342 188 301 c 1
 227 338 301 411 360 411 c 3
 423 411 425.479541107 345.03382196 408 279 c 0
 390 211 374.584992799 171.075959675 366 123 c 0
 361 95 355 62 372 62 c 3
 381 62 399.955351004 79.1941887549 415 98 c 0
 427 113 440 130 446 137 c 1
 463 121 l 1
 447 90 425.722665365 59.4157319993 398 31 c 0
 378 11 347 -9 324 -9 c 3
 313 -9 305.314822283 0.513883287762 301 6 c 0
 297.041572097 11.0329761111 292 20 290 25 c 1
 286 35 285.453219356 49.9708258418 286 62 c 0
 287 84 300.593069325 126.813051364 306 145 c 0
 317 182 338.125817169 243.965523525 343 262 c 0
 353 299 349 346 313 346 c 3
 266 346 223 313 179 255 c 1
 159 200 131.909175083 120.364225584 127 86 c 0
 126 79 124.280624847 70.9643739324 123 62 c 0
 122 55 119.6401844 43.0420283963 119 36 c 0
 118 25 115 12 114 0 c 1
 109 0 79 0 77 0 c 1
 75 0 51 0 49 0 c 1
 47 6 49 29 49 39 c 1
 49 44 52 60 52 62 c 0
 52 67 57.696159519 86.0884785569 59 90 c 0
 64 105 92 182 98 200 c 1
 119 266 111 246 116 268 c 1xd0
EndSplineSet
Validated: 33
EndChar
StartChar: uni0094
Encoding: 148 148 1441
Width: 696
VWidth: 1159
Flags: W
HStem: -11 73<528 583.373> 346 53<501.358 599> 362 56<292.403 377>
VStem: 32 17<275.412 284.988> 50 63<0.266968 30.8002> 493 75<62.0058 150.361>
AnchorPoint: "Bottom" 295 -15 basechar 0
AnchorPoint: "Top" 401 465 basechar 0
LayerCount: 2
Fore
SplineSet
573 125 m 0xdc
 571 110.348837209 568 94.7209302326 568 83 c 0
 568 71 570 63 579 63 c 3
 601 63 636 116.28 652 137 c 1
 670 121 l 1
 648 80.3106060606 590 -10 531 -10 c 3
 525 -10 520.727128425 -5.86356421253 515 -3 c 0
 511 -1 511.219604581 4.42431633517 508 7 c 0
 503 11 499 21 497 26 c 1
 493 36 492.4465653 50.9711301431 493 63 c 0
 494 84.734939759 507.651662987 127.010139139 513 145 c 0
 524 182 545.277741379 243.925148036 550 262 c 0
 559.425475595 298.07682038 558.4 345 528 345 c 0xdc
 484.366666667 345 415.066666667 273.444444444 374 184 c 1
 369.443899814 165.206086734 368.166797944 161.500551365 364 144 c 0
 354 102 352.469323992 90.2239159246 347 68 c 0
 344.836030076 59.206978098 343.386750491 49.9337524529 342 43 c 0
 341 38 339.461643536 33.0780788932 339 28 c 0
 338 17 335 8 330 1 c 1
 326 0 299 -2 293 -2 c 1
 289 -2 268 -2 266 -1 c 1
 262 1 268 26 268 31 c 0
 268 32 271 43 271 44 c 0
 271 50 278.53454814 72.0583859248 280 79 c 0
 281.9 88 295.93065839 137.155254674 298 144 c 0
 311 187 326.965803686 234.390441631 333 267 c 0
 340.496689177 307.513054363 341 349 310 349 c 3
 255.578947368 349 195.368421053 248.578947368 156 190 c 1
 139.76 141.473988439 129.530659115 97.7759320333 127 75 c 0
 126 66 123.775907135 54.8795356773 122 46 c 0
 121 41 119.91214034 36.0167718704 119 31 c 0
 117 20 115 8 113 1 c 1
 112 -1 82 0 77 0 c 1
 71 0 54 2 50 4 c 1
 48 6 50 27 50 31 c 0
 50 32 53 46 53 47 c 0
 53 52 56.6534815345 73.0150376472 57 77 c 0
 59 100 74.6684623558 142.123793369 89 180 c 0
 103 217 112.031605368 250.992594435 116 268 c 0
 123 298 110 327 95 327 c 3
 85 327 58 297 49 266 c 1
 32 282 l 1
 50 346 120 393 162 413 c 1
 172 411 183.152923188 400.541230437 187 389 c 0
 189.349399914 381.951800259 192.043779824 366.969060585 192.043779824 347.496388872 c 3
 192.043779824 321.163606825 187.813401238 290.565070011 176 258 c 1
 209.466666667 309.333333333 290.133333333 412 352 412 c 3xbc
 396.21082502 412 410.711774896 372.126220201 410.711774896 327.635714634 c 3
 410.711774896 309.256963121 408.017857697 290.628481561 403 272 c 1
 437.408536585 311.134831461 505.182926829 401 574 401 c 3
 624 401 632.747543683 346.046276137 615 279 c 0
 597 211 579.542694734 172.92904282 573 125 c 0xdc
EndSplineSet
Validated: 33
EndChar
StartChar: uni0095
Encoding: 149 149 1442
Width: 696
VWidth: 1159
Flags: W
HStem: -11 73<528 583.373> 346 53<501.358 599> 362 56<292.403 377>
VStem: 32 17<275.412 284.988> 50 63<0.266968 30.8002> 493 75<62.0058 150.361>
AnchorPoint: "Bottom" 295 -15 basechar 0
AnchorPoint: "Top" 401 465 basechar 0
LayerCount: 2
Fore
SplineSet
573 125 m 0xdc
 571 110.348837209 568 94.7209302326 568 83 c 0
 568 71 570 63 579 63 c 3
 601 63 636 116.28 652 137 c 1
 670 121 l 1
 648 80.3106060606 590 -10 531 -10 c 3
 525 -10 520.727128425 -5.86356421266 515 -3 c 0
 511 -1 511.219604581 4.42431633513 508 7 c 0
 503 11 499 21 497 26 c 1
 493 36 492.4465653 50.9711301431 493 63 c 0
 494 84.734939759 507.651662987 127.010139139 513 145 c 0
 524 182 545.125817169 243.965523525 550 262 c 0
 560 299 556 346 520 346 c 0xdc
 486 346 432 306 400 256 c 1
 396 245 393.302172887 238.90651866 391 232 c 0
 384 211 370.23980033 173.951041582 364 144 c 0
 354 96 349.469323992 90.2239159246 347 68 c 0
 346 59 343.386750491 49.9337524528 342 43 c 0
 341 38 339.461643536 33.0780788932 339 28 c 0
 338 17 335 8 330 1 c 1
 326 0 299 -2 293 -2 c 1
 289 -2 268 -2 266 -1 c 1
 262 1 268 26 268 31 c 0
 268 32 271 43 271 44 c 0
 271 50 277.219131191 71.972180715 278 79 c 0
 279 88 295.348774045 137.293957878 298 144 c 0
 315 187 323.147717318 234.628214044 333 267 c 0
 347 313 341 362 310 362 c 3
 263 362 211 290 177 248 c 1
 149 175 130.81268742 109.314186784 127 75 c 0
 126 66 123.775907135 54.8795356774 122 46 c 0
 121 41 119.91214034 36.0167718704 119 31 c 0
 117 20 115 8 113 1 c 1
 112 -1 82 0 77 0 c 1
 71 0 54 2 50 4 c 1
 48 6 50 27 50 31 c 0
 50 32 53 46 53 47 c 0
 53 52 56.6534815345 73.0150376472 57 77 c 0
 59 100 74.6684623558 142.123793369 89 180 c 0
 103 217 112.031605368 250.992594435 116 268 c 0
 123 298 110 327 95 327 c 3
 85 327 58 297 49 266 c 1
 32 282 l 1
 50 346 120 393 162 413 c 1
 172 411 183.152923188 400.541230437 187 389 c 0
 191 377 196 342 187 301 c 1
 224 340 294 418 352 418 c 3xbc
 402 418 414 364 410 310 c 1
 443 337.606741573 508 401 574 401 c 3
 624 401 632.611488397 346.082143131 615 279 c 0
 597 211 579.542694734 172.92904282 573 125 c 0xdc
EndSplineSet
Validated: 33
EndChar
StartChar: uni0099
Encoding: 153 153 1446
Width: 491
VWidth: 1159
Flags: W
HStem: -18 56<288.5 380.569> -10 70<80 170> 341 75<121 180> 387 20G<432.5 440>
AnchorPoint: "Ogonek" 378 23 basechar 0
AnchorPoint: "Bottom" 200 -15 basechar 0
AnchorPoint: "Top" 319 465 basechar 0
LayerCount: 2
Fore
SplineSet
393 399 m 1x60
 397.891304348 402.2 427.239130435 407 438 407 c 1
 442 407 468 406 468 400 c 1
 452 323 400.336025289 287.91364628 366 155 c 0
 359 127.903225806 352 89.9677419355 351 71 c 1
 349 55 353 47 362 47 c 3
 373 47 402 61.2372881356 441 103 c 1
 458 87 l 1
 432 51.3875 403.10154934 26.3134683373 377 10 c 0
 361 -1.11880990583e-14 339 -9 318 -9 c 3x90
 259 -9 281 74.3591549296 295 124 c 1
 248 85.5820895522 158 -8 93 -8 c 3
 67 -8 48 11 44 41 c 1
 42 66.5873015873 56.8496150976 121.439350011 70 165 c 0
 86 218 109.836873887 266.184369435 121 322 c 0
 123 332 125 340 121 341 c 1
 110 341 65 290 51 276 c 1
 37 292 l 1
 63 335 133 416 180 416 c 3
 210 416 217 396 211 369 c 1
 204 322 180.160776296 312.876910333 145 194 c 0
 124 123 115 60 157 60 c 3
 183 60 261 125 307 177 c 1
 319 215 342.430318313 288.820818519 346 298 c 0
 353 316 364.394537909 343.262110456 372 360 c 0
 379.35 375.810810811 387.75 389.513513514 393 399 c 1x60
EndSplineSet
Validated: 33
EndChar
StartChar: uni009A
Encoding: 154 154 1447
Width: 452
VWidth: 1159
Flags: W
HStem: -16 53<294.5 362.839> -10 65<80.9248 170.294> 406 20G<382 405> 406 20G<382 405>
VStem: 19.1064 71.2207<76.4066 192.266> 260 69<37.2478 82>
AnchorPoint: "Top" 320 465 basechar 0
AnchorPoint: "Ogonek" 364 23 basechar 0
AnchorPoint: "Bottom" 177 -15 basechar 0
LayerCount: 2
Fore
SplineSet
305 337 m 1x4c
 295 339 268 341 259 341 c 3
 228 341 192.115046807 323.837614307 171 309 c 0
 130.7578125 280.721679688 90.3271484375 221.791992188 90.3271484375 144.540039062 c 3
 90.3271484375 97.201171875 110.848632812 55 162 55 c 3
 193 55 235 82 263 108 c 5
 273 151 285.650846785 199.081353094 297 247 c 0
 306 285 315 327 305 337 c 1x4c
339 150 m 0
 331.999023438 116.518554688 330 78.0498046875 330 68 c 3
 330 47.974609375 336 42 345 42 c 3
 362 42 406 78 423 96 c 1
 439 78 l 1
 406 44 356 -11 304 -11 c 3x9c
 287 -11 271.886212952 -6.03588144764 265 16 c 0
 260 32 258 50 260 82 c 5
 211 30 146 -10 107 -10 c 3
 54.849609375 -10 19.1064453125 39.220703125 19.1064453125 98.2998046875 c 3
 19.1064453125 164.444335938 58.06401033 238.1822337 93 277 c 0
 120 307 151.443587761 329.191985208 172 341 c 0
 215.231445312 365.833007812 271.327090062 378.335995617 338 390.045898438 c 0
 355.969504616 393.201920171 366.024857955 405.305332031 380 419 c 1
 432 424 l 1x5c
 375.221052632 310.826086957 361.821166082 259.139863184 339 150 c 0
EndSplineSet
Validated: 33
EndChar
StartChar: uni009B
Encoding: 155 155 1448
Width: 452
VWidth: 1159
Flags: W
HStem: -16 53<294.5 362.839> -10 65<80.9248 170.294> 406 20G<382 405> 406 20G<382 405>
VStem: 19.1064 71.2207<76.4066 192.266> 260 69<37.2478 82>
AnchorPoint: "Top" 320 465 basechar 0
AnchorPoint: "Ogonek" 361 23 basechar 0
AnchorPoint: "Bottom" 177 -15 basechar 0
LayerCount: 2
Fore
SplineSet
314 352.954101562 m 1x4c
 304 354.954101562 277 356.954101562 268 356.954101562 c 3
 237 356.954101562 201.206419101 339.660827537 180 324.954101562 c 0
 135.268325882 293.932528779 90.3271484375 229.286129357 90.3271484375 144.540039062 c 3
 90.3271484375 97.201171875 107.985416974 55 152 55 c 3
 194.04950495 55 262.052129144 136.065333411 289 214 c 0
 301.400913159 249.86409619 327 340 314 352.954101562 c 1x4c
336 150 m 0
 326.510708506 117.137039088 327 78.0498046875 327 68 c 3
 327 47.974609375 333 42 342 42 c 3
 359 42 403 78 420 96 c 1
 436 78 l 1
 403 44 353 -11 301 -11 c 3x9c
 284 -11 268.886153023 -6.03590017549 262 16 c 0
 258.682150333 26.6172203591 257.190429688 38.1106695961 257.190429688 54 c 3
 257.190429688 68.9605196232 259.072276898 86.6511627907 261 106 c 1
 211.679738562 40.4347826087 146.254901961 -10 107 -10 c 3
 54.849609375 -10 19.1064453125 39.220703125 19.1064453125 98.2998046875 c 3
 19.1064453125 164.444335938 60.3142511813 236.269370507 93 277 c 0
 123.075949367 314.478485107 157.305565126 343.343543737 181 356.954101562 c 0
 224.231445312 381.787109374 279.644955629 399.240063498 347 406 c 0
 361.118896484 407.417011073 369.01953125 412.851279301 380 419 c 1
 432 424 l 1x5c
 373.389473685 310.826086957 367.217818479 258.112386375 336 150 c 0
EndSplineSet
Validated: 33
EndChar
StartChar: section
Encoding: 167 167 980
Width: 428
Flags: W
HStem: -149.775 33<85.9715 176.483> 602.225 40<245.024 351.453>
VStem: 75.5933 57.0007<260.327 438.035> 198.593 77.001<-22.7754 25.1511> 305.594 54.999<47.7023 194.216>
LayerCount: 2
Fore
SplineSet
153.594 482.225 m 1
 139.594 443.225 132.594 417.133 132.594 374.225 c 27
 132.594 209.7 272.485 91.9824 275.594 -22.7754 c 1
 292.293 13.0047 305.594 37.7593 305.594 79.2246 c 27
 305.594 247.188 175.308 352.024 153.594 482.225 c 1
75.5933 297.225 m 3
 75.5933 465.236 165.581 642.225 333.593 642.225 c 27
 369.312 642.225 393.593 624.225 411.593 594.225 c 1
 414.913 563.477 371.839 554.506 339.594 555.225 c 1
 320.014 575.368 307.109 602.225 277.594 602.225 c 27
 242.425 602.225 219.593 562.971 219.593 522.225 c 3
 219.593 446.271 360.593 333.253 360.593 171.225 c 3
 360.593 30.0972 265.477 -149.775 105.593 -149.775 c 27
 66.35 -149.775 39.5933 -138.775 15.5933 -104.775 c 1
 1.85264 -79.3207 44.2746 -51.1816 81.5938 -53.7754 c 1
 102.593 -77.7752 110.423 -116.775 141.593 -116.775 c 27
 179.27 -116.775 198.593 -76.4522 198.593 -38.7752 c 3
 198.593 45.4388 75.5933 99.1339 75.5933 297.225 c 3
EndSplineSet
Validated: 33
Position2: "cpsp-1" dx=0 dy=0 dh=10 dv=20
EndChar
StartChar: ordfeminine
Encoding: 170 170 1240
Width: 306
VWidth: 1159
Flags: HW
HStem: 304 34<-2.00003 306> 371.24 37.1094<56.7891 150.202 213.656 274.744> 406.438 20G<277.932 290.69> 503.503 27.6035<104.623 183.978> 643.547 42.7354<95.4408 170.059>
VStem: 30.7051 47.9912<408.825 487.579> 39.5449 55.709<604.285 642.343> 182.357 50.0957<425.14 503.534 528.359 613.626>
LayerCount: 2
Fore
SplineSet
183.977539062 503.534179688 m 1xdd
 180.646484375 503.434570312 179.2421875 503.502929688 175.567382812 503.502929688 c 1
 152.840820312 503.201171875 123.647460938 498.500976562 115.176757812 494.86328125 c 0
 90.724609375 484.630859375 78.6962890625 474.545898438 78.6962890625 451.326171875 c 3
 78.6962890625 427.439453125 88.1943359375 408.349609375 105.0390625 408.349609375 c 3
 123.461914062 408.349609375 156.658203125 421.44140625 182.564453125 436.5390625 c 1
 182.08203125 446.467773438 182.357421875 458.23828125 182.357421875 471.330078125 c 1
 182.357421875 483.66796875 183.665039062 494.657226562 183.977539062 503.534179688 c 1xdd
157.731445312 686.282226562 m 3
 174.266601562 686.282226562 220.842773438 653.05078125 229.099609375 639.864257812 c 0
 235.338867188 629.9921875 235.907226562 613.166992188 235.907226562 603.034179688 c 1
 235.907226562 556.356445312 232.453125 503.93359375 232.453125 459.249023438 c 1
 232.453125 445.865234375 233.936523438 434.0234375 236.037109375 424.615234375 c 0
 239.323242188 413.55859375 245.327148438 411.580078125 247.250976562 411.580078125 c 3
 254.05859375 411.580078125 274.65234375 422.235351562 281.211914062 426.438476562 c 1xbb
 294.829101562 397.704101562 l 1
 280.755859375 392.073242188 228.498046875 369.431640625 218.510742188 369.431640625 c 3
 208.80078125 369.431640625 192.500976562 380.510742188 185.5703125 408.61328125 c 1
 148.163085938 387.00390625 116.986328125 371.240234375 76.78515625 371.240234375 c 1
 36.79296875 371.240234375 30.705078125 400.427734375 30.705078125 431.106445312 c 1xdd
 30.705078125 448.985351562 31.4404296875 471.754882812 36.7138671875 482.626953125 c 1
 40.712890625 492.665039062 45.302734375 496.274414062 52.3759765625 499.758789062 c 1
 97.568359375 519.692382812 132.154296875 525.344726562 184.615234375 531.106445312 c 1
 185.06640625 551.171875 185.518554688 583.376953125 185.518554688 583.416015625 c 1
 185.518554688 600.42578125 182.471679688 607.67578125 178.106445312 613.918945312 c 1
 172.994140625 621.473632812 148.099609375 643.546875 131.2890625 643.546875 c 3
 103.706054688 643.546875 95.25390625 633.372070312 95.25390625 624.969726562 c 3
 95.25390625 618.619140625 99.4912109375 607.528320312 99.9404296875 605.274414062 c 1
 46.166015625 584.28125 l 1
 44.6708984375 588.7890625 39.544921875 603.643554688 39.544921875 612.970703125 c 3xdb
 39.544921875 624.888671875 45.4677734375 637.025390625 60.0732421875 647.205078125 c 0
 88.9267578125 667.34765625 140.744140625 686.282226562 157.731445312 686.282226562 c 3
EndSplineSet
Refer: 331 8722 N 0.782521 0 0 0.62963 -28.7624 184.37 2
Position2: "cpsp-1" dx=0 dy=0 dh=7 dv=14
EndChar
StartChar: paragraph
Encoding: 182 182 77
Width: 605
VWidth: 1159
UnlinkRmOvrlpSave: 1
Flags: W
HStem: -8 21G<335.141 437.704> 686 55<384.014 530>
VStem: 290 38<57 490.2> 298 40<235.8 673>
LayerCount: 2
Fore
SplineSet
298 673 m 25xd0
 338 681 l 25xd0
 328 45 l 25
 290 57 l 25xe0
 298 673 l 25xd0
530 741 m 1
 532 686 l 1
 490 683 342 681 274 638 c 0
 223.677265889 606.178271077 206 581.006849235 206 289 c 3
 206 149 231.183524335 116.392422813 262 89 c 0
 280.613636364 72.619047619 375.75 53.1666666667 444 46 c 1
 434 -8 l 1
 236.281690141 35.3043478261 198.544797859 69.7754876614 144 131 c 0
 86 197 57.718337988 279.143475457 41 343 c 0
 35.5443009018 363.838314408 32.1187943776 378.508865382 40 399 c 0
 70 477 121.142297883 586.795128918 222 657 c 0
 324 728 530 741 530 741 c 1
EndSplineSet
Position2: "cpsp-1" dx=0 dy=0 dh=10 dv=20
EndChar
StartChar: Thorn
Encoding: 222 222 319
Width: 587
VWidth: 1159
Flags: W
HStem: -9 35<49 91.6309> 178 45<203.142 405.091> 519 42<202.8 387.894> 652.244 37.7988<214.407 312> 661 31<29.871 95.7781>
VStem: 117 86.1416<54.7783 182.945 226.958 514.181 554.895 640.551> 479 87<299.251 431.707>
LayerCount: 2
Fore
SplineSet
314 652.244140625 m 1xf6
 283.541 652.769147191 253.069 648.465093362 225 641 c 0
 207.498 636.345 204 622 203 604 c 0
 202.239883251 587.238492476 201.659794154 570.91028451 201.219726562 554.89453125 c 1
 237.961809061 557.525733262 273.918889796 561 323 561 c 3
 456 561 566 478 566 375 c 3
 566 258.263 431.193 178 306 178 c 3
 265.719843969 178 242.812755235 181.861243996 203.141601562 182.9453125 c 1
 204.31965455 145.320541563 206.446750223 106.414148259 212 75 c 0
 215.801 58.8486 223.212 38.1826 320 36.1611 c 1
 316 -10.61 l 1
 220.463 11.9565 171.172 11.0439 49 -9 c 1
 39 26 l 1
 92 36 117 49 117 77 c 1
 121 155.005597015 120 534.902985075 114 620 c 0
 113 647 99 647 26 661 c 1
 31 692 l 1xee
 117.191 682.668930841 220 680.999824348 312 690.04296875 c 1
 314 652.244140625 l 1xf6
203.073242188 226.958007812 m 1
 242.562147428 225.396004729 263.367097504 223 304 223 c 3
 450 223 479 311 479 364 c 3
 479 424 418 519 302 519 c 3
 280.518940027 519 230.748801075 516.599942869 201.26171875 510.466796875 c 1
 199.976347343 417.947865711 201.340741584 313.533943398 203.073242188 226.958007812 c 1
EndSplineSet
Validated: 33
Position2: "cpsp-1" dx=0 dy=0 dh=10 dv=20
EndChar
StartChar: dotlessi
Encoding: 305 305 51
Width: 277
VWidth: 1159
Flags: HMW
HStem: 354 75<141 212>
VStem: 60 202
AnchorPoint: "Top" 207 559 basechar 0
LayerCount: 2
Back
SplineSet
199.026367188 242.4375 m 0
 187.263671875 191.283203125 176.97265625 116.61328125 181.149414062 94.306640625 c 0
 181.227539062 91.1103515625 184.143554688 99.43359375 185.911132812 104.821289062 c 0
 193.505859375 107.46875 226.778320312 141.479492188 246.34765625 168.938476562 c 2
 254.240234375 174.162109375 l 1
 264.590820312 173.076171875 l 1
 284.590820312 154.138671875 l 1
 291.2421875 147.840820312 l 1
 286.920898438 136.7109375 l 2
 260.04296875 88.5390625 183.983398438 -11 135.33984375 -11 c 0
 128.853515625 -11 121.075195312 -8.69921875 115.759765625 -7.248046875 c 2
 114.982421875 -7.005859375 l 1
 114.245117188 -7.248046875 l 2
 92.3388671875 1.5478515625 81.7138671875 22.734375 77.443359375 46.7451171875 c 0
 76.384765625 55.4091796875 75.33984375 63.6083984375 75.33984375 72.783203125 c 0
 75.33984375 79.37890625 76.33984375 84.380859375 76.33984375 87.7890625 c 2
 76.33984375 88.607421875 l 1
 76.3525390625 88.8798828125 l 2
 78.509765625 136.15625 102.857421875 197.822265625 114.70703125 248.3046875 c 0
 121.188476562 271.796875 143.202148438 348.50390625 149.388671875 409.040039062 c 0
 149.447265625 408.040039062 149.592773438 404.775390625 149.59765625 404.666015625 c 1
 133.07421875 389.7890625 109.92578125 362.73046875 102.014648438 352.287109375 c 2
 92.1025390625 338.77734375 l 1
 82.50390625 352.736328125 l 1
 67.50390625 374.19921875 l 1
 63 380.643554688 l 1
 67.1103515625 387.947265625 l 2
 93.1865234375 428.520507812 170.258789062 507 225.33984375 507 c 0
 268.252929688 507 269.693359375 471.482421875 264.299804688 445.408203125 c 0
 261.921875 429.809570312 255.459960938 419.1875 253.91015625 413.357421875 c 2
 253.811523438 412.287109375 l 1
 253.69140625 411.935546875 l 2
 238.169921875 367.694335938 203.168945312 259.333007812 199.026367188 242.4375 c 0
EndSplineSet
Fore
SplineSet
199 245.162109375 m 0
 189 200.400103857 180 130.945913089 181 113.999023438 c 1
 182 105 184.857142857 103.040364584 190 107.423828125 c 1
 196.468085106 112.000777756 216.484848485 131.716901507 228 148.6484375 c 1
 270 115 l 1
 216.310810811 33.8 164.16014482 -11 133 -11 c 3
 88.9913865398 -11 72 29.967779147 72 72.783203125 c 3
 72 126.962573505 95.8359921096 188.052301212 111 245.3515625 c 0
 116.758530255 267.110950393 138.067162804 339.618213091 145 398 c 0
 145.25 400.105263158 145 401.789473684 144 402 c 1
 140.897959184 402 104.727272727 360.333333334 96 347 c 5
 64 388.947265625 l 5
 90.6842105263 429.884907383 171.763157894 507 220 507 c 3
 264.886363636 507 268.156733654 482.296130674 265 448.813476562 c 0
 264.2 440.32808431 259.528090578 426.711122373 257 419.720703125 c 0
 240.428571429 373.899072266 203.201494864 263.968843002 199 245.162109375 c 0
EndSplineSet
Substitution2: "case-1" I
EndChar
StartChar: kgreenlandic
Encoding: 312 312 346
Width: 525
VWidth: 1159
Flags: W
HStem: -18 25.8994<461.79 501> -7 21G<208 227.941> -5 33<33.5758 85.0934> 374 27<269 299.949> 395 20G<145.5 187>
VStem: 105 64<41.8162 177 211 337.203>
LayerCount: 2
Fore
SplineSet
179 185 m 1x94
 169 177 l 1
 169 124.725 171 73.9876 175 54 c 0
 177 39 186 38 196 33 c 0
 206 29 216 28 230 27 c 1
 225 -7 l 1x44
 191 -1 172 4 130 4 c 3
 100 4 64 -3 34 -5 c 1
 32 28 l 1
 43 29 54 31 64 33 c 0
 87 40 94 48 96 76 c 0
 101 128 105 170 105 235 c 3
 105 251.155 103 276 101 308 c 0
 100 324 94 338 77 338 c 3
 71 338 51 335 41 334 c 1
 36 363 l 1
 88 374 124 381 167 415 c 1x2c
 187 399 l 1
 181 385 174.291 357.97 173 347 c 0
 171 325.982 168 264.163 167 211 c 1
 202.172 243.143 253.931 289.428 287 328 c 0
 292.772 334.732 301 348 301 355 c 3
 301 373 277 372 267 374 c 1
 269 401 l 1
 295 399 330 399 357 399 c 3
 390 399 433 399 465 403 c 1
 467 373 l 1
 404 365.731 362.85 347.417 333 319 c 2
 243.5 236.952 l 17
 355.5 173.635 404.57 9.25076 505.9 7.89941 c 1
 501 -18 l 5
 315.95 -45.3387 265.5 174.952 179 185 c 1x94
EndSplineSet
Validated: 33
MultipleSubs2: "case-2" K quoteleft
EndChar
StartChar: Eng
Encoding: 330 330 469
Width: 863
VWidth: 1159
Flags: W
HStem: -10 44<32 96.238> 665 37<780.205 840> 673 38<608.263 685.298>
VStem: 105 55<63.5964 311.035> 113 56<364.701 560>
LayerCount: 2
Fore
SplineSet
755 0 m 3xc8
 755 -92 694 -151 625 -200 c 0
 600 -217 575 -235 550 -251 c 9
 525 -218 l 1
 548 -207 567 -196 583 -182 c 0
 588 -178 593 -175 597 -171 c 0
 643.129 -130.678 660.071 -79.1809 670.66 -21 c 0
 683 46.8 658.328 97.5469 612 139.091 c 0
 467.896 283.034 321.026 422.806 169 560 c 1xc8
 160 154 l 2
 158 49 194 41 285 31 c 1
 277 -15 l 1
 182 16 100 -3 32 -10 c 1
 27 34 l 1
 85 34 103 45 105 93 c 0xd0
 114 250 115 416 113 581 c 0
 112 624 77 659 20 658 c 1
 22 702 l 1xc8
 61 698 113 695 154 694 c 0
 169 694 170 690 177 683 c 0
 326.792 523.458 481.299 370.2 644 223.228 c 0
 667.155 202.311 690.86 176.949 707 154 c 1
 716 285.255 718 416.51 717 555 c 0
 716 677 664 666 605 673 c 1
 609 711 l 1xa8
 701 697 769 698 840 702 c 1
 845 665 l 1
 796 659 775 661 771 619 c 0
 756 449 751 268 753 86 c 0
 753 63 755 43 755 0 c 3xc8
EndSplineSet
Validated: 33
Position2: "cpsp-1" dx=0 dy=0 dh=10 dv=20
EndChar
StartChar: eng
Encoding: 331 331 468
Width: 499
VWidth: 1159
Flags: W
HStem: -7 21G<208.5 230.353> -5 33<20.3636 70.2898> 335 29<32 79.6511> 338 61<245.574 353.747> 396 20G<129 175>
VStem: 95 75<72.7464 318.176 330 331.265> 379 69<-91.4785 313.154>
LayerCount: 2
Fore
SplineSet
379 143 m 3x16
 379 187 376 253 374 271 c 0
 369 310 348 338 293 338 c 3
 245 338 203 326 170 308 c 1
 168 224 161 107 161 71 c 3
 161 41 174 37 194 32 c 0
 203 30 222 28 232 27 c 1
 228 -7 l 1x96
 189 -1 159 4 117 4 c 3
 87 4 51 -1 21 -5 c 1
 18 28 l 1
 29 30 35 31 46 33 c 0
 69 39 81 49 87 76 c 0
 94 107 95 167 95 199 c 3
 95 219 93 288 86 308 c 0
 77 334 72 336 54 336 c 3
 44 336 41 335 32 335 c 1
 30 364 l 1
 67 371 104 375 154 416 c 1x6e
 175 401 l 1
 170 383 167 357 167 330 c 1
 215 361 267 399 330 399 c 3
 403 399 448 359 448 288 c 3
 448 255 446 219 446 183 c 3
 446 80.0143 445 -34.4143 445 -84 c 3
 445 -134 433 -165 419 -186 c 0
 397 -220 363 -249 329 -267 c 0
 314 -274 282 -298 262 -316 c 1
 244 -294 l 1
 269 -273 288 -258 316 -225 c 0
 337 -199 353 -166 362 -140 c 0
 371.562 -110.021 379 -38.072 379 143 c 3x16
EndSplineSet
Validated: 1
Substitution2: "case-1" Eng
EndChar
StartChar: OE
Encoding: 338 338 347
Width: 1081
VWidth: 1159
Flags: W
HStem: -7 49<336.528 518.419> 334 36<614 882.393> 650 44<298.396 500.529>
VStem: 37 93<266.365 448.041> 533 81<87.3014 334 370 605.156> 906 36<250 306.348> 947 30<539 621.889> 1007 28<152.034 171.75>
LayerCount: 2
Fore
SplineSet
385 650 m 3
 244 650 130 535.515933333 130 377 c 3
 130 202.722537538 273 42 443 42 c 3
 495.7 42 533 62.631 533 92 c 1
 537 161.67328125 534.279 500.831760417 531 577 c 0
 528.17 641.262 448.642 650 385 650 c 3
424 -7 m 3
 210 -7 37 145.659140762 37 336 c 3
 37 527.127628169 212 694 422 694 c 3
 507.490017004 694 461.789007914 684.96875 696.956054688 684.96875 c 3
 838.863027557 684.96875 966.475003159 689.186881304 983 693 c 1
 1015 665 988 672 977 539 c 1
 947 536 l 1
 936 572 955 619 919 630 c 0
 856 648 737 653 656 643 c 0
 638 641 625 627 624 609 c 0
 620 526.970338983 615 445.953389831 614 370 c 1
 678 372 838 372 852 373 c 0
 889 378 894 404 910 448 c 1
 944 441 l 1
 927 377 931 314 942 250 c 1
 906 241 l 1
 886 312 893 325 852 329 c 0
 808 334 707 333 614 334 c 1
 613 236.227091633 617 147.525896414 629 81 c 0
 633 64 642 50 659 49 c 0
 752 40 823 32 899 58 c 0
 958 78 968 101 1007 177 c 1
 1035 170 l 1
 1019 104 1008 62 996 0 c 1
 886.301 -0.545565 771.508 3.06988 667.928 3.06988 c 3
 487.932 3.06988 491.022 -7.00001 424 -7 c 3
EndSplineSet
Validated: 33
Position2: "cpsp-1" dx=0 dy=0 dh=10 dv=20
EndChar
StartChar: florin
Encoding: 402 402 1251
Width: 463
VWidth: 1159
Flags: W
HStem: -326 36<-10.0642 19.5771> 328 36<39.7824 144.979> 335 34<210.216 405.86> 344 42<226.12 431.249> 697 57<314.825 412.882>
VStem: 144.979 63.0156<108.711 328 369 526.352> 144.979 49.3672<115.3 269.946>
LayerCount: 2
Fore
SplineSet
395.108398438 754 m 3xcc
 426.108398438 754 500.76171875 728 524.853515625 706 c 1
 523.6484375 679 515.631835938 672 467.286132812 646 c 1
 428.756835938 664 386.119140625 697 349.119140625 697 c 3
 267.119140625 697 247.518554688 623 224.0859375 498 c 0
 221.4921875 488 213.469726562 417 210.215820312 369 c 1xac
 246.042000004 370.214285714 395.421313235 384.785714286 431.249023438 386 c 1
 433.151367188 344 l 1x9c
 398.808456143 345.5 242.33705167 333.5 207.994140625 335 c 1xac
 201.09765625 256 201.091796875 192 194.345703125 55 c 0xaa
 189.008789062 -53.3828125 184.502929688 -124 174.249023438 -172 c 0
 170.200195312 -193 164.432617188 -216 159.681640625 -232 c 0
 154.6484375 -246 135.287109375 -279 130.551757812 -288 c 0
 107.470703125 -323 l 1
 97.330078125 -322 98.189453125 -321 56.189453125 -321 c 3
 35.189453125 -321 3.751953125 -325 -8.1083984375 -326 c 1
 -18.1669921875 -290 l 1
 5.9892578125 -284 31.1787109375 -264 40.1943359375 -257 c 0
 54.6484375 -246 78.8701171875 -212 90.3564453125 -187 c 0
 114.626953125 -132 122.524414062 -53 128.264648438 20 c 0
 134.459960938 104 140.767578125 237 144.978515625 328 c 1
 108.446443088 326.625 73.9604038352 322.5 38.1025390625 317 c 1
 37.2001953125 359 l 1
 73.61737791 356.5 110.501762715 366.5 146.918945312 364 c 1
 149.032226562 413 151.475585938 481 151.7890625 493 c 0
 154.09765625 626 204.162109375 654 267.556640625 701 c 0
 304.76171875 728 338.108398438 754 395.108398438 754 c 3xcc
EndSplineSet
Validated: 33
EndChar
StartChar: uni0237
Encoding: 567 567 53
Width: 307
VWidth: 1159
Flags: HMW
HStem: 353 75<133 203>
AnchorPoint: "Top" 242.741 560 basechar 0
LayerCount: 2
Back
SplineSet
-73.3876953125 -131.67578125 m 2
 -27.2587890625 -91.7451171875 2.916015625 -61.1552734375 34.2548828125 -11.6376953125 c 0
 46.60546875 9.154296875 78.0087890625 66.8154296875 86.154296875 86.9970703125 c 0
 91.6162109375 103.166015625 110.715820312 163.323242188 122.807617188 218.138671875 c 0
 142.079101562 316.846679688 150.201171875 350.25 159.567382812 403.259765625 c 1
 159.283203125 398.194335938 l 1
 137.678710938 385.90234375 106.693359375 363.186523438 96.6337890625 354.68359375 c 2
 87.560546875 346.784179688 l 1
 79.6845703125 357.069335938 l 1
 62.607421875 376.78125 l 1
 56.134765625 384.251953125 l 1
 62.2275390625 392.49609375 l 2
 94.6474609375 432.307617188 188.325195312 507 252.208007812 507 c 0
 300.438476562 507 299.12890625 474.00390625 294.56640625 448.515625 c 0
 292.520507812 433.70703125 280.723632812 417.6484375 279.1875 413.9921875 c 0
 262.764648438 371.818359375 239.9921875 297.278320312 229.625 257.30078125 c 0
 217.947265625 206.793945312 204.624023438 150.53515625 199.8984375 118.073242188 c 0
 190.743164062 64.0009765625 174.149414062 2.841796875 166.90625 -18.8056640625 c 0
 148.352539062 -69.0498046875 109.856445312 -114.4921875 68.771484375 -136.64453125 c 0
 41.5390625 -151.768554688 -13.2353515625 -163.8125 -43.19140625 -174 c 2
 -51.4677734375 -176.881835938 l 1
 -56.732421875 -174 l 1
 -75.029296875 -149.649414062 l 1
 -81.6826171875 -139.016601562 l 1
 -73.3876953125 -131.67578125 l 2
EndSplineSet
Fore
SplineSet
-81.6826171875 -138.649414062 m 1
 -34.3519048003 -101.11940323 0.70084492279 -66.4916191921 30.294921875 -24.134765625 c 0
 45.2299020032 -2.75890830935 76.5775427585 55.2955434184 86.20703125 78.52734375 c 0
 92.943976441 94.7806853123 114.110789862 157.462219699 126.321289062 215.749023438 c 0
 146.013452826 309.749544271 159.769803201 372.789557385 162 392 c 0
 162.514974415 396.435880478 162 395.937304687 156.57421875 396.14453125 c 1
 151.95755597 396.14453125 108.490904851 364.974431818 98 355 c 1
 62 392 l 1
 95.0528766555 431.879032257 186.211506622 507 253.9609375 507 c 3
 298.955078123 507 296.596304153 485.851422347 291.456054688 452.1328125 c 0
 290.236246744 444.131210938 279.400572035 430.369523219 276.818359375 423.555664062 c 0
 260.455476722 380.377819133 236.343961614 302.369280216 226.70703125 260.096679688 c 0
 214.975643382 208.636696656 202.399637732 151.541765803 196.791992188 117.938476562 c 0
 187.85583496 64.3893936823 171.725130027 1.59940148223 164.296875 -18.9091796875 c 0
 141.088094985 -85.5752950109 101.480222924 -126.827404582 57.591796875 -147.64453125 c 0
 33.4394090922 -159.100474447 -7.11203125 -170.433553886 -43.3857421875 -174 c 1
 -81.6826171875 -138.649414062 l 1
EndSplineSet
EndChar
StartChar: uni02BB
Encoding: 699 699 1457
Width: 137
VWidth: 1159
Flags: W
HStem: 449 232
VStem: 81.3633 70.7783<482.896 596.714>
LayerCount: 2
Fore
SplineSet
181.188476562 681 m 1
 198 666 l 1
 170.686523438 641 129.512695312 590.860351562 131.981445312 553 c 0
 133.155273438 535 138.299804688 519.813476562 148.69140625 514 c 0
 152.266601562 512 153.204101562 507 152.141601562 502 c 0
 151.078125 497 148.157226562 493.21875 143.802734375 491 c 0
 128.102539062 483 115.25390625 471.284179688 104.36328125 456 c 0
 101.513671875 452 95.8759765625 449 90.8759765625 449 c 3
 85.8759765625 449 82.7373046875 452.107421875 81.36328125 456 c 0
 76.3974609375 470.071289062 63.294921875 493.31640625 71.0927734375 530 c 0
 78.7744140625 566.139648438 106.465820312 615.150390625 181.188476562 681 c 1
EndSplineSet
Validated: 33
EndChar
StartChar: dotaccent
Encoding: 729 729 1256
Width: 268
VWidth: 1159
Flags: HW
HStem: 552 102<212.006 285.493>
VStem: 199 100<565.417 641.146>
LayerCount: 2
Back
SplineSet
256 666 m 0
 290.040041481 666 315.889041737 637.370478417 310.88732392 602.3584537 c 0
 306.116984496 566.580908015 275.331664552 540 242 540 c 0
 208.019585933 540 182.193108008 567.744785761 187.105265192 604.585964641 c 0
 191.918431844 640.684714529 222.973616964 666 256 666 c 0
EndSplineSet
Fore
SplineSet
256 666 m 1
 290.534883721 666 316.11627907 638.72 311 604 c 1
 306.157894737 567.076923077 274.684210526 540 242 540 c 1
 207.465116279 540 181.88372093 565.941176471 187 603 c 1
 191.842105263 640.058823529 223.315789474 666 256 666 c 1
EndSplineSet
EndChar
StartChar: tildecomb
Encoding: 771 771 101
Width: 0
VWidth: 1159
Flags: W
HStem: 421.645 21G<-252.389 -215.599> 434.053 60<-104.274 -19.7566> 471.391 59.4463<-185.338 -104.274>
VStem: -252.389 294.189
AnchorPoint: "Top" -124 389 mark 0
AnchorPoint: "TopMark" -123.315 389 mark 0
AnchorPoint: "TopMark" -72.1445 538 basemark 0
LayerCount: 2
Fore
SplineSet
-252.388671875 435.353515625 m 1xb0
 -213.055664062 489.608398438 -162.302734375 530.836914062 -155.278320312 530.836914062 c 3xb0
 -115.55078125 530.836914062 -77.978515625 494.052734375 -39.310546875 494.052734375 c 3
 -29.7109375 494.052734375 -4.13671875 518.275390625 13.33984375 547.82421875 c 1
 41.80078125 534.5390625 l 1
 11.3046875 483.78125 -36.970703125 434.052734375 -48.7314453125 434.052734375 c 3x50
 -86.671875 434.052734375 -134.6875 471.390625 -170.577148438 471.390625 c 3
 -182.40234375 471.390625 -207.311523438 440.771484375 -223.88671875 421.64453125 c 1
 -252.388671875 435.353515625 l 1xb0
EndSplineSet
Validated: 1
EndChar
StartChar: uni0305
Encoding: 773 773 111
Width: 0
VWidth: 1159
Flags: W
HStem: 761 33<-364.23 161.756>
LayerCount: 2
Fore
SplineSet
-371.244140625 761 m 1
 -364.23046875 794 l 1
 168.76953125 794 l 1
 161.755859375 761 l 1
 -371.244140625 761 l 1
EndSplineSet
Validated: 1
EndChar
StartChar: uni0307
Encoding: 775 775 50
Width: 0
VWidth: 1159
Flags: W
HStem: 451 102<-126.919 -55.6741>
VStem: -143.509 104.425<467.528 536.472>
AnchorPoint: "TopMark" -118.415 405 mark 0
AnchorPoint: "TopMark" -83.9316 539 basemark 0
AnchorPoint: "Top" -124 389 mark 0
LayerCount: 2
Fore
SplineSet
-80.4560546875 553 m 0
 -52.4560546875 553 -33.1328125 531 -39.083984375 503 c 0
 -45.4609375 473 -75.13671875 451 -102.13671875 451 c 0
 -130.13671875 451 -149.885742188 471 -143.508789062 501 c 0
 -137.1328125 531 -107.456054688 553 -80.4560546875 553 c 0
EndSplineSet
Validated: 33
EndChar
StartChar: uni030A
Encoding: 778 778 99
Width: 0
VWidth: 1159
Flags: W
HStem: 425.265 31.6064<-131.984 -64.3948> 545.129 31.6064<-118.623 -51.4016>
VStem: -169.045 155.071
AnchorPoint: "TopMark" -119.304 382 mark 0
AnchorPoint: "TopMark" -79.043 562 basemark 0
AnchorPoint: "Top" -114.54 395 mark 0
LayerCount: 2
Fore
SplineSet
-82.12890625 545.12890625 m 4
 -105.491210938 545.12890625 -131.168945312 526.092773438 -136.685546875 500.134765625 c 4
 -142.204101562 474.17578125 -125.116210938 456.87109375 -100.888671875 456.87109375 c 4
 -77.52734375 456.87109375 -51.849609375 475.907226562 -46.33203125 501.865234375 c 4
 -41.1826171875 526.092773438 -57.90234375 545.12890625 -82.12890625 545.12890625 c 4
-75.4111328125 576.735351562 m 0
 -33.8310546875 576.735351562 -5.1357421875 544.064453125 -13.9736328125 502.485351562 c 0
 -23.443359375 457.934570312 -67.51171875 425.264648438 -107.607421875 425.264648438 c 0
 -149.1875 425.264648438 -178.514648438 454.96484375 -169.044921875 499.514648438 c 0
 -159.575195312 544.064453125 -115.505859375 576.735351562 -75.4111328125 576.735351562 c 0
EndSplineSet
Validated: 33
EndChar
StartChar: uni030B
Encoding: 779 779 103
Width: 0
VWidth: 1159
Flags: W
HStem: 432.981 247.172
VStem: -262.202 31.3643<453.32 485.66>
AnchorPoint: "TopMark" -200.5 408 mark 0
AnchorPoint: "TopMark" -132 648 basemark 0
AnchorPoint: "Top" -198.5 405 mark 0
LayerCount: 2
Fore
SplineSet
-262.202148438 456.548828125 m 17
 -250.314453125 520.91796875 -221.30078125 621.987304688 -195.465820312 680.153320312 c 9
 -195.465820312 680.153320312 -156.318359375 671.521484375 -131.434570312 658.137695312 c 1
 -166.666992188 609.087890625 -202.513671875 531.4296875 -230.837890625 442.080078125 c 9
 -262.202148438 456.548828125 l 17
-173.657226562 452.677734375 m 17
 -150.7734375 514.00390625 -104.650390625 608.5 -69.107421875 661.295898438 c 9
 -69.107421875 661.295898438 -32.0537109375 645.998046875 -9.8720703125 628.495117188 c 1
 -53.0859375 586.309570312 -101.874023438 516.055664062 -145.283203125 432.981445312 c 9
 -173.657226562 452.677734375 l 17
EndSplineSet
Validated: 1
EndChar
StartChar: uni030D
Encoding: 781 781 107
Width: 0
VWidth: 1159
Flags: W
HStem: 434 176.4<-220.2 -175.8>
VStem: -220.2 44.4<434 610.4>
AnchorPoint: "TopMark" -200.5 396 mark 0
AnchorPoint: "TopMark" -198.5 601 basemark 0
AnchorPoint: "Top" -198.5 393 mark 0
LayerCount: 2
Fore
SplineSet
-220.2 610.4 m 1
 -175.8 610.4 l 1
 -175.8 434 l 1
 -220.2 434 l 1
 -220.2 610.4 l 1
EndSplineSet
Validated: 1
EndChar
StartChar: uni033B
Encoding: 827 827 898
Width: 0
VWidth: 1159
Flags: W
HStem: -199.549 31.666<-235.167 -153.167> -87.8828 31.334<-235.167 -153.167>
VStem: -267.5 32.333<-167.883 -87.8828> -153.167 32.334<-167.883 -87.8828>
AnchorPoint: "Bottom" -193 -15 mark 0
LayerCount: 2
Fore
SplineSet
-153.167 -87.8828 m 25
 -235.167 -87.8828 l 25
 -235.167 -167.883 l 25
 -153.167 -167.883 l 25
 -153.167 -87.8828 l 25
-267.5 -56.5488 m 25
 -120.837 -56.5469 l 25
 -120.833 -199.549 l 25
 -267.5 -199.549 l 25
 -267.5 -56.5488 l 25
EndSplineSet
Validated: 1
EndChar
StartChar: uni0370
Encoding: 880 880 981
Width: 587
VWidth: 1159
Flags: W
HStem: -9 35<58 102.359> 332 36<205 468.617> 456 20G<493 535> 661 31<48 107.811>
VStem: 124 81<87.2516 332 368 615.232> 497 36<228 299.2 404.869 470.094>
AnchorPoint: "Top" 195 699 basechar 0
AnchorPoint: "Bottom" 192 -15 basechar 0
LayerCount: 2
Fore
SplineSet
58 -9 m 1
 48 26 l 1
 101 36 122.91 49.0212 124 77 c 0
 127 155.005597015 128 534.902985075 122 620 c 0
 121 647 116 647 43 661 c 1
 48 692 l 1
 140 679.333 270 679 324 694 c 1
 330 652.047851562 l 1
 283.154 651.656852976 217.472 657.776830845 215 611 c 0
 211 527.597457627 206 445.224576271 205 368 c 1
 269 370 429 370 443 371 c 0
 480 378 485 414.4 501 476 c 1
 535 469 l 1
 518 388.246 522 308.754 533 228 c 1
 497 219 l 1
 477 306.136 484 322.091 443 327 c 0
 399 332 298 331 205 332 c 1
 204 235 208 147 220 81 c 0
 224 64 232 42 344 42 c 1
 338 -14 l 1
 233.374 12 185.544 12 58 -9 c 1
EndSplineSet
Validated: 33
Position2: "cpsp-1" dx=0 dy=0 dh=10 dv=20
EndChar
StartChar: uni0376
Encoding: 886 886 987
Width: 746
Flags: W
HStem: -2 38<443.224 513.556> 654 38<235.431 305.764>
VStem: 107.729 92.3965<139 625.47> 548.439 87.791<64.5281 551>
LayerCount: 2
Fore
SplineSet
563.646484375 678 m 0
 568.959960938 687 578.074384364 690.835696078 584.065429688 690 c 0
 627.0789999 684 674.747688587 686 718.099609375 691 c 1
 720.703125 651 l 1
 664.144055328 649 643.353541687 640.982421177 641.258789062 581 c 0
 635.846679688 426.026367188 633.532097915 271.03813957 636.23046875 122 c 0
 637.552151049 49 656.563905653 45 718.505859375 44 c 1
 716.004882812 1 l 1
 639.493164062 15 544.528320312 16 443.900390625 -2 c 1
 440.2265625 36 l 1
 521.611328125 47 544.252542174 60.0452075947 548.439453125 128 c 0
 557.396484375 273.375243549 556.25 415.720856821 548.862304688 551 c 1
 419.497804133 379.117443355 295.941753272 199.33655544 185.340820312 12 c 0
 180.02734375 3 170.915397783 -0.817738745917 164.921875 0 c 0
 120.945559979 6 72.2099339897 4 27.8876953125 -1 c 1
 25.2841796875 39 l 1
 83.9790493134 41 105.63369772 49.0157095305 107.728515625 109 c 0
 113.140625 263.973632812 115.455206772 418.96186043 112.756835938 568 c 0
 111.435153639 641 92.4233990342 645 30.4814453125 646 c 1
 32.982421875 689 l 1
 109.494140625 675 204.458984375 674 305.086914062 692 c 1
 308.760742188 654 l 1
 227.375976562 643 204.825426834 629.949145572 200.547851562 562 c 0
 191.590820313 416.624756451 192.737304688 274.279143179 200.125 139 c 1
 329.203208588 310.502169484 454.804264668 490.511762756 563.646484375 678 c 0
EndSplineSet
Validated: 33
Position2: "cpsp-1" dx=0 dy=0 dh=10 dv=20
EndChar
StartChar: uni0377
Encoding: 887 887 988
Width: 620
VWidth: 1043
Flags: W
HStem: -21 78.9473<448.133 529.36> 372.465 69.802<48.6844 117.592>
VStem: 98.9346 93.5764<199.181 371.342> 399.442 81.524<59.3905 252.592> 417 104.619<237.921 410.729>
LayerCount: 2
Fore
SplineSet
321.537 197.666 m 0xe8
 252 84 195 -16 146 -16 c 0
 56.4433 -16 63 34 74.5654 151.64 c 0
 80.3816 210.801 98.9346 307.114 98.9346 334.551 c 0
 98.9346 357.299 88.2324 372.465 72.1797 372.465 c 0
 39.8271 372.465 37.29 328.646 20.2949 328.646 c 0
 12.2539 328.646 3.95801 335.727 3.95801 344.6 c 0
 3.95801 352.727 31.4414 442.267 105 442.267 c 0
 130.184 442.267 192.511 429.467 192.511 350.157 c 0
 192.511 295.8 170.595 227.554 166.515 158.495 c 2
 163 99 l 2
 161.417 72.2119 166 64 181 70 c 0
 191 74 241 135 291.775 219.828 c 0
 338.155 297.313 407 428 453 438 c 0
 468.092 441.281 485.407 445.597 502.83 439.063 c 0
 519 433 521.619 435.455 521.619 389.775 c 0xe8
 521.619 359.116 480.966 135.453 480.966 89.793 c 0
 480.966 61.377 488.805 57.9473 500.563 57.9473 c 0
 532.508 57.9473 564.602 112.278 567.861 122.998 c 0
 568.226 124.196 569.137 125.3 571.054 125.3 c 0
 571.492 125.3 571.976 125.236 572.499 125.087 c 1
 580 130 598 123 601.894 116.682 c 1
 604.245 116.009 605.684 113.416 605.233 111.867 c 0
 579.957 48.2949 533.629 -21 469 -21 c 0
 427.266 -21 399.442 15.6846 399.442 127.645 c 0xf0
 399.442 189.947 410.277 249.215 417 311 c 0
 416.792 317.178 414.795 320.666 408.537 320.666 c 0
 394.537 320.666 371.623 279.537 321.537 197.666 c 0xe8
EndSplineSet
Validated: 33
EndChar
StartChar: uni037A
Encoding: 890 890 989
Width: 95
Flags: W
HStem: -313.104 44.4951<45.7297 114.294>
VStem: 8.99902 53.9873<-268.056 -90.0114> 25.5322 59.1582<-238.182 -87.2785>
AnchorPoint: "Bottom" 61.578 -15 mark 0
LayerCount: 2
Fore
SplineSet
62.986328125 -249.616210938 m 3xc0
 62.986328125 -266.563194198 70.477752494 -268.608398438 81.712890625 -268.608398438 c 3
 97.9882010828 -268.608398438 113.962581301 -255.33554904 115.999023438 -252.765625 c 1
 128.999023438 -273.765625 l 1
 116.4698815 -292.587586918 93.5054990286 -313.103515625 61.470703125 -313.103515625 c 3
 29.9887082062 -313.103515625 8.9990234375 -295.184570312 8.9990234375 -240.497070312 c 3xc0
 8.9990234375 -191.096550019 24.0917968755 -142.49281231 25.5322265625 -89.0400390625 c 1
 31.0133390664 -88.2478615807 72.7893388196 -72.4105478418 84.6904296875 -82.611328125 c 1xa0
 84.6904296875 -99.680280657 62.986328125 -224.196254791 62.986328125 -249.616210938 c 3xc0
EndSplineSet
Validated: 33
EndChar
StartChar: Theta
Encoding: 920 920 1011
Width: 818
Flags: HW
HStem: -10 53<272.863 456.334> 338.5 61<260.842 540.733> 456.5 20G<222.786 253.049 576.241 613.936> 655 50<341.459 522.992>
VStem: 36.7354 96.0459<202.593 413.03> 222.786 31.4258<414.305 474.5> 545.087 29.4258<261.5 324.978> 585.149 28.7861<429.786 470.5> 662.638 100.362<290.286 501.723>
AnchorPoint: "Bottom" 323.169 -15 basechar 0
AnchorPoint: "Top" 523.103 699 basechar 0
LayerCount: 2
Fore
SplineSet
613.935546875 470.5 m 1
 600.118164062 415.1640625 580.474609375 320.51171875 574.512695312 261.5 c 9
 545.086914062 259.5 l 1
 548.368164062 325.9609375 539.998046875 324.853515625 513.391601562 331.5 c 0
 505.029296875 332.5 440.564453125 338.5 393.87890625 338.5 c 27
 341.203125 338.5 266.393554688 333.5 256.391601562 331.5 c 0
 227.244140625 325.5 219.229492188 297.5 209.512695312 261.5 c 9
 177.723632812 262.5 l 1
 199.600585938 334.940429688 214.630859375 401.831054688 222.786132812 474.5 c 9
 254.211914062 476.5 l 1
 251.885742188 446.211914062 248.478515625 420.513671875 276.970703125 409.5 c 0
 284.729492188 405.5 305.453125 399.5 406.84375 399.5 c 3
 500.139648438 399.5 520.982421875 403.5 526.908203125 404.5 c 0
 560.18359375 410.5 567.333007812 406.5 585.149414062 471.5 c 9
 613.935546875 470.5 l 1
EndSplineSet
Refer: 40 79 N 1 0 0 1 7.10543e-15 0 2
Position2: "cpsp-1" dx=0 dy=0 dh=10 dv=22
EndChar
StartChar: Xi
Encoding: 926 926 1017
Width: 642
Flags: W
HStem: -12 21G<34.0635 605.691> 325.5 61<253.84 544.306> 485 21G<677.467 712.152> 678 20G<183.265 747.75>
VStem: 72.4248 41.0625<83.1133 209> 141.216 42.1494<494.336 560.652> 175.045 25.7871<242.5 280.637> 221.595 25.4248<402.724 461.5> 548.407 23.4248<241.5 310.696> 589.957 22.7871<424.804 457.5> 617.212 42.1494<148.034 204.664> 671.09 41.0625<490 601.742>
AnchorPoint: "Top" 480.576 699 basechar 0
AnchorPoint: "Bottom" 326.812 -15 basechar 0
LayerCount: 2
Fore
SplineSet
141.215820312 495 m 1xfdf0
 163.833007812 574.702148438 176.9765625 630.799804688 189.552734375 698 c 1
 222.443359375 682 711.010742188 680 747.75 698 c 1
 729.05078125 624.162109375 715.19140625 548.845703125 712.15234375 490 c 1
 671.08984375 485 l 1
 683.84375 545 698.448242188 602 657.383789062 604 c 0
 538.279296875 614 333.934570312 613 236.958984375 602 c 0
 207.6875 598 198.578125 544 183.365234375 491 c 9
 141.215820312 495 l 1xfdf0
659.361328125 204 m 1
 626.90625 119.194335938 611.120117188 59.50390625 600.26171875 -12 c 1
 566.850585938 4 71.275390625 6 34.0634765625 -12 c 1
 53.744140625 66.453125 68.603515625 146.475585938 72.4248046875 209 c 1
 113.487304688 214 l 1
 99.3408203125 147.4453125 82.9013671875 84.21875 132.4296875 82 c 0
 251.534179688 72 455.879882812 73 552.854492188 84 c 0
 589.8046875 88.46875 599.626953125 148.79296875 617.211914062 208 c 9
 659.361328125 204 l 1
612.744140625 457.5 m 1
 598.53125 400.310546875 578.21484375 302.48828125 571.83203125 241.5 c 9
 548.407226562 239.5 l 1
 553.061523438 312.422851562 544.66796875 311.208007812 518.19921875 318.5 c 0
 509.412109375 319.5 441.6875 325.5 392.6875 325.5 c 27
 337.6875 325.5 259.624023438 320.5 249.19921875 318.5 c 0
 219.92578125 311.900390625 211.314453125 281.099609375 200.83203125 241.5 c 9
 175.044921875 242.5 l 1xfbf0
 197.428710938 317.33203125 212.928710938 386.431640625 221.594726562 461.5 c 9
 247.01953125 463.5 l 1
 244.693359375 433.211914062 241.287109375 407.513671875 269.778320312 396.5 c 0
 277.928710938 392.5 299.653320312 386.5 405.653320312 386.5 c 3
 503.653320312 386.5 525.502929688 390.5 531.715820312 391.5 c 0
 564.991210938 397.5 572.140625 393.5 589.95703125 458.5 c 9
 612.744140625 457.5 l 1
EndSplineSet
Position2: "cpsp-1" dx=0 dy=0 dh=10 dv=22
EndChar
StartChar: Sigma
Encoding: 931 931 1021
Width: 656
Flags: W
HStem: 1 40<162.356 491.5> 659 31<205.634 218.138>
AnchorPoint: "Top" 456.467 699 basechar 0
AnchorPoint: "Bottom" 307.943 -15 basechar 0
LayerCount: 2
Fore
SplineSet
22.2041015625 1 m 1
 17.7060546875 28 l 1
 60.986328125 49 101.177734375 85.3349609375 132.642578125 116 c 0
 217.5859375 198.784179688 303.390625 282.678710938 388.79296875 367 c 1
 346.811523438 437.495117188 298.115234375 518.478515625 256.876953125 588.299804688 c 0
 237.813476562 620.576171875 219.44921875 652.299804688 194.315429688 659 c 1
 205.633789062 690 l 1
 391.379882812 680 676.575195312 687 702.245117188 693 c 1
 728.5390625 665 702.96484375 672 664.857421875 539 c 1
 634.24609375 536 l 1
 630.583007812 572 659.162109375 619 625.403320312 630 c 1
 561.254882812 647.236328125 437.630859375 652.551757812 346.294921875 644.193359375 c 1
 388.405273438 573.795898438 429.5625 504.499023438 472.344726562 433 c 0
 481.415039062 417.841796875 494.635742188 399 509.385742188 391 c 1
 503.677734375 363 l 1
 485.55078125 355.162109375 469.151367188 342.178710938 458.116210938 331 c 0
 357.46875 229.038085938 261.018554688 137.86328125 162.356445312 41 c 1
 240.6796875 41 319.625976562 39 397.94921875 39 c 0
 420.353515625 39 450.325195312 43.2998046875 485.821289062 58 c 0
 547.814453125 83.673828125 563.584960938 101 618.075195312 177 c 1
 644.649414062 170 l 1
 615.196289062 104 595.63671875 62 571 0 c 1
 338.626953125 -1.208984375 237.124023438 5.2880859375 22.2041015625 1 c 1
EndSplineSet
Position2: "cpsp-1" dx=0 dy=0 dh=10 dv=22
EndChar
StartChar: Upsilon
Encoding: 933 933 1023
Width: 689
VWidth: 1159
Flags: W
HStem: -17 42<201.865 281.509> -11 43<426.681 499.636> 623.534 76.2021<208.626 298.232 652.965 765.622>
VStem: 388.573 45.7939<373.316 510.432>
AnchorPoint: "Top" 492.95 699 basechar 0
AnchorPoint: "Bottom" 340.715 -15 basechar 0
LayerCount: 2
Fore
SplineSet
482.34375 379 m 0xb0
 445.819335938 286.059570312 428.321289062 163.954101562 419.567382812 80 c 0
 415.497070312 40.98828125 434.446289062 36 514.525390625 32 c 1
 499.635742188 -11 l 1x70
 399.854492188 3 313.235351562 9 202.254882812 -17 c 1
 199.915039062 25 l 1
 282.13671875 39 321.666015625 52.001953125 333.16796875 100 c 0
 345.241210938 150.383789062 388.286132812 339.19921875 388.573242188 380 c 0
 389.150390625 472.659179688 357.909179688 623.534179688 224.567382812 623.534179688 c 3
 206.80859375 623.534179688 186.671875 610.516601562 163.864257812 582 c 1
 147.89453125 611.370117188 l 1
 169.977539062 658.056640625 227.775390625 699.736328125 265.53515625 699.736328125 c 3
 453.221679688 699.736328125 429.870117188 498.013671875 434.3671875 371.123046875 c 1
 491.3125 498.013671875 557.650390625 699.736328125 720.814453125 699.736328125 c 3
 755.856445312 699.736328125 791.918945312 654.138671875 801.733398438 627.370117188 c 1
 772.252929688 598 l 1
 757.873046875 615.53125 742.608398438 623.534179688 726.7265625 623.534179688 c 3
 612.415039062 623.534179688 516.818359375 473.685546875 482.34375 379 c 0xb0
EndSplineSet
Position2: "cpsp-1" dx=0 dy=0 dh=10 dv=22
EndChar
StartChar: Psi
Encoding: 936 936 1026
Width: 699
Flags: W
HStem: -10 40<194.002 307.494 414.048 501.712> 320.818 31.1953<365.529 382.445> 637.704 34<819.136 830.543> 652 43<370.213 433.21 541.371 622.574>
LayerCount: 2
Fore
SplineSet
372.3515625 695 m 1xd0
 466.012695312 674 522.479492188 677 629.713867188 692 c 1
 622.57421875 649 l 1
 574.009765625 647 545.223632812 656.947265625 532.559570312 616 c 0
 512.829101562 548.486328125 489.15234375 461.061523438 464.501953125 351.192382812 c 1
 638.28515625 400.744140625 628.399414062 671.704101562 796.775390625 671.704101562 c 3
 833.60546875 671.704101562 845.546875 655.91796875 850.547851562 637.704101562 c 1xe0
 673.0859375 554.15234375 662.053710938 353.360351562 457.765625 320.90625 c 1
 441.5390625 245.981445312 424.625 161.252929688 407.653320312 66 c 0
 401.419921875 27 455.926757812 32 511.001953125 30 c 1
 501.711914062 -9 l 1
 403.049804688 2 280.475585938 4 190.499023438 -10 c 1
 194.001953125 30 l 1
 255.514648438 30 312.075195312 27.0634765625 325.9921875 77 c 0
 343.469726562 144.84765625 363.680664062 232.9921875 382.4453125 320.818359375 c 1
 193.973632812 354.014648438 267.4765625 553.758789062 126.0234375 637 c 1
 138.767578125 655.213867188 157.419921875 671 194.25 671 c 3
 362.13671875 671 238.659179688 402.770507812 389.041992188 352.013671875 c 1
 410.424804688 453.989257812 428.987304688 552.208984375 438.134765625 614 c 0
 442.65234375 650 399.690429688 647 359.211914062 652 c 1
 372.3515625 695 l 1xd0
EndSplineSet
Position2: "cpsp-1" dx=0 dy=0 dh=10 dv=22
EndChar
StartChar: beta
Encoding: 946 946 1032
Width: 531
VWidth: 1042
UnlinkRmOvrlpSave: 1
Flags: HMW
LayerCount: 2
Fore
SplineSet
-14.3212890625 -192 m 1
 34.2490234375 -51.5732421875 72.6640625 89.421875 118.452148438 244 c 0
 187.149414062 475.918945312 293.509765625 711 436.204101562 711 c 3
 518.087890625 711 556.981445312 637.831054688 541.463867188 558 c 24
 512.791015625 410.487304688 356.899414062 267 249.733398438 261 c 1
 229.31640625 264 215.981445312 288 217.063476562 309 c 1
 253.951171875 329 292.177734375 342 340.478515625 342 c 27
 452.732421875 342 530.76953125 256.040039062 508.991210938 144 c 24
 489.078125 41.556640625 379.412109375 -25 278.140625 -25 c 27
 186.899414062 -25 135.248046875 27 88.162109375 78 c 9
 92.0771484375 93 94.8271484375 102 98.7421875 117 c 1
 142.663085938 60 185.772460938 9 272.749023438 9 c 27
 352.655273438 9 412.913085938 51 435.072265625 165 c 0
 450.134765625 242.48828125 405.865234375 295.234375 325.682617188 307.041992188 c 1
 307.063476562 309 l 1
 386.061523438 345 442.296875 433.670898438 461.215820312 531 c 24
 472.337890625 588.21875 474.161132812 654 404.125 654 c 3
 284.125 654 108.681640625 199 54.3466796875 -204 c 1
 28.498046875 -202.762695312 0.9482421875 -203.112304688 -14.3212890625 -192 c 1
EndSplineSet
EndChar
StartChar: gamma
Encoding: 947 947 1033
Width: 451
VWidth: 1047
UnlinkRmOvrlpSave: 1
Flags: HMW
LayerCount: 2
Fore
SplineSet
132.065429688 -154 m 1
 168.568359375 -73.810546875 242.0703125 63.9990234375 260.270507812 157.6328125 c 0
 279.830078125 258.258789062 244.515625 365 185.94921875 365 c 3
 161.818359375 365 142.424804688 340.419921875 116.78515625 314.931640625 c 1
 96.103515625 321.307617188 65.0654296875 355.311523438 67.337890625 367 c 0
 68.3291015625 372.098632812 90.3466796875 418.5 142.62890625 418.5 c 3
 238.0859375 418.5 332.203125 286.581054688 299.43359375 118 c 0
 285.184570312 44.6953125 236.755859375 -65.763671875 194.22265625 -150 c 0
 174.592773438 -188.877929688 151.047851562 -224.568359375 133.653320312 -248 c 1
 106.68359375 -264 39.560546875 -290 28.68359375 -264 c 1
 46.158203125 -226.60546875 73.7294921875 -188.197265625 101.150390625 -144.150390625 c 0
 265.588867188 120 405.75390625 266.103515625 451.279296875 364.040039062 c 0
 453.162109375 368.08984375 468.650390625 399.434570312 475.86328125 417 c 1
 494.604492188 414 521.033203125 406 527.224609375 392.139648438 c 1
 406.337890625 225.2734375 243.352539062 0.2412109375 132.065429688 -154 c 1
EndSplineSet
EndChar
StartChar: zeta
Encoding: 950 950 1036
Width: 419
UnlinkRmOvrlpSave: 1
Flags: HMW
LayerCount: 2
Fore
SplineSet
77.26953125 130 m 0
 134.611328125 425 389.173828125 752 678.5625 754 c 1
 678.78515625 750 677.813476562 745 676.841796875 740 c 0
 671.592773438 713 654.150390625 685 628.068359375 664 c 1
 595.736328125 652 558.569335938 646 516.569335938 646 c 3
 439.569335938 646 361.76171875 683 376.729492188 760 c 0
 383.920898438 797 409.55859375 826 476.947265625 828 c 1
 476.55859375 826 476.780273438 822 475.80859375 817 c 0
 472.50390625 800 463.8671875 771 459.33984375 758 c 1
 435.368164062 753 421.368164062 753 418.453125 738 c 0
 414.922851562 719.837890625 459.325195312 690.45703125 514.229492188 680.259765625 c 5
 522.80859375 678.666015625 531.645507812 677.541015625 540.595703125 677 c 1
 375.791992188 642 148.478515625 342 112.517578125 157 c 0
 96.578125 75 152.995117188 72 191.995117188 72 c 3
 227.995117188 72 247.55078125 80 283.55078125 80 c 3
 373.55078125 80 397.025390625 31 384.780273438 -32 c 0
 370.784179688 -104 301.122070312 -164 230.122070312 -164 c 3
 192.122070312 -164 166.42578125 -147 150.758789062 -135 c 1
 158.646484375 -115 190.19921875 -71 203.587890625 -69 c 1
 219.254882812 -81 246.869140625 -119 283.869140625 -119 c 3
 304.869140625 -119 332.951171875 -98 338.782226562 -68 c 0
 347.334960938 -24 307.805664062 -1 265.805664062 -1 c 3
 236.805664062 -1 211.4453125 -8 176.4453125 -8 c 3
 83.4453125 -8 63.080078125 57 77.26953125 130 c 0
EndSplineSet
EndChar
StartChar: theta
Encoding: 952 952 1038
Width: 488
VWidth: 1039
UnlinkRmOvrlpSave: 1
Flags: HMW
HStem: -11 44<184.489 283.36> 657 40<226.149 324.426>
VStem: 52 79<134.659 458.11> 376 78<221.369 559.965>
AnchorPoint: "Bottom" 229.084 -15 basechar 0
LayerCount: 2
Fore
SplineSet
171.125976562 333.40234375 m 5
 177.141601562 367.397460938 l 5
 476.107421875 372.598632812 l 5
 470.091796875 338.603515625 l 5
 171.125976562 333.40234375 l 5
241.4140625 33 m 3
 352.4140625 33 434.377929688 300.327148438 460.166992188 433 c 0
 482.71484375 549 482.708007812 657 402.708007812 657 c 3
 302.708007812 657 221.192382812 464 181.150390625 258 c 0
 153.838867188 117.498046875 174.4140625 33 241.4140625 33 c 3
407.483398438 697 m 3
 528.483398438 697 566.157226562 577 532.334960938 403 c 0
 481.89453125 143.506835938 337.862304688 -11 227.862304688 -11 c 3
 115.862304688 -11 74.412109375 115.298828125 107.592773438 286 c 0
 144.9140625 478 265.483398438 697 407.483398438 697 c 3
EndSplineSet
Position2: "cpsp-1" dx=0 dy=0 dh=10 dv=22
EndChar
StartChar: kappa
Encoding: 954 954 1040
Width: 490
VWidth: 1043
Flags: HMW
LayerCount: 2
Fore
SplineSet
277.45703125 239 m 1
 296.759765625 174.826171875 337.729492188 75 409.578125 75 c 3
 429.826171875 75 450.162109375 89.6953125 460.6328125 101 c 1
 465.818359375 98 468.890625 96 474.077148438 93 c 1
 458.192382812 37 431.584960938 -9 378.250976562 -9 c 3
 298.38671875 -9 299.49609375 122 248.84765625 205 c 1
 277.45703125 239 l 1
103.337890625 367 m 1
 131.80859375 390 168.696289062 410 211.696289062 410 c 3
 242.49609375 410 252.211914062 392.077148438 247.143554688 366 c 0
 227.643554688 265.680664062 200.8203125 210 171.381835938 110 c 1
 166.170898438 112 163.370117188 112 158.159179688 114 c 1
 202.19921875 209 311.953125 328 456.862304688 416 c 1
 477.2890625 410.732421875 478.744140625 371.75 480.393554688 357 c 1
 349.73828125 317.490234375 212.814453125 173.205078125 182.021484375 103 c 0
 164.654296875 62.5390625 160.733398438 39.7841796875 146.805664062 -1 c 1
 115.193359375 -1.34375 76.81640625 -0.79296875 67.77734375 4 c 1
 101.810546875 122.49609375 132.016601562 190.431640625 155.063476562 309 c 0
 158.975585938 329.124023438 166.420898438 357 148.393554688 357 c 3
 133.971679688 357 125.64453125 348 111.478515625 342 c 1
 103.337890625 367 l 1
EndSplineSet
EndChar
StartChar: lambda
Encoding: 955 955 1041
Width: 464
VWidth: 1038
UnlinkRmOvrlpSave: 1
Flags: HMW
LayerCount: 2
Fore
SplineSet
301.91796875 406 m 1
 322.2578125 310 l 1
 76.8896484375 -16 l 1
 56.5009765625 -18 17.5830078125 3 10.8876953125 20 c 1
 301.91796875 406 l 1
120.373046875 681 m 1
 119.346679688 688.389648438 119.483398438 697 121.038085938 705 c 0
 127.2578125 737 151.193359375 772 171.061523438 772 c 3
 207.061523438 772 230.731445312 724 245.373046875 681 c 0
 299.272460938 521 333.564453125 291 403.604492188 106 c 0
 414.745117188 81 436.829101562 66 472.440429688 64 c 1
 473.63671875 29 468.805664062 -1 463.946289062 -26 c 1
 451.36328125 -29 445.390625 -34 432.390625 -34 c 3
 388.390625 -34 370.665039062 24 358.995117188 72 c 0
 322.375 218 277.13671875 474 222.431640625 635 c 0
 208.790039062 678 174.76171875 683 120.373046875 681 c 1
EndSplineSet
EndChar
StartChar: mu
Encoding: 956 956 1042
Width: 544
VWidth: 1019
Flags: HMW
LayerCount: 2
Fore
SplineSet
243.696289062 410 m 1
 222.662109375 301.791992188 170.58203125 224.208007812 149.547851562 116 c 0
 140.0234375 67 168.775390625 40 206.775390625 40 c 3
 326.775390625 40 389.845703125 241 407.314453125 300 c 2
 435.946289062 401 l 1
 436.140625 402 506.166992188 433 513.501953125 409 c 1
 504.352539062 367.075195312 435.629882812 137 435.629882812 137 c 0
 429.215820312 104 441.051757812 62 471.051757812 62 c 3
 509.051757812 62 524.299804688 89 534.604492188 106 c 1
 550.6328125 101 l 1
 533.721679688 14 492.833984375 -6 464.833984375 -6 c 3
 415.833984375 -6 384.1640625 42 387.215820312 104 c 1
 387.215820312 104 l 1
 357.49609375 54 295.805664062 -1 212.805664062 -1 c 3
 135.805664062 -1 128.775390625 40 120.49609375 54 c 1
 105.219726562 32 48.732421875 -166 43.0439453125 -257 c 1
 30.3232421875 -271 -10.7333984375 -261 -23.623046875 -245 c 1
 -11.541015625 -224 1.3466796875 -204 12.5107421875 -162 c 2
 164.391601562 393 l 1
 167.529296875 404 230.611328125 425 243.696289062 410 c 1
EndSplineSet
EndChar
StartChar: nu
Encoding: 957 957 1043
Width: 480
VWidth: 1043
Flags: HMW
LayerCount: 2
Fore
SplineSet
107.666992188 -12 m 1
 108.250976562 -9 135.405273438 60.0205078125 170.932617188 190 c 0
 191.705078125 266 193.810546875 354 157.810546875 354 c 0
 127.810546875 354 120.5625 327 107.48046875 306 c 1
 89.8408203125 313 l 1
 105.780273438 395 154.4453125 419 183.4453125 419 c 0
 221.4453125 419 286.8359375 385 258.845703125 241 c 0
 242.711914062 158 205.080078125 57 203.913085938 51 c 1
 219.913085938 51 395.604492188 106 425.5390625 260 c 0
 440.89453125 339 405.838867188 349 380.227539062 351 c 1
 378.969726562 354.818359375 378.2421875 361.36328125 379.7265625 369 c 0
 384.530273438 393.711914062 426.778320312 431 435.778320312 431 c 3
 452.778320312 431 506.094726562 391.471679688 487.341796875 295 c 0
 465.765625 184 373.099609375 106.359375 297.051757812 62 c 0
 211.333007812 12 126.306640625 -19 114.306640625 -19 c 1
 107.666992188 -12 l 1
EndSplineSet
EndChar
StartChar: omicron
Encoding: 959 959 1045
Width: 510
VWidth: 1043
Flags: HMW
AnchorPoint: "Top" 384.387 465 basechar 0
AnchorPoint: "Bottom" 247.084 -15 basechar 0
LayerCount: 2
Fore
SplineSet
256.609375 34 m 3
 363.609375 34 409.740234375 153 421.791992188 215 c 0
 437.536132812 296 422.864257812 380 338.864257812 380 c 3
 285.864257812 380 200.616210938 353 168.348632812 187 c 0
 149.8828125 92 181.609375 34 256.609375 34 c 3
92.625 209 m 0
 112.063476562 309 201.639648438 420 334.639648438 420 c 3
 470.639648438 420 515.92578125 298 495.709960938 194 c 0
 469.857421875 61 354.056640625 -10 252.056640625 -10 c 3
 127.056640625 -10 73.7705078125 112 92.625 209 c 0
EndSplineSet
EndChar
StartChar: sigma
Encoding: 963 963 1049
Width: 479
VWidth: 1043
Flags: HMW
LayerCount: 2
Fore
SplineSet
524.696289062 410 m 1
 522.974609375 396 523.05859375 381 520.532226562 368 c 0
 518.399414062 357.03125 513.431640625 346.90625 505.283203125 341 c 1
 453.283203125 341 423.283203125 341 371.283203125 341 c 3
 226.251953125 341 168.502929688 259.817382812 148.12890625 155 c 0
 136.271484375 94 151.248046875 27 212.248046875 27 c 3
 283.524414062 27 324.881835938 91.9931640625 340.044921875 170 c 0
 349.482421875 218.551757812 337.013671875 257.583984375 325.17578125 289 c 1
 333.208984375 293.888671875 336.28125 295.111328125 344.314453125 300 c 1
 403.073242188 282.44140625 423.818359375 215.134765625 409.407226562 141 c 0
 391.524414062 49 313.4453125 -8 230.4453125 -8 c 3
 120.4453125 -8 69.2998046875 89 89.7099609375 194 c 0
 110.314453125 300 188.153320312 370.586914062 273.5859375 394 c 0
 313.723632812 405 404.696289062 410 524.696289062 410 c 1
EndSplineSet
EndChar
StartChar: tau
Encoding: 964 964 1050
Width: 482
VWidth: 1043
UnlinkRmOvrlpSave: 1
Flags: HMW
LayerCount: 2
Fore
SplineSet
365.255859375 346 m 1
 333.76171875 256 297.994140625 180.03125 285.547851562 116 c 0
 280.299804688 89 280.0546875 55 309.690429688 55 c 3
 330.78515625 55 350.772460938 76 376.41015625 105 c 1
 383.243164062 99 387.66015625 96 394.494140625 90 c 1
 377.524414062 49 324.678710938 -9 267.250976562 -9 c 3
 217.739257812 -9 200.317382812 32.501953125 216.159179688 114 c 0
 234.0546875 206.063476562 276.259765625 274 305.450195312 347 c 1
 365.255859375 346 l 1
116.428710938 244 m 5
 97.9560546875 257 88.7353515625 281.588867188 94.4521484375 311 c 4
 108.07421875 381.077148438 186.896484375 406 391.91796875 406 c 7
 414.94921875 406 428.954101562 405 452.723632812 405 c 7
 500.73046875 405 508.259765625 410.625 515.721679688 441 c 5
 523.747070312 443 529.473632812 443 537.499023438 445 c 5
 544.912109375 429 548.551757812 414.401367188 544.391601562 393 c 4
 534.291015625 341.037109375 484.922851562 334 352.922851562 334 c 7
 305.848632812 334 279.887695312 337 232.505859375 337 c 7
 194.178710938 337 139.279296875 330.689453125 132.73046875 297 c 4
 129.840820312 282.133789062 138.482421875 270 143.927734375 262 c 5
 116.428710938 244 l 5
EndSplineSet
EndChar
StartChar: phi
Encoding: 966 966 1052
Width: 670
VWidth: 1040
Flags: HMW
LayerCount: 2
Fore
SplineSet
411.57421875 574 m 1
 472.932617188 569 496.600585938 532.98046875 487.46875 486 c 0
 481.569335938 455.650390625 455.163085938 416.036132812 418.48046875 393.458007812 c 0
 382.845703125 371.525390625 335.836914062 354.6015625 281.311523438 336 c 0
 199.504882812 308.091796875 135.283203125 253.541015625 119.43359375 172 c 0
 113.247070312 140.171875 123.995117188 113.973632812 148.385742188 99.73046875 c 0
 202.36328125 68.2099609375 296.546875 58 347.274414062 58 c 3
 411.559570312 58 596.889648438 76.5986328125 622.430664062 208 c 0
 635.916015625 277.373046875 583.8125 327 515.5625 327 c 7
 418.975585938 327 386.21484375 198.014648438 363.521484375 81.2666015625 c 0
 340.634765625 -36.47265625 318.072265625 -153.966796875 295.12890625 -272 c 1
 273.740234375 -274 261.740234375 -274 240.350585938 -276 c 1
 267.680664062 -161.125976562 287.188476562 -96.779296875 309.499023438 18 c 0
 332.0234375 133.880859375 353.936523438 270.237304688 417.619140625 358 c 0
 428.50390625 373 473.392578125 405 526.723632812 405 c 3
 624.66796875 405 679.1171875 314.421875 659.59765625 214 c 0
 635.700195312 91.0595703125 519.754882812 -22 329.723632812 -22 c 3
 121.692382812 -22 66.0849609375 72.462890625 91.2646484375 202 c 0
 119.521484375 347.370117188 245.55859375 398.998046875 385.08203125 448 c 0
 411.3671875 457.231445312 445.053710938 468.4296875 448.46875 486 c 0
 451.541992188 501.811523438 434.556640625 508 418.745117188 508 c 3
 404.119140625 508 396.544921875 508 381.745117188 508 c 1
 388.783203125 529.475585938 398.639648438 568.6171875 411.57421875 574 c 1
EndSplineSet
EndChar
StartChar: psi
Encoding: 968 968 1054
Width: 598
VWidth: 1040
UnlinkRmOvrlpSave: 1
Flags: HMW
LayerCount: 2
Fore
SplineSet
361.265625 629 m 1
 376.986328125 643 388.930664062 653 408.930664062 653 c 3
 469.930664062 653 465.850585938 596 444.857421875 488 c 0
 386.348632812 187 309.114257812 -56 229.990234375 -283 c 1
 186.740234375 -274 l 1
 292.609375 34 355.288085938 269 386.778320312 431 c 0
 410.103515625 551 408.796875 570 389.796875 570 c 3
 384.796875 570 381.436523438 563 376.436523438 563 c 3
 355.436523438 563 360.18359375 608 361.265625 629 c 1
86.5322265625 368 m 1
 106.002929688 391 135.66796875 415 164.66796875 415 c 3
 203.66796875 415 217.05859375 381 211.227539062 351 c 0
 204.03515625 314 179.150390625 258 169.430664062 208 c 0
 155.750976562 137.620117188 169.690429688 55 321.690429688 55 c 3
 477.690429688 55 553.462890625 218.451171875 604.391601562 393 c 1
 635.557617188 399 l 1
 598.014648438 211 495.140625 -25 306.140625 -25 c 3
 162.140625 -25 77.330078125 48 104.543945312 188 c 0
 116.01171875 247 147.341796875 295 155.700195312 338 c 0
 158.616210938 353 150.94921875 365 138.94921875 365 c 3
 122.94921875 365 113.004882812 355 98.8671875 344 c 1
 86.5322265625 368 l 1
EndSplineSet
EndChar
StartChar: omega
Encoding: 969 969 1055
Width: 697
VWidth: 1036
Flags: HMW
AnchorPoint: "Top" 453.872 465 basechar 0
AnchorPoint: "Bottom" 331.569 -15 basechar 0
LayerCount: 2
Fore
SplineSet
531.473632812 414 m 3
 619.564453125 414 705.150390625 324.881835938 685.15234375 222 c 0
 657.383789062 79.1435546875 550.95703125 -5 431.028320312 -5 c 3
 336.85546875 -5 310.435546875 84.552734375 328.599609375 178 c 0
 332.458984375 197.854492188 338.305664062 208.724609375 345.9296875 226 c 1
 377.107421875 242 392.97265625 242 421.040039062 242 c 1
 421.608398438 224.34765625 423.993164062 205.74609375 419.182617188 181 c 0
 397.34765625 68.6669921875 325.51953125 -5 235.028320312 -5 c 3
 127.827148438 -5 63.58984375 54.4814453125 90.904296875 195 c 0
 112.470703125 305.951171875 223.288085938 414 320.473632812 414 c 3
 361.290039062 414 394.5859375 394 393.227539062 351 c 1
 385.416015625 340.650390625 354.358398438 331.450195312 330.756835938 328 c 1
 331.821289062 343.763671875 333.034179688 379 312.669921875 379 c 3
 254.262695312 379 184.508789062 275.28125 168.126953125 191 c 0
 153.873046875 117.670898438 172.608398438 36 250.998046875 36 c 3
 298.008789062 36 346.045898438 87.6923828125 359.325195312 120 c 1
 360.495117188 116.286132812 361.693359375 111.455078125 363.079101562 106 c 1
 369.749023438 79.7294921875 380.739257812 39 413.581054688 39 c 3
 529.690429688 39 588.310546875 119.921875 613.983398438 252 c 0
 625.362304688 310.5390625 595.446289062 374 552.698242188 374 c 3
 526.672851562 374 512.473632812 341.978515625 506.33984375 331 c 1
 491.34765625 330.72265625 450.9453125 335.520507812 448.227539062 351 c 1
 457.91796875 395.400390625 502.0078125 414 531.473632812 414 c 3
EndSplineSet
EndChar
StartChar: theta1
Encoding: 977 977 1058
Width: 504
VWidth: 1019
Flags: W
HStem: -93 65<79.6564 134.626> -8 89<258.646 403.049> 63 77<69.1617 168.389> 406 66<259.14 479.579> 685 47<221.898 368.316>
LayerCount: 2
Fore
SplineSet
596.361328125 434 m 1xd8
 537.657226562 409.799804688 474.8125 406 398.91796875 406 c 3
 249.487304688 406 86.9873046875 462.943359375 115.18359375 608 c 0
 128.853515625 678.328125 195.203125 732 270.286132812 732 c 3
 505.313476562 732 553.708007812 461.5078125 507.541015625 224 c 0
 486.341796875 114.9375 440.783203125 -8 332.4453125 -8 c 3xd8
 238.247070312 -8 142.087890625 63 117.24609375 63 c 3
 90.9169921875 63 69.2373046875 52.6669921875 65.2197265625 32 c 0
 54.9912109375 -20.623046875 119.31640625 -16.9228515625 158.557617188 -28 c 1
 148.68359375 -53.0712890625 141.795898438 -67.9287109375 131.922851562 -93 c 1
 18.837890625 -78 19.8740234375 19.931640625 29.9951171875 72 c 0
 39.9091796875 123 78.3974609375 140 121.212890625 140 c 3xb8
 209.881835938 140 271.73828125 81 345.745117188 81 c 3
 420.471679688 81 461.270507812 160.874023438 477.428710938 244 c 0
 504.202148438 381.73828125 485.709960938 685 301.150390625 685 c 3
 239.323242188 685 193.455078125 655.69921875 184.18359375 608 c 0
 162.86328125 498.3203125 293.587890625 472 401.747070312 472 c 3
 474.75390625 472 527.525390625 476 591.190429688 500 c 1
 596.361328125 434 l 1xd8
EndSplineSet
EndChar
StartChar: uni03DD
Encoding: 989 989 1069
Width: 370
VWidth: 1038
Flags: W
HStem: -279 68<-141.31 -42.8655> 176 40<163.386 337.567> 350 69<245.639 399.662>
LayerCount: 2
Fore
SplineSet
126.098632812 196 m 1
 210.653320312 204 259.430664062 208 343.986328125 216 c 1
 340.875976562 200 339.321289062 192 336.2109375 176 c 1
 252.43359375 172 204.044921875 170 120.267578125 166 c 1
 126.098632812 196 l 1
-120.232421875 -279 m 3
 -146.526367188 -279 -169.827148438 -267.545898438 -178.733398438 -261 c 1
 -164.05078125 -232.62109375 -137.836914062 -189.947265625 -109.154296875 -186 c 1
 -97.6005859375 -197.111328125 -64.6376953125 -211 -50.0146484375 -211 c 3
 94.283203125 -211 32.6123046875 419 330.4453125 419 c 3
 380.489257812 419 427.340820312 410.090820312 445.723632812 405 c 1
 430.80078125 376.243164062 404.151367188 333 374.951171875 329 c 1
 351.051757812 338.333007812 286.450195312 350 259.033203125 350 c 3
 119.129882812 350 147.76953125 -279 -120.232421875 -279 c 3
EndSplineSet
EndChar
StartChar: uni03FE
Encoding: 1022 1022 1079
Width: 732
Flags: HW
HStem: -10 42<252.828 433.111> 309.3 103<341.968 424.39> 659 40<359.158 552.014>
VStem: 331.954 103<319.373 402.486> 606.39 37.3193<525.562 600.835>
LayerCount: 2
Fore
SplineSet
382.954101562 412.299804688 m 4
 417.954101562 412.299804688 434.954101562 382.299804688 434.954101562 361.299804688 c 4
 434.954101562 334.299804688 411.954101562 309.299804688 382.954101562 309.299804688 c 4
 356.954101562 309.299804688 331.954101562 331.299804688 331.954101562 361.299804688 c 4
 331.954101562 386.299804688 352.954101562 412.299804688 382.954101562 412.299804688 c 4
EndSplineSet
Refer: 1077 1017 N 1 0 0 1 0 0 2
Position2: "cpsp-1" dx=0 dy=0 dh=10 dv=20
EndChar
StartChar: afii10053
Encoding: 1028 1028 1127
Width: 732
VWidth: 1159
UnlinkRmOvrlpSave: 1
Flags: HW
HStem: -10 42<252.828 433.111> 332 36<96.9541 437.347> 659 40<359.158 552.014>
VStem: 460.954 36<248 304.348> 606.39 37.3193<525.562 600.835>
AnchorPoint: "Top" 433 699 basechar 0
AnchorPoint: "Bottom" 423 -15 basechar 0
LayerCount: 2
Fore
SplineSet
96.9541015625 368 m 1
 180.315429688 370 388.717773438 370 406.954101562 371 c 0
 443.954101562 376 448.954101562 402 464.954101562 446 c 1
 498.954101562 439 l 1
 481.954101562 375 485.954101562 312 496.954101562 248 c 1
 460.954101562 239 l 1
 440.954101562 310 447.954101562 323 406.954101562 327 c 0
 349.642578125 332 218.087890625 331 96.9541015625 332 c 1
 96.9541015625 368 l 1
EndSplineSet
Refer: 28 67 N 1 0 0 1 0 0 2
Position2: "cpsp-1" dx=0 dy=0 dh=10 dv=20
EndChar
StartChar: afii10018
Encoding: 1041 1041 1307
Width: 599
VWidth: 1159
Flags: W
HStem: -4 38<46 121.25 221.96 386.918> 349 30<212 361.808> 654 31<43 104.795> 680 20G<492.829 513>
VStem: 127 86<44.2298 349 379 639.778> 454 90<96.7035 268.078> 478 31<534 596.993>
LayerCount: 2
Fore
SplineSet
287 349 m 0xcc
 210 349 l 1
 211 251 211.405071907 155.012339425 213 96 c 0
 214 59 218.834844074 46.2330311851 245 41 c 0
 253.518518519 39 291.851851852 34 314 34 c 3
 393.50617284 34 454 83 454 178 c 3
 454 262 405.810945274 349 287 349 c 0xcc
126 613 m 0
 125 640 111 640 38 654 c 1
 43 685 l 1xec
 223.294 675 489.658 685 496 700 c 1
 530 680 514 667 509 534 c 1
 478 531 l 1xda
 467 567 471.194704085 614.658655976 435 625 c 0
 384.085714286 643 302.554786298 650.012863436 237 641 c 0
 219 639 215.889176039 622.005814782 215 604 c 0
 211 523 212 379 212 379 c 1
 268.222394177 379 317.263563774 377.118798728 364 371.883789062 c 0
 479.134450796 356.551448525 544 273.933306029 544 181 c 3
 544 70 450.597701149 -4 305 -4 c 3
 255.975 -4 209.725 2 157 2 c 3
 98 2 53 -2 46 -2 c 1
 43 34 l 1
 90 36 127 35.9459853727 127 73 c 0
 127 78 130 176 130 292 c 3
 130 461 129.116900463 528.843687512 126 613 c 0
EndSplineSet
Validated: 33
Position2: "cpsp-1" dx=0 dy=0 dh=10 dv=20
EndChar
StartChar: afii10067
Encoding: 1074 1074 1115
Width: 427
VWidth: 1159
Flags: W
HStem: -2.78809 27.4912<32.207 70.7311 168.057 282.256> 199.25 19.0244<149.031 243.925> 372.902 26.8418<32.1856 62.4674 157.554 242.168>
VStem: 80.5107 69.0166<32.0582 199.25 218.274 369.351> 270.896 77.8525<248.787 352.694> 310.656 78.3438<44.8722 163.307>
LayerCount: 2
Fore
SplineSet
30.3173828125 21.9228515625 m 1xf4
 42.3818359375 22.5107421875 74.2041015625 25.171875 76.6708984375 54.7431640625 c 0
 78.36328125 55.7578125 80.5107421875 106.555664062 80.5107421875 168.353515625 c 1
 80.5107421875 252.696289062 76.1904296875 325.063476562 75.90234375 325.61328125 c 0
 75.326171875 350.166992188 73.9208984375 364.521484375 62.7119140625 369.595703125 c 0
 57.79296875 370.66796875 33.681640625 374.458007812 28.923828125 375.114257812 c 1
 33.439453125 399.905273438 l 1
 41.0546875 399.501953125 72.6337890625 393.984375 104.866210938 393.984375 c 1
 144.236409362 393.984375 197.65714647 399.744140625 234.885742188 399.744140625 c 1
 313.9453125 399.744140625 348.749023438 335.024414062 348.749023438 297.561523438 c 3xf8
 348.749023438 257.756835938 317.14453125 237.154296875 278.82421875 214.921875 c 1
 339.03125 202.518554688 389 160.5703125 389 104.8203125 c 1
 389 40.2392578125 329.119140625 -2.7880859375 238.341796875 -2.7880859375 c 1
 199.165780761 -2.7880859375 149.704952139 0.587890625 107.33203125 0.587890625 c 1
 71.896484375 0.587890625 38.3359375 -1.6357421875 32.20703125 -1.796875 c 1
 30.3173828125 21.9228515625 l 1xf4
225.1484375 219.426757812 m 0
 250.728515625 223.739257812 270.896484375 249.198242188 270.896484375 282.829101562 c 1
 270.896484375 308.618164062 255.775390625 372.90234375 215.022460938 372.90234375 c 1
 208.266885291 372.90234375 175.023520294 371.993164062 168.942382812 372.467773438 c 0
 155.8046875 369.840820312 156.954101562 354.051757812 155.405273438 344.161132812 c 0
 150.247070312 281.552734375 149.673828125 220.524414062 149.03125 218.274414062 c 1
 217.1537473 218.274414062 223.844464844 218.904296875 225.1484375 219.426757812 c 0
214.186523438 197.516601562 m 1
 209.764397189 199.330078125 152 199 147.959960938 199.25 c 1
 148.173828125 150.625976562 148.01171875 102.974609375 149.52734375 72.70703125 c 0
 150.46484375 45.1474609375 154.029296875 36.4541015625 167.756835938 31.8388671875 c 0
 173.51817911 29.5166015625 220.539414642 24.703125 235.682617188 24.703125 c 1
 284.379882812 24.703125 310.65625 54.515625 310.65625 99.263671875 c 1xf4
 310.65625 149.534179688 284.333007812 197.44921875 214.186523438 197.516601562 c 1
EndSplineSet
Validated: 33
EndChar
StartChar: bullet
Encoding: 8226 8226 436
Width: 446
Flags: W
HStem: 122.85 288.3<113.985 332.015>
VStem: 78.85 288.3<158.103 376.033>
LayerCount: 2
Fore
SplineSet
78.849609375 267.161132812 m 7
 78.849609375 346.66796875 143.338867188 411.150390625 223.001953125 411.150390625 c 7
 302.661132812 411.150390625 367.150390625 346.66796875 367.150390625 267.161132812 c 7
 367.150390625 187.645507812 302.661132812 122.849609375 223.001953125 122.849609375 c 7
 143.338867188 122.849609375 78.849609375 187.645507812 78.849609375 267.161132812 c 7
EndSplineSet
Position2: "cpsp-1" dx=0 dy=0 dh=10 dv=20
EndChar
StartChar: uni2027
Encoding: 8231 8231 440
Width: 172
Flags: W
HStem: 179 124<39.1119 132.888>
VStem: 24 124<194.163 287.896>
LayerCount: 2
Fore
SplineSet
24 241.069335938 m 7
 24 275.265625 51.7373046875 303 86.0009765625 303 c 7
 120.262695312 303 148 275.265625 148 241.069335938 c 7
 148 206.869140625 120.262695312 179 86.0009765625 179 c 7
 51.7373046875 179 24 206.869140625 24 241.069335938 c 7
EndSplineSet
EndChar
StartChar: uni207F
Encoding: 8319 8319 1325
Width: 318
Flags: W
HStem: 435 26<30.88 59.6824 184.833 203.833 263.05 285.2> 593 27<34 62.7888> 598 46<150.024 206.155>
VStem: 70 54<464.34 588.709> 211 51<471.341 596.725>
LayerCount: 2
Fore
SplineSet
62 582 m 0xb8
 57 596 54 593 46 593 c 1
 42 593 39 593 34 593 c 1
 31 620 l 1xd8
 58 625 75 625 107 653 c 1
 127 640 l 1
 123 632 122 611 122 598 c 1
 145 619 170 644 200 644 c 3
 240 644 262 623 262 587 c 3
 262 569 262 545 262 526 c 1
 262 502 261 478 263 471 c 0
 264 465 269 463 274 463 c 1
 277 462 287 461 290 460 c 1
 285 429 l 1
 265 433 255 435 234 435 c 1
 218 435 198 432 185 429 c 1
 181 459 l 1
 184 460 190 460 193 461 c 1
 200 463 204 470 207 487 c 1
 208 498 211 521 211 530 c 1
 211 544 209 569 207 575 c 1
 205 588 200 598 182 598 c 3
 159 598 139 587 124 574 c 1
 123 542 119 494 118 480 c 1
 117 464 124 464 134 461 c 1
 137 461 143 460 146 460 c 1
 142 430 l 1
 122 433 109 435 87 435 c 1
 69 435 49 432 31 430 c 1
 28 460 l 1
 33 461 35 461 40 462 c 0
 55 465 60 470 64 485 c 1
 69 497 70 522 70 536 c 1
 70 544 67 575 62 582 c 0xb8
EndSplineSet
EndChar
